<svg id="Layer_1" data-name="Layer 1" xmlns="http://www.w3.org/2000/svg" viewBox="0 0 1341 224.8"><defs><style>.cls-1{fill:#fdebbe;}</style></defs><path class="cls-1" d="M167.5,159.6c0,2.93-1.6,4.87-4.8,5.8a44.61,44.61,0,0,1-12.2,1.4q-4.2,0-11.8-.4-6.8-.41-10.8-.4-2.4,0-6.6.3c-2.8.2-5,.36-6.6.5a34,34,0,0,1-5.8-.8c-.53-.14-1.57-.34-3.1-.6a24.84,24.84,0,0,0-4.3-.4,39.65,39.65,0,0,0-8.4,1,65.79,65.79,0,0,1-7.8.8q-3.8,0-3.8-9.4l-.2-2.8a7.21,7.21,0,0,1,.8-3.6V128c.13-.53.3-1.3.5-2.3s.37-1.83.5-2.5l-1-6.2q0-3.6.4-12,.6-6.6.6-13v-.8a3.5,3.5,0,0,0-1-2.6q0-5-.8-14.6c-.13-1.47-.27-3.67-.4-6.6s-.2-5.47-.2-7.6a20.08,20.08,0,0,1,.3-3.5,16.09,16.09,0,0,0,.3-2.5,30.08,30.08,0,0,0,.8-6.4,7.39,7.39,0,0,0-.3-1.9,7,7,0,0,1-.3-1.5,4.54,4.54,0,0,1,1.4-3.1,21.74,21.74,0,0,0,1.8-2.1l2.2.2a54.08,54.08,0,0,0,5.8-.4,33.71,33.71,0,0,1,6.6-.6c.13,0,.3.13.5.4s.37.4.5.4q2.2-3.19,32-3.2,8,0,14.5.2t14.3.8q1.4.6,1.8,4.3a98.18,98.18,0,0,1,.4,10.1q0,5.4.9,7a5.86,5.86,0,0,1,.9,2.2,4.59,4.59,0,0,1-.5,1.7,3.51,3.51,0,0,1-1.1,1.5A246.16,246.16,0,0,1,131.9,61q-3.41,2.59-11.4,2.6l-5.2-.2c-2,0-3.27.2-3.8.6V88.6h39.4a1.9,1.9,0,0,1,1,.4,2.24,2.24,0,0,1,.8.8,6.82,6.82,0,0,1-1,2.1,5.83,5.83,0,0,0-1,2.5,13,13,0,0,0,1.3,2.9,9.92,9.92,0,0,1,1.3,4.5V104q0,8.59-2.4,9.8c-3.07.4-5.73.67-8,.8s-4.67.2-7.2.2q-7.39,0-14.2-.6-9.19-.4-14-.4l1.6,3.2q-.19,1.8-.9,7.7a86.87,86.87,0,0,0-.7,10.1,6.54,6.54,0,0,0,.5,2.7,9.14,9.14,0,0,1,.7,2.3c0,1.73.3,2.87.9,3.4a5.09,5.09,0,0,0,3.3.8q11.8,0,26.4-1,17.59-.8,26.4-.8c.8,0,1.2.47,1.2,1.4a2.28,2.28,0,0,1-.2,1v12.8ZM85.3,55.4a36.1,36.1,0,0,0,6.2-4.3c2.13-1.8,3.27-3.5,3.4-5.1A21.83,21.83,0,0,0,91,47.5,29.66,29.66,0,0,0,88.1,49c-1.33,0-2.17.23-2.5.7a6.8,6.8,0,0,0-.5,3.3Zm.6,14a1.14,1.14,0,0,0,.8.4,6.94,6.94,0,0,1,1-2c.53-.8.87-1.2,1-1.2,1.07,0,1.6.07,1.6.2s-.13.3-.4.5a1.75,1.75,0,0,0-.6.9,5.1,5.1,0,0,0,2.1-.5,4.79,4.79,0,0,1,1.9-.5l-1.6,1.6a10.6,10.6,0,0,1-2.6,2c-1.47.93-2.2,1.6-2.2,2V80a19,19,0,0,0,1.9-1.7,3,3,0,0,0,1.1-1.9,2.57,2.57,0,0,1-1.5-.5,1.52,1.52,0,0,1-.7-1.3q0-.6,3.7-2.6t4.5-2l-.2,1.2c0,.4.27.67.8.8a17.8,17.8,0,0,1-2.1,1.1,16.06,16.06,0,0,0-2.6,1.5,2.25,2.25,0,0,0-1.1,1.8l.2,1.2L92.5,76l.2.8q0,1-1.5,1.8A5.47,5.47,0,0,0,89.3,80a10.57,10.57,0,0,0,3.8-1.2,10.6,10.6,0,0,1,4-1.2v.8c-.67.4-2.13,1.13-4.4,2.2A11.11,11.11,0,0,0,88.1,84a8.13,8.13,0,0,0-1.2,4.6,3.55,3.55,0,0,0,1-.9,2.28,2.28,0,0,0,.6-1.5c3.47-2.27,5.8-3.83,7-4.7a10.59,10.59,0,0,1,2-1.3q1.2,0,1.2-2.4v-1c.13,0,.3.13.5.4a1.24,1.24,0,0,1,.3.6,16.81,16.81,0,0,0,2-1.8,10.49,10.49,0,0,0,2-2.6l2.4,1.8q-1.4,1.8-6.2,4.6a58.2,58.2,0,0,0-5.4,3.5A6.8,6.8,0,0,0,91.7,87a1.24,1.24,0,0,1,.7-.6,2.5,2.5,0,0,1,.9-.2,1,1,0,0,1,.5.2.67.67,0,0,1,.3.6l-2.9,2.2a33,33,0,0,1-3.5,2.4V95a4.44,4.44,0,0,0,1.6-1.4c.67-.8,1.13-1.2,1.4-1.2a19.45,19.45,0,0,0,2.7-1.8q2.5-1.8,9.3-6.8l-3,.9a26.73,26.73,0,0,1-2.6.7c.27-1.47,1.93-2.47,5-3a15.13,15.13,0,0,0,3.3-.9,2.06,2.06,0,0,0,1.3-1.5q1-3.41,1-11.4a2.86,2.86,0,0,0-1.2-.2,11.5,11.5,0,0,0-3.6.9,12.85,12.85,0,0,1-3,.9.88.88,0,0,1-1-1,8.93,8.93,0,0,1,3.7-2.5,12,12,0,0,1,4.5-1.3V61.8a6.64,6.64,0,0,1-4.6,1.6,5.63,5.63,0,0,1-2.8-.8q2.6-1.6,4.2-2.4a23.33,23.33,0,0,0,2.9-1.7c.87-.6,1.3-1.1,1.3-1.5l-.6-.8,2.8-2.9q2.6-2.7,5-2.7a25.42,25.42,0,0,0-3,3.8,30.15,30.15,0,0,1,3.1-.9c1.8-.47,2.7-.83,2.7-1.1A8.75,8.75,0,0,1,116,54q-2.1,1.39-5.3,3.8a9.82,9.82,0,0,0,4.6.8l4.8-4.8V53l-.8-.8a2.14,2.14,0,0,1,1-2,19.64,19.64,0,0,1,3.2-1.4c1.47-.53,2.2-1.13,2.2-1.8,0-.27,1.3-1.33,3.9-3.2s4.17-3,4.7-3.4l.8-.8h-7.8q-1,0-4.6,4-6.4,5.81-6.2,5.6a2.16,2.16,0,0,1-.8-1,3.17,3.17,0,0,1-.4-1.4L113.1,50c0-1.73.27-2.83.8-3.3a4.67,4.67,0,0,1,3-.7v1.4a6.61,6.61,0,0,0,1.8-1.6,10,10,0,0,0,1-1.4h-2.8a15.88,15.88,0,0,1,4.8-4,2.6,2.6,0,0,0-2.2-.8h-1c-2.13.27-4.87.57-8.2.9s-6.33.57-9,.7q-.8,2.59-8.6,9.6-5,4.61-5,5.4a6.36,6.36,0,0,1,3.2-.8c-.27.53-1.27,1.2-3,2s-2.6,1.47-2.6,2v9.4Zm-.6-24.8a4.17,4.17,0,0,0,.5,2.2,2.07,2.07,0,0,0,1.9.8A40.5,40.5,0,0,0,93,45q4.91-2.59,5.1-3-4.8,0-6.4-1.6a6.89,6.89,0,0,0-2.5.8,7.1,7.1,0,0,1-2.3.8l-1.6-.8ZM100.9,153a16.58,16.58,0,0,0,3.4-2.8l-1.2-.2a6.2,6.2,0,0,0-4.2,2.2q-2.4,2-4,2a5.81,5.81,0,0,1,2.2-2.2,20.67,20.67,0,0,1,3-1.4l2.3-1.1a5.47,5.47,0,0,0,2.7-2.5l-1.6-1.6-11.4,7.8v3.2a3.75,3.75,0,0,1-1.2-.7,6.08,6.08,0,0,0-1.6-.9l4-3.8,8-6.4L96.5,147l-.8-.2v-1.4a5.81,5.81,0,0,0,3.8-1.9,6.87,6.87,0,0,1,3.2-2.1v-4.8a7.5,7.5,0,0,1-2.2,3,7.77,7.77,0,0,1-3.4,1.8v-.8a1.41,1.41,0,0,1,1-1.4l-1-.2c-1.07,0-3,.77-5.9,2.3s-4.3,2.9-4.3,4.1a3.33,3.33,0,0,0,.3,1.3c.2.47.37.83.5,1.1a7.25,7.25,0,0,1,1.8-2.5,14.56,14.56,0,0,1,2.6-1.9,10.37,10.37,0,0,0,3.6-2.6,3.05,3.05,0,0,1-1,2.2,33.89,33.89,0,0,1-2.9,2.5,15.16,15.16,0,0,0-2.5,2.3h2.4v.8c-.4.27-1.23.87-2.5,1.8a9.48,9.48,0,0,0-2.7,2.8,6.36,6.36,0,0,0-.8,3.2h4a1.63,1.63,0,0,0,.2.6,1.82,1.82,0,0,1,.2.8c0,.13-.27.43-.8.9a3.83,3.83,0,0,1-1.6.9,1.56,1.56,0,0,0-1.6-1c0,2.13.53,3.53,1.6,4.2,1.2-.4,2.47-.83,3.8-1.3a27.48,27.48,0,0,1,4.2-1.1c.53-.27.87-.93,1-2a8.14,8.14,0,0,1,.4-2A16.86,16.86,0,0,1,100.9,153Zm-.8-62.5q3-1.91,4.2-1.9a2.2,2.2,0,0,1-.8,1.4l1.8-.9a2.3,2.3,0,0,0,1.2-1.9,30.83,30.83,0,0,0,.2-4c-.4.13-2.53,1.47-6.4,4s-5.93,4-6.2,4.4a31.89,31.89,0,0,1-4.4,5l-2.8,3.2a5.07,5.07,0,0,0,.3,1.8,3.79,3.79,0,0,1,.3,1.2q.6-.4,5.1-4t4.5-4.4Q97.1,92.4,100.1,90.5Zm2.6,9.1h-1.4l1.4-.8a1,1,0,0,0-1-.8l-1.2.2q0-1,2.4-3c1.6-1.33,2.87-2,3.8-2v1c.93,0,1.4-.33,1.4-1V94a2.16,2.16,0,0,1-.6,1.6,2,2,0,0,0,1.6-.7,2.08,2.08,0,0,0,.6-1.3,3.6,3.6,0,0,0-1.1-2.4,3,3,0,0,0-1.9-1.2q-.8,0-4.7,3.3a26.86,26.86,0,0,0-4.9,4.9l1,.6c.4.13.6.27.6.4q0,.8-3.3,2.1c-2.2.87-3.57,1.43-4.1,1.7q-4.39,1.4-4.4,2a1.77,1.77,0,0,0,.5,1.3,1.38,1.38,0,0,0,.9.5q1.8,0,4.4-2.6a26,26,0,0,1,2.6-1.9,4.87,4.87,0,0,1,2.6-.9,5,5,0,0,1-2,3.6,51.5,51.5,0,0,1-4.2,3.4c-1.47,1.07-2.53,1.8-3.2,2.2H86.9v6q1.8,0,4.6-2.7t3.4-3.3q3-1.8,7.4-4.4t7.4-4.2a21.16,21.16,0,0,1,4.6-3.4,19.13,19.13,0,0,0,5-3.6,8.09,8.09,0,0,0-1.7.2,6.18,6.18,0,0,0-1.3.4,8.89,8.89,0,0,1,4.6-3h-6.2Zm20.7-4.8a18.52,18.52,0,0,0-2.5,2.6q1.6,0,6.4-1.8c0,.27-1.7,1.33-5.1,3.2s-5.43,2.8-6.1,2.8q0-1,1.5-2.1c1-.73,1.57-1.17,1.7-1.3h-2.4l-3.4,2.3c-1.87,1.27-2.8,2-2.8,2.3a3.38,3.38,0,0,0,1,.2,6.52,6.52,0,0,0,3-1,9.86,9.86,0,0,1-3.5,2.7,76.21,76.21,0,0,1-7.1,3.1,61.77,61.77,0,0,0-8.1,3.5q-2.7,1.5-2.7,3.5c.53-.4,1.67-1.2,3.4-2.4a8.43,8.43,0,0,1,4.6-1.8l.6,1.2q0,1.8-2.9,3.7a36.56,36.56,0,0,1-5.7,3.1,1.59,1.59,0,0,1,1-1.5,2.77,2.77,0,0,0,1.4-1.7,5.08,5.08,0,0,0-2.4.8c-1.07,0-1.6-.27-1.6-.8a40.8,40.8,0,0,0-4.8,4.8,7,7,0,0,0,2.6-.4,12.58,12.58,0,0,0,2.2-1.2,5.09,5.09,0,0,1-2.3,2.6,9.08,9.08,0,0,0-2.5,2h2.4a4.75,4.75,0,0,0-1.3,2.5,20.57,20.57,0,0,0-.3,3.9,12.44,12.44,0,0,0,6.4-4.8c0,.13-.13.83-.4,2.1a15,15,0,0,0-.4,2.7q-6.4,3.19-6.4,3.8v1a25.6,25.6,0,0,0,.3,3.5c.2,1.4.37,2.57.5,3.5q1.6,0,5.8-2.8,2.2-1.2,4.5-2.4a8.8,8.8,0,0,1,3.9-1.2l.8.2c.27-1.33.6-3.37,1-6.1a52.06,52.06,0,0,0,.6-7.5,4.25,4.25,0,0,0-.9-1.4,1.9,1.9,0,0,0-1.3-.8q-1.2,0-11.4,4.6l-.6.2c.13-.8,1.17-1.8,3.1-3s3.23-1.8,3.9-1.8a1.25,1.25,0,0,1,.7.2.67.67,0,0,1,.3.6,1.78,1.78,0,0,1,.9-1.7,11.21,11.21,0,0,1,3.1-.9c1.47-.27,2.2-.73,2.2-1.4v-5.6l1.6-.8q5.8,0,17.4.4,8.8.6,17.4.6a13.67,13.67,0,0,0,7.2-1.6l-1-1a2.2,2.2,0,0,0,2.3-1.8,18.7,18.7,0,0,0,.5-4.8,18.35,18.35,0,0,0-7.3,1.5,51.23,51.23,0,0,0-6.6,3.4q-3.11,1.91-4.5,2.7h-1.6c-1.47,0-2.27-.33-2.4-1a28.8,28.8,0,0,1,5.9-5.8c2.47-1.87,4.63-2.8,6.5-2.8V98a10.87,10.87,0,0,0-4.5,1.3c-1.8.87-3.63,1.83-5.5,2.9q-8.8,5.2-13.2,5.2,0-2,.9-2.1c.6-.07,1-.63,1.1-1.7q5.81-2.8,8-5.2a25.21,25.21,0,0,0,4.2-7h-3.4A40.41,40.41,0,0,0,123.4,94.8ZM89.5,135.6a19.93,19.93,0,0,1,3.4-2.6q3.6-2.59,4.2-3.8H94.9l1.6-2h5.4a6.6,6.6,0,0,1-2.2,3.3q-1.61,1.31-4.6,3.3a13.52,13.52,0,0,0-3.4,2.2,5.51,5.51,0,0,1-1.2,2,8.13,8.13,0,0,1-2,1.8,3.36,3.36,0,0,1-.2-1.6A3.64,3.64,0,0,1,89.5,135.6ZM104.3,55q-1.8,1.39-6.1,4.8A36.8,36.8,0,0,0,92.5,65l-.2-1c0-1.33.47-2,1.4-2a2.4,2.4,0,0,1,.2-.7,4.32,4.32,0,0,0,.2-1.5,1.07,1.07,0,0,0-.8-1.2,6.72,6.72,0,0,0,2.9-2c1-1.07,1.63-1.73,1.9-2V56a8,8,0,0,0,3.6-.8,36.06,36.06,0,0,0,4.4-2.8,21.26,21.26,0,0,1,5.4-3.4Q111.5,49.6,104.3,55Zm-3-5c-.13.13-1.47,1-4,2.5s-4.13,2.3-4.8,2.3v-1a37.13,37.13,0,0,0,3.6-2.2c.27-.13.93-.53,2-1.2a11.15,11.15,0,0,1,3.2-1.4Zm-1.5,74.3a8.6,8.6,0,0,1-4.1,1.5c.13-1.2,1-2.3,2.5-3.3a7.76,7.76,0,0,1,4.1-1.5C102.3,122.2,101.47,123.3,99.8,124.3ZM102.7,90c-.27.13-.8.37-1.6.7a4.57,4.57,0,0,0-1.9,1.4,3,3,0,0,0-.7,1.9,5.32,5.32,0,0,0,3.1-.9,2.86,2.86,0,0,0,1.3-2.5Zm31.9,69.3a6.94,6.94,0,0,1,.5-2.9l6.2-6.2-1-.2a8.65,8.65,0,0,0-4.5,1.4,65.85,65.85,0,0,0-5.9,4.2c-.67.4-1.7,1.1-3.1,2.1a21.38,21.38,0,0,1-3.7,2.2,7.12,7.12,0,0,1-2.8.7c-1.87,0-2.8-.4-2.8-1.2q0-1.8,4.2-4.6t4.6-3v-1q-3.4,0-14.8,8.8h-2.2q0-3.79,7.6-8.6v-.8a47.17,47.17,0,0,1-6.4,3.2,38.1,38.1,0,0,0-7.8,4v-2.8q2.8,0,10.4-5.2a3.74,3.74,0,0,0-2.4-1,8.31,8.31,0,0,0-4.8,1.9,34.12,34.12,0,0,0-4.5,3.9,28.28,28.28,0,0,1-2.7,2.6h2.2l.4,1.2-1.6,1.6a98.1,98.1,0,0,0,24,2.6l9.8-.2C134.17,161.73,134.53,160.83,134.6,159.3ZM99.7,53l3.8-4-.8-.6a5.75,5.75,0,0,1,3.2-2.4,23.14,23.14,0,0,1-6.2,8.6Zm7.8-6.2V46a1.8,1.8,0,0,1,.6-1.6l.2.8A1.62,1.62,0,0,1,107.5,46.8Zm4.1-3.9a9.78,9.78,0,0,1-1.9,1.5q0-3.4,2.8-3.4A2.67,2.67,0,0,1,111.6,42.9ZM122.5,149a22.35,22.35,0,0,0-3.8,2.1,2.76,2.76,0,0,0-1.2,2.3q2,0,5.1-2.3a14.59,14.59,0,0,0,4.1-4.1A43.92,43.92,0,0,1,122.5,149ZM157.4,39.7a3.29,3.29,0,0,0-2.7-.9,69.63,69.63,0,0,0-12.6,1,38.79,38.79,0,0,0-10.8,3.8,20,20,0,0,1-1.9,2.8,15,15,0,0,1-4.7,4.2,2.15,2.15,0,0,0-.7-.4,2.5,2.5,0,0,0-.9-.2c-.13,0-.37.3-.7.9s-.57,1-.7,1.3h1.4L119.3,57a20,20,0,0,0,5.4-2.2,13,13,0,0,0,4-3.2l1,.6a20.4,20.4,0,0,1,5.8-4,13.57,13.57,0,0,1,5-1.6l.8.2-3.8,3.8c-.53.4-1.4,1.13-2.6,2.2s-2.4,2.2-3.6,3.4l1.6,1.6c.53,0,2,.13,4.3.4a49.82,49.82,0,0,0,5.3.4q1.2,0,4-2.4a23.94,23.94,0,0,1,3.6-2.4,1.5,1.5,0,0,1,.7.9,3.87,3.87,0,0,1,.1.7,18.64,18.64,0,0,0,4.4-2.8c1.87-1.47,3.07-2.2,3.6-2.2V49l-3.2,1.6a16.08,16.08,0,0,0,1.7-4,15.16,15.16,0,0,0,.7-4.2A4.33,4.33,0,0,0,157.4,39.7ZM126.5,58a12.26,12.26,0,0,0,3.6-2c1.2-.93,2.13-1.67,2.8-2.2l-1.6-.8a8.15,8.15,0,0,0,2.5-1,3.44,3.44,0,0,0,1.3-2l-4,2.6c-2.13,1.33-4.33,2.67-6.6,4s-4,2-5.2,2A27.48,27.48,0,0,0,126.5,58Zm9.9,34.9c-.33.87-.77,1.3-1.3,1.3L129.7,98a98.79,98.79,0,0,1-9.6,6.4q2.4,0,7.2-3c1.87-1.2,3.2-1.8,4-1.8l11-4.6a9.57,9.57,0,0,0,2.3-.4,9.57,9.57,0,0,1,2.3-.4v1.4q0,1-1.8,2.1t-4,2.3a40.3,40.3,0,0,0-5.9,3.1,3.73,3.73,0,0,0-1.9,3.1,4.81,4.81,0,0,0,2.8-.7,13.5,13.5,0,0,0,1.8-1.5l1.2-1.2a7.8,7.8,0,0,1,4.6-1.8,9,9,0,0,0,4.4-1.9q1.4-1.3,1.4-5.5c0-1.33-.33-2-1-2h-11C137.1,91.6,136.73,92,136.4,92.9Zm-.5,53.3a57.12,57.12,0,0,1-5.8,4.6,44.18,44.18,0,0,0-7,5.6,11.34,11.34,0,0,0,4.9-1.7,67.17,67.17,0,0,0,5.7-3.9c.53-.27,1.6-.93,3.2-2a10.25,10.25,0,0,1,3.8-1.8v-.8Zm20.9,15.9q5.89-1.31,5.9-6.1a8.21,8.21,0,0,0-.3-2.5,1.24,1.24,0,0,0-1.3-.9l-15,8.6h-1c-1.47,0-2.2-.4-2.2-1.2a8.44,8.44,0,0,0,4.7-2.9,13,13,0,0,0,3.1-5.5q-2.2.41-15.6,10.4a12,12,0,0,0,2.4,1.1,14.49,14.49,0,0,0,3.6.3h2A63.94,63.94,0,0,0,156.8,162.1Zm-1.7-8.2a29.63,29.63,0,0,0,5.8-4.5q2.59-2.6,2.6-4.8l-12.6,1.6a34.7,34.7,0,0,0-3.1,2.5q-2.7,2.3-3.9,2.3-4.2,4-5.6,5.5a8,8,0,0,0-1.4,1.7,7.19,7.19,0,0,0,2.7-1.6,37.44,37.44,0,0,1,3.1-2.2q4.61-3.6,7.6-5.5a10,10,0,0,1,5-1.9,1.47,1.47,0,0,1,.9.4,1.7,1.7,0,0,0,1.1.4c0,.8-.67,2-2,3.7a24.13,24.13,0,0,1-4.4,4.3Q151.9,155.8,155.1,153.9ZM145.2,44.3a25.57,25.57,0,0,1-4.1,1.1q0-1.8,2.4-2.7a12.65,12.65,0,0,1,4.4-.9v1Q147.9,43.4,145.2,44.3Zm.8,5.9a5.08,5.08,0,0,1,2.1-.4l1.4.2a11.28,11.28,0,0,0-2.2.9,5.35,5.35,0,0,1-2.2.7A1.42,1.42,0,0,1,146,50.2Zm13.1,3.4a18.2,18.2,0,0,0-6.3,1.7c-2.73,1.13-4.37,2.23-4.9,3.3l1.6.8h8.4q1.2,0,1.2-4.2Z"/><path class="cls-1" d="M242.6,64.7a2.37,2.37,0,0,1,.3,1.5V85a4.69,4.69,0,0,1-1.2,3.3,4.14,4.14,0,0,1-3.2,1.3,32,32,0,0,1-4.4-.8q-5.4-1-5.8-1a30.85,30.85,0,0,0-3.9.3l-3.9.5a22.21,22.21,0,0,0-1.8,9.2,116.73,116.73,0,0,0,1.2,16.3q1.2,8.5,1.4,9.9a179.12,179.12,0,0,1,2.6,21.6q.4,1.8,3,1.8a18.88,18.88,0,0,0,4.3-.6,18,18,0,0,1,3.9-.6,3.57,3.57,0,0,1,3.8,2.8,27,27,0,0,1,.8,7.2q0,12.6-2.6,12.6h-4.4a109.66,109.66,0,0,1-17-1.1,39.62,39.62,0,0,1-13.4-4.9q-7-4-10.3-13.7a60.23,60.23,0,0,1-3.3-19.5q0-2.8.4-8.4t.4-8.4a80.57,80.57,0,0,0-.6-10c-.27-4.27-.4-7.53-.4-9.8l.2-3.4a2.87,2.87,0,0,1-1.8-1.5c-.53-.87-1-1.3-1.4-1.3q-4.6,3.4-7.2,3.4c-.67,0-1-.6-1-1.8,0-2.27.6-3.93,1.8-5q-2-.6-2-7l.2-9.4a9.29,9.29,0,0,1,3.8-1.5,34.59,34.59,0,0,1,5-.3,13.45,13.45,0,0,1,3.1.4,12.25,12.25,0,0,0,2.7.4l-.2-9q-.4-6-.4-9c0-2.27.5-3.83,1.5-4.7s3.3-1.3,6.9-1.3a19.73,19.73,0,0,1,4.8.6,32.51,32.51,0,0,0,4.4.4,4.51,4.51,0,0,0,1.7-.9,4.12,4.12,0,0,1,2.1-.9q5.81,0,7.2,1.9t1.4,6.7a32.1,32.1,0,0,0,.4,4.2,21.38,21.38,0,0,1,.6,5.2l-.4,6,19.6-.8A1.56,1.56,0,0,1,242.6,64.7ZM182.1,83.1c.13.2.47.3,1,.3q1.8,0,7.8-5.4t6.2-6.6a10.18,10.18,0,0,1-5.8,1.6V70.4h-8.8a9.94,9.94,0,0,0-.5,1.8,12.44,12.44,0,0,0-.3,2.6,12.67,12.67,0,0,0,.5,2.7,13,13,0,0,1,.5,3.1,2.14,2.14,0,0,1-1,2A3.12,3.12,0,0,1,182.1,83.1ZM193,86.2c.33.8.57,1.33.7,1.6l9.6-3.4c1.07-1.47,3.53-2.73,7.4-3.8a35.14,35.14,0,0,0,5.6-2.1,8.54,8.54,0,0,0,3.4-2.9h-2.6l-20,5.2-.6-.8c-.4,1.2-1.07,1.8-2,1.8a10.89,10.89,0,0,1-3.2-1l-6,4.2h6.8Q192.51,85,193,86.2Zm6.9,3.2a10.68,10.68,0,0,0-4.9,1.5Q193.5,92,193.5,96a19.12,19.12,0,0,0,.2,3,17,17,0,0,1,4.1-4.5,49.23,49.23,0,0,1,5.5-3.3,21.43,21.43,0,0,0,6-3.4h-2.4A20.14,20.14,0,0,1,199.9,89.4Zm1.8,35.4a10.83,10.83,0,0,0-4.9,2.2q-1.5,1.4-3.1,6.6a77,77,0,0,0,9.9-6q5.1-3.6,6.7-4.6v-1A34.19,34.19,0,0,1,201.7,124.8Zm-5.9-8a7.63,7.63,0,0,0-1.3,4.6l.2,1.6,13.8-7.8a13.36,13.36,0,0,0-4.8,1c-.4.13-1.07.33-2,.6a10,10,0,0,1-2.8.4l-1.8-.2,1-.8,14.6-5.2v-5.2q-2.59.2-7.2,3.5t-5.8,4.1A13.49,13.49,0,0,0,195.8,116.8Zm5.9-18.3c-4.53,1.53-6.87,2.23-7,2.1v5.2h.8q1.8,0,9.2-4.5t7.4-5.9l-.2-.6Q208.5,96.2,201.7,98.5Zm-4.5,9.2a8.43,8.43,0,0,0-2.5,2.3c.67.13,1,.8,1,2l-.2,1.6,3.4-3.6a1,1,0,0,0,1,1,1.77,1.77,0,0,0,.9-.3,4.72,4.72,0,0,0,.9-.7q2.4-1.6,5.6-4c2.13-1.6,3.67-2.8,4.6-3.6l-11.2,4.2A6.38,6.38,0,0,0,197.2,107.7Zm-1.7,32.7,12-5.2V134a61.85,61.85,0,0,0-7.1,2q-4.91,1.6-4.9,1.8Zm.8-76.8a4,4,0,0,1,.5.7,1.77,1.77,0,0,1,.3.9,16.76,16.76,0,0,0,5.5-1.2q3.3-1.2,4.3-3l-3.4-.2Q196.3,60.8,196.3,63.6Zm.2-13.8a4.81,4.81,0,0,1,.6,1.2,2.46,2.46,0,0,0,.6,1,1.63,1.63,0,0,0,1.2.4,15.09,15.09,0,0,0,5.6-1.6,12.06,12.06,0,0,1,5.8-1.8l2-1a6.2,6.2,0,0,0,2.2-1.6,22.41,22.41,0,0,1-3.4.2,40.24,40.24,0,0,1-7-.6,27.07,27.07,0,0,1-3.4-.3,31.2,31.2,0,0,0-4.2-.3Zm.4,97.7a1.87,1.87,0,0,0,2,1.5q1,0,7.9-4.8t7.7-5.6a8.93,8.93,0,0,0-1.9.2,7.39,7.39,0,0,1-1.5.2,41.9,41.9,0,0,0-8.3,1.7c-4.2,1.13-6.3,2.17-6.3,3.1A14.42,14.42,0,0,0,196.9,147.5ZM215.5,123l-1-.8a17.33,17.33,0,0,1-4.2,4c-1.73,1.2-3.47,2.33-5.2,3.4a44.1,44.1,0,0,0-7,4.8,14.4,14.4,0,0,0,5.5-1.2c1.93-.8,3.1-1.27,3.5-1.4q5.21-2.6,8.4-2.6ZM199.1,97.4a14.08,14.08,0,0,0,3.4-.7,16,16,0,0,0,3.4-1.3,2.06,2.06,0,0,1,1.2-1.5,18,18,0,0,1,2.2-.9,11.35,11.35,0,0,0,3.3-1.7,3.55,3.55,0,0,0,1.1-2.9q-2.2,0-7.8,3.4a44.87,44.87,0,0,0-7.4,5.2C198.5,97.27,198.7,97.4,199.1,97.4Zm16.3-42.3a22.23,22.23,0,0,0,1.7-5.3,9.88,9.88,0,0,0-4.8,1.2,36.81,36.81,0,0,0-5,3.4,31.7,31.7,0,0,1-4.3,3.1,8.08,8.08,0,0,1-4.1,1.1V60a25.43,25.43,0,0,0,7.4-1.6,21.62,21.62,0,0,1,6.8-1.6A2.65,2.65,0,0,0,215.4,55.1Zm-6.3,12.5q-2.81,1.2-5.8,2.2c-2,.67-3.47,1.2-4.4,1.6v3.8l15.6-9V64.4A25,25,0,0,1,209.1,67.6Zm8.6,3.3a2,2,0,0,1-.7-1.4c-.07-.6-.5-.9-1.3-.9q-2,2.2-8,4.6-6.4,2.6-8.8,5.2l8-1.8.6-1,1,1c1.07-.93,3.13-1.67,6.2-2.2a28.49,28.49,0,0,0,4.5-1.4c.87-.4,1.3-.93,1.3-1.6A5,5,0,0,1,217.7,70.9Zm-16,84.2a3,3,0,0,0,2,.9q2,0,8.3-3.9t6.3-5.9h-1.2l-15.4,6.2c-.67.27-1,.53-1,.8A2.56,2.56,0,0,0,201.7,155.1ZM204,67.6a10.56,10.56,0,0,1,2.9-.6l8.4-4.2a2.9,2.9,0,0,1,.6-1.3,2.92,2.92,0,0,0,.6-1.5q-2,0-8.6,3.3t-6.6,4.9A10.6,10.6,0,0,0,204,67.6ZM214.7,118c0-1.87-.4-2.8-1.2-2.8l-11.8,6.2a13.86,13.86,0,0,0,5.2-1.4c.4-.13,1.13-.4,2.2-.8a9.06,9.06,0,0,1,3.2-.6c1.33,0,2.07.4,2.2,1.2ZM213,155.6q-7.69,3.19-8.9,4.6h13q6.79-6.8,6.8-7v-.8h-1.6Q220.7,152.4,213,155.6Zm-2.1-12.3a27.78,27.78,0,0,0-5.8,5.7,20,20,0,0,0,4.6-2.2q2.6-1.61,8.4-5.8a4.54,4.54,0,0,0-.2-1.4A25.32,25.32,0,0,0,210.9,143.3Zm5.4-9.9-7.2,3.2,1.2.4q6-.8,6-1.8ZM237.7,74a79.67,79.67,0,0,0-13.6,4.4q-7.2,3-8.8,6l1.8-.2a4.63,4.63,0,0,1,2.6.8,65.61,65.61,0,0,0,8.2-.8,75.41,75.41,0,0,1,9-.8Zm-19,87.8h1a14.49,14.49,0,0,0,5.2-1.7,30.48,30.48,0,0,0,6.5-4.1q2.9-2.4,2.9-4.4ZM226,69.9c-2.6.73-3.9,1.37-3.9,1.9a3.5,3.5,0,0,0,.8,1.1,15.52,15.52,0,0,1,1.2,1.5l-1.8,3,14.4-7.8c-.53-.53-1.67-.8-3.4-.8A27.08,27.08,0,0,0,226,69.9Zm5.9,93.6q1.6-.9,1.6-5.1l-11.2,5.2,1.6.5a6.37,6.37,0,0,0,1.8.3C228.77,164.4,230.83,164.1,231.9,163.5Z"/><path class="cls-1" d="M327.8,147.8a73.49,73.49,0,0,1,2.7,12q-6.79,9.19-32,9.2a48.82,48.82,0,0,1-17.1-2.8,53.18,53.18,0,0,1-14.7-8.6,37.31,37.31,0,0,1-6.5-7.4q-3.9-5.4-4.1-6.8-.8-2.4-2-8a44,44,0,0,1-1.2-8q0-27.41,3.8-33.4,8.21-13,18.8-18t27.2-5a38.59,38.59,0,0,1,12.9,3.6,64.86,64.86,0,0,1,11.9,7.8V99.2a2.14,2.14,0,0,1-.8.4,3.87,3.87,0,0,1-1.2.2,3.81,3.81,0,0,1-1.9-.4,4.81,4.81,0,0,1-1.5-1.7,4.68,4.68,0,0,0-2.2-1.9,22.63,22.63,0,0,0-6.5-1.5q-3.5-.3-8.7-.3-10,0-16.4,6.1t-6.4,16.1q0,15.4,6,25.6l1,.6,4,1.8c3.73,1.73,5.87,2.6,6.4,2.6l9.6.2a20.57,20.57,0,0,0,3.9-.3,31.43,31.43,0,0,0,4.9-1.7c.4-.27,1.4-1,3-2.3s2.6-1.9,3-1.9Q325.69,140.8,327.8,147.8Zm-60.4-33.2a16.88,16.88,0,0,0-7.5,5,12,12,0,0,0-2.6,7.8,31.67,31.67,0,0,0,2.9-1.7c1.13-.73,2.17-1.37,3.1-1.9a6.36,6.36,0,0,1,3.2-.8,3,3,0,0,1-1.6,2.3,13.7,13.7,0,0,1-3.4,1.7,17.4,17.4,0,0,0,6-1.1c2-.73,3.27-1.17,3.8-1.3a16.62,16.62,0,0,1,6-1.8v-3.2a13.59,13.59,0,0,0-4.8,1.4,8.68,8.68,0,0,1-4.2,1.4v-.8q1.2,0,5.8-4.7t4.8-6.3l-.8-.2c-.4.13-1,.37-1.9.7a27,27,0,0,0-2.5,1.1Q272.3,112.8,267.4,114.6Zm-9.7,2.8a4.44,4.44,0,0,0,2.6-1.5,4.44,4.44,0,0,1,2.6-1.5c.67-.27,2.5-1.13,5.5-2.6a23.48,23.48,0,0,1,6.3-2.4c0-.13-.1-.27-.3-.4a.9.9,0,0,1-.3-.8,1.2,1.2,0,0,1,.8-.8l1.6,1.6,1.8-1.8a14.54,14.54,0,0,0,1.8-2.1,3.7,3.7,0,0,0,.6-2.1c0-.4-.13-.6-.4-.6q-1.2,0-5.7,2.8a40.13,40.13,0,0,0-7.1,5.4l-3.4.8a4,4,0,0,0,2.2-1.5,10.74,10.74,0,0,0,1.4-2.9c.4-1.2.8-1.87,1.2-2q1-.41,4.6-1.6a24.38,24.38,0,0,0,5.7-2.6c1.4-.93,2.1-1.8,2.1-2.6a1.77,1.77,0,0,0-.3-.9,1.74,1.74,0,0,0-.7-.7c1.47,0,4.53-.77,9.2-2.3a116,116,0,0,0,12.8-5q5.81-2.7,5.8-4.1l-.4-.8c-1.07.53-2.57,1.17-4.5,1.9a30.92,30.92,0,0,1-3.9,1.3l-12,4a2.2,2.2,0,0,1-1.4.8,1.8,1.8,0,0,1-1.6-1.2,17.23,17.23,0,0,1,2.4-1.9,16.7,16.7,0,0,0,2.2-1.7c0-.4.53-1.13,1.6-2.2q-3.4,1.8-10,4.9t-12.2,5.5a4.24,4.24,0,0,1-2.1,1.9l-1.9.9a18.82,18.82,0,0,0-3.1,1.5,2.84,2.84,0,0,0-1.3,2.1l-1.6,7.4a14.6,14.6,0,0,1,6.6-2.2q-1,1-3.9,3.4t-3.3,2.4Zm1.6,18.8c.67,0,1.13-.4,1.4-1.2l13.8-7,2.8-2.6q-6.19,0-17.4,4l-.8-.8c-.93.93-1.4,1.6-1.4,2v1.2Q257.7,136.2,259.3,136.2Zm4.8,11.7a3.51,3.51,0,0,0,2.6,1.3,5,5,0,0,0,2.9-1.1c1-.73,1.57-1.17,1.7-1.3s.8-.6,2-1.4a6.75,6.75,0,0,1,3.8-1.2c0,.4-.57,1.2-1.7,2.4s-1.83,1.8-2.1,1.8c.93-.13,1.87-.3,2.8-.5a11,11,0,0,1,2-.3l-.8,1.6-.8-.8a3.57,3.57,0,0,1-2,2.4,6.68,6.68,0,0,0,3-.6,15.73,15.73,0,0,0,2.7-1.8,9.24,9.24,0,0,1,2.7-1.6l-1-1a3.29,3.29,0,0,1,1.4-1q1.2-.6,1.2-1.2-.6-.6-2.4-5.6-.41-.8-2.2-5t-2.6-4.4l-3.6,1.6a3.49,3.49,0,0,1-1.8,1.7,24.15,24.15,0,0,1-2.5,1.1q-1.09.41-1.5.6a29.43,29.43,0,0,0-4.5,2,2.32,2.32,0,0,0-1.3,2q-.19,0-.6-.6a5,5,0,0,1-1,1.8,3.75,3.75,0,0,0-.8,2.4q1.2,0,5-2.4,4.2-2.4,7.5-3.9a15.23,15.23,0,0,1,6.3-1.5,3.22,3.22,0,0,1-1.7,3.1,22.16,22.16,0,0,1-5.1,1.7,20.78,20.78,0,0,0-4.3,1.3,2.37,2.37,0,0,0-1.5,2.3,2.32,2.32,0,0,1,1.6-.8l2.4.2v1.2a7.15,7.15,0,0,1-2.9.8,12.68,12.68,0,0,0-3,.6,1.56,1.56,0,0,0-1.1,1.6A3.8,3.8,0,0,0,264.1,147.9Zm-.5-54a5.56,5.56,0,0,0-2.1,1.5q7.2,0,7.4-2.2l-3-.2A13.61,13.61,0,0,0,263.6,93.9Zm6.9,24.1a20.16,20.16,0,0,1-8.6,4l-.2-.8c0-.93,1-1.7,2.9-2.3a17.08,17.08,0,0,1,4.9-.9Zm9-39.2a45.87,45.87,0,0,0-8.9,4.9q-4.1,2.89-4.7,6.3l7.8-6.4-4.8,7.2a11.38,11.38,0,0,1,4.2-3.4c2-1.07,3.2-1.73,3.6-2q7.2-4,9.6-7l-1-1.6Q284.29,76.8,279.5,78.8Zm-8,76a6.4,6.4,0,0,1,1.1-2.3,6.23,6.23,0,0,0,1.1-2.5,3.68,3.68,0,0,1-2.6,1.7,5,5,0,0,0-2.8,1.5Zm3-14a6,6,0,0,0-1.9.3,4.73,4.73,0,0,1-1.3.3c0-.53.83-1,2.5-1.4a18,18,0,0,1,3.9-.6c.4,0,1.07.47,2,1.4a1.55,1.55,0,0,1-1.1.9,5.58,5.58,0,0,1-1.1.3Q277.5,140.8,274.5,140.8Zm36.6,21.4a8.68,8.68,0,0,1,4-1.6q1.8,0,5.5-2.3c2.47-1.53,3.83-3,4.1-4.3l-2.4-6.4-.6-.2q-1.6.6-7,2.7a76.7,76.7,0,0,0-10.3,4.9q-4.9,2.81-4.9,4.8a5.49,5.49,0,0,1-.3,2.2,1.12,1.12,0,0,1-1.1.6,8.21,8.21,0,0,1-1.8-.3,10.72,10.72,0,0,0-2.6-.3,3.6,3.6,0,0,1,1-2.5,15.42,15.42,0,0,1,2.8-2.3,8.82,8.82,0,0,0,3.4-3.2l-1.6-.8,2.4-2.4a29.36,29.36,0,0,0-5.5.6c-2.07.4-3.1,1.13-3.1,2.2a.88.88,0,0,0,1,1,5.88,5.88,0,0,0,3.6-1.4l.2.8a2.88,2.88,0,0,1-1.5,2.4,5.23,5.23,0,0,1-2.9,1l-1.6-.6v1.4c0,.13-.77.37-2.3.7a19.74,19.74,0,0,1-4.1.5l-1-.2,6.6-6-3.8-.8v-.8l4.6-2.4a2.15,2.15,0,0,0-1.3-1.5,7.42,7.42,0,0,0-2.3-.3q-4.8,0-15.2,7.4a8.36,8.36,0,0,0,1.6-.3,11.61,11.61,0,0,1,2.8-.3c.4,0,.6.07.6.2q0,3.19-4.4,3.2,2.4,3.41,11,5.7a58.29,58.29,0,0,0,14.6,2.3l3.2-.2,2.4-1.6,1,.8q.19-2.4,5.6-6.4,3.19-2.4,3.2-3.4c0-.93.67-1.73,2-2.4a7.16,7.16,0,0,0,2.4-1.6c.67.13,1,.67,1,1.6h1.4a7.25,7.25,0,0,1-3.2,2.4c-.67.13-2.57,1.57-5.7,4.3s-4.77,4.3-4.9,4.7A9.42,9.42,0,0,0,311.1,162.2ZM291.9,76.8a8.14,8.14,0,0,1-2.5,3.6,51,51,0,0,1-5.7,3.8q-2.2,1.2-4.5,2.6a10.93,10.93,0,0,0-3.5,3.2h.8l16.2-8.2a10.28,10.28,0,0,1,4-2.8,7.36,7.36,0,0,0,4.2-2.8l-2.2-.2-3.4.2a6.18,6.18,0,0,1-1.8-.2A1.62,1.62,0,0,0,291.9,76.8ZM285.3,153a3.93,3.93,0,0,0-2,.8,6.94,6.94,0,0,1-2,1,1.17,1.17,0,0,1-.2-.8c0-1.33,1.13-2.13,3.4-2.4A1.44,1.44,0,0,1,285.3,153Zm2.6-76.2a1.06,1.06,0,0,0,1.2,1.2c.67,0,1.33-.6,2-1.8l-1.2-.2C288.83,76,288.17,76.27,287.9,76.8Zm13.4,3.8a43.09,43.09,0,0,1-4.2,3.7,6.61,6.61,0,0,1-3.6,1.7c-.13,0-.4-.2-.8-.6l-.8,2.2a93,93,0,0,0,9.8-3.2,24,24,0,0,1,3.8-1.4c.4-.13,1.3-.47,2.7-1a22.52,22.52,0,0,0,3.6-1.7,8.41,8.41,0,0,0,2.3-1.9,17.94,17.94,0,0,1-3.6-1.2c-1.6-.67-2.53-1.07-2.8-1.2Q305.9,76,301.3,80.6Zm20.2,3.8a13.43,13.43,0,0,1-4.6,1.4,42.92,42.92,0,0,0-6.1,1.9,3.52,3.52,0,0,0-2.3,3.1l13,1.4h.8A36.14,36.14,0,0,1,321.5,84.4Zm1.1,77.5q2.29-1.1,2.3-4.7-6.6,4.4-9.2,5.8A16.7,16.7,0,0,0,322.6,161.9Zm-4.9-80.4a4.44,4.44,0,0,0-.2,1.1,6.23,6.23,0,0,0,2.4-.8c-.13-.13-.37-.33-.7-.6a1.47,1.47,0,0,0-.9-.4C318,80.8,317.83,81,317.7,81.5Z"/><path class="cls-1" d="M434.7,149.9c.27,2.47.47,4.23.6,5.3a75.34,75.34,0,0,1,1,11.6q0,7.39-3.2,7.4a3.39,3.39,0,0,1-1.7-.8c-.73-.54-1.17-.87-1.3-1H415.5a5.32,5.32,0,0,1-2.6.8,6.38,6.38,0,0,1-3.5-1.1,3.21,3.21,0,0,1-1.7-2.7,4.32,4.32,0,0,1,.7-1.6c.47-.8.77-1.34.9-1.6a235.92,235.92,0,0,0,2.4-33.8,181.81,181.81,0,0,0-1.2-23.9q-1.2-8.5-5.6-13.3t-13.6-4.8q-11.4,0-18.8,10.4l.2,1.2a21.84,21.84,0,0,1-1.6,6,27.9,27.9,0,0,0-2.4,9.8,55.17,55.17,0,0,0,1.6,11.2c.13.8.4,2.3.8,4.5a33.39,33.39,0,0,1,.6,5.9c.53,4.8.87,8.3,1,10.5s.2,6.3.2,12.3q0,10.2-3.2,10.2l-21.6-1.8.6-10.2.4-7c0-.53-.33-3.47-1-8.8a53.09,53.09,0,0,1,1-9.6,75.87,75.87,0,0,0,.8-9.2q-4.2-30.19-4.2-45.8,0-2.4.4-7.2.4-5.2.4-7.6c0-1.87-.13-4.53-.4-8s-.4-6.07-.4-7.8a27.47,27.47,0,0,1,.4-3.8,28.39,28.39,0,0,0,.4-4.2,77,77,0,0,0-3-14l-1.4-5.8a1.66,1.66,0,0,1,.8-.7,2.35,2.35,0,0,1,1-.3,8.87,8.87,0,0,1,2.5.8,11.63,11.63,0,0,0,4.5.8l3.4-.6h16.4l.8.6q0,1.61,1.2,10a131,131,0,0,1,2.4,21.4c0,1.47-.13,3.53-.4,6.2-.27,2.93-.4,5.07-.4,6.4A44.53,44.53,0,0,0,386.5,64c.67-.13,2.33-.53,5-1.2a31.22,31.22,0,0,1,7.6-1,35.82,35.82,0,0,1,12.5,2.5q6.7,2.51,9.9,6.3A64.67,64.67,0,0,1,430,82.7a31,31,0,0,1,3.3,9.7,110,110,0,0,1,.8,11.4q0,4.2.2,6.4,1.8,12.6,1.8,14.6a53.09,53.09,0,0,1-1,9.6,75.13,75.13,0,0,0-.8,8.8A62,62,0,0,0,434.7,149.9ZM350.9,32.6l6-4.2a2.8,2.8,0,0,0,2-1.1c.67-.73,1.13-1.23,1.4-1.5H348.1Zm1.2,2.6a2.07,2.07,0,0,0-1.2,2l.8,4.2q4.2-1.6,9-7.8a13.87,13.87,0,0,0-5.6,1.8.71.71,0,0,0-.8-.8A5,5,0,0,0,352.1,35.2ZM366,49.8a25.81,25.81,0,0,0,3.7-1.6,19.52,19.52,0,0,0-.8-4.4c-2.27,1.07-3.43,1.8-3.5,2.2a2.9,2.9,0,0,1-.9,1.4,24.21,24.21,0,0,1-4.8,2.8,51,51,0,0,0-6.1,3.8,4.68,4.68,0,0,0-2.1,3.8,9.66,9.66,0,0,0,1,5q10.8-6,14.8-11l-4.6.2a10.82,10.82,0,0,1-2.4-.2C362.3,51.13,364.2,50.47,366,49.8Zm-13.5,45h.8q.4-.4,7.6-5t7.2-6.6a2.63,2.63,0,0,1-.6-.9,2.5,2.5,0,0,1-.2-.9,4.55,4.55,0,0,1,.4-1.6,4.87,4.87,0,0,0,.4-1.8l-.2-1.2q-.6,0-5.2,3.8l-5,3.8c0,1.2-.27,1.8-.8,1.8a1.77,1.77,0,0,1-.9-.3,1.77,1.77,0,0,0-.9-.3V84.4q0-1.8,4.6-4.4a33.85,33.85,0,0,0,5.7-4.3,6.62,6.62,0,0,0,1.9-4.9V68l-5,4c-1.6,1.33-3.2,2.57-4.8,3.7s-2.8,1.7-3.6,1.7a4.74,4.74,0,0,1,1-3.3,10.42,10.42,0,0,1,3-2.1,10.39,10.39,0,0,0,4.2-3.2l.6,1a18.14,18.14,0,0,1,2.7-3.9c1.4-1.67,2.23-2.7,2.5-3.1a14.74,14.74,0,0,0-5.4,1.2q-3,1.2-5.5,2.5l-3.3,1.7q-2.2,1.2-2.2,6.2l.2,3.4Q351.7,81.6,352.5,94.8Zm12-54.4a10.72,10.72,0,0,1,1.8-.7,3.35,3.35,0,0,0,1.4-.7,2.71,2.71,0,0,0,.4-1.8,17.71,17.71,0,0,0-.8-5.2,125.07,125.07,0,0,0-15.6,13.6v7.6l8.6-5.8a24.2,24.2,0,0,1,3.2-2.4,13,13,0,0,0,4.4-3.6v-1Zm-5.6,63.5q2.81-2.7,9-7.9,4-3.19,4.6-3.8a11.31,11.31,0,0,0-4.3.7,26.66,26.66,0,0,0-3.9,2.1,13.48,13.48,0,0,1-4.8,2.4c-2.4,0-4,.3-4.9.9s-1.3,2-1.3,4.3v5.2q0,6.8,1.8,10.2a34.61,34.61,0,0,1,3.4-6c.67-.4,1.5-.83,2.5-1.3a10.14,10.14,0,0,0,2.4-1.5,3.32,3.32,0,0,0,.9-2.6,11.12,11.12,0,0,0-4.2,1,17.16,17.16,0,0,1-4,.8Q356.1,106.6,358.9,103.9Zm-4,60.3a5.32,5.32,0,0,1,1.7-3.6,38,38,0,0,1,3.8-3.5c1.4-1.13,2.37-1.9,2.9-2.3a26.38,26.38,0,0,0,4-3.2,19.75,19.75,0,0,0-3.6.5,19.71,19.71,0,0,1-3.4.5c2.4-2.13,4.4-3.27,6-3.4v-4.6a32.75,32.75,0,0,1-5.1,4.8q-3.3,2.59-4.3,3.2v-1.8l8.6-8.6v-2.4a3,3,0,0,0-1.9.7,2.09,2.09,0,0,0-.9,1.7,11.48,11.48,0,0,1-3,.6c-1.33.13-2.27.2-2.8.2a5.4,5.4,0,0,1,1.6-2.6,9.22,9.22,0,0,1,2.8-1.4,6.61,6.61,0,0,0,3.2-1.7c.67-.73,1-2.23,1-4.5q-2.4.4-6.8,5.1t-4.4,7.7V168l13-.8a5.72,5.72,0,0,0-.7-3.1,12.55,12.55,0,0,1-1.1-2.1,5.4,5.4,0,0,1-3.4,3.4,19.32,19.32,0,0,1-6,.8,25.55,25.55,0,0,1,5.5-3.6q4.09-2.21,5.7-2.2v-3.8a5.32,5.32,0,0,0-3.6,1.2,27.4,27.4,0,0,0-3.2,3.4,34.65,34.65,0,0,1-2.6,2.7,5.31,5.31,0,0,1-2.8,1.5A2.12,2.12,0,0,1,354.9,164.2Zm.4-41.4c.27,1.07.53,2.07.8,3q6.79-3.6,6.8-7.8a11.81,11.81,0,0,0-.8-5l-7,6.8-.2.6A10.8,10.8,0,0,0,355.3,122.8Zm.9,6.5q-1.31,2.1-1.3,6.9l.2,2.6a27,27,0,0,1,3.2-2.8q6.6-4.8,6.6-7.8c-.93.13-2.27.4-4,.8s-3.07.73-4,1a4.12,4.12,0,0,1,1.9-1.6,22.69,22.69,0,0,1,3.6-1.2c1.53-.4,2.3-1,2.3-1.8a4.07,4.07,0,0,0-1-3l-1.6.8A32.92,32.92,0,0,0,356.2,129.3Zm12.7-75.1q-9.79,5.4-13.8,10.4h1l11.2-4.4a1.9,1.9,0,0,0,1.4-1.5,9.05,9.05,0,0,0,.4-2.7Zm-11.2-24-.8.8h.8Zm2.7,89.5a5.87,5.87,0,0,1-3.1,1.1l-.2-.6a1,1,0,0,1,.5-.9q.5-.3,1.8-.9t2.7-1.2A3.07,3.07,0,0,1,360.4,119.7Zm2.3-25.9a50.56,50.56,0,0,0,5.8-3,25.19,25.19,0,0,1,8.2-3.8l24-17.2,2.6-2.6q-15,8.4-25,11.2L357.7,94.8A12.83,12.83,0,0,0,362.7,93.8Zm-.4-18.4a10.78,10.78,0,0,1-4.6,2.2,16.06,16.06,0,0,1,3.5-3.6,6.86,6.86,0,0,1,3.9-1.8Q365.1,73.4,362.3,75.4Zm-.1,9.2a31.66,31.66,0,0,0-3.7,1.6q4.39-5.6,7.2-5.6C365.7,82.33,364.53,83.67,362.2,84.6Zm1.4,19.8a7.21,7.21,0,0,0,2.7-3.6,54.85,54.85,0,0,0-4.5,3.2,12.52,12.52,0,0,0-2.3,2A6.79,6.79,0,0,0,363.6,104.4Zm1-77.4a13.32,13.32,0,0,0-2.4,1.2,8,8,0,0,0-1.9,2l.8.8a7.08,7.08,0,0,0,3.9-1.7c1.53-1.13,2.3-2.3,2.3-3.5Q366.1,26.4,364.6,27Zm9.6,46.5a23.65,23.65,0,0,0-1.7,4.1,21.49,21.49,0,0,1,4.3-1.3c2.07-.47,3.17-.7,3.3-.7l.8.2,18.2-8.6a67,67,0,0,0-22.4,3.4A6.86,6.86,0,0,0,374.2,73.5Zm20.5,11.7q.6,0,4.4-2.8c.93-.53,2.23-1.37,3.9-2.5a26.32,26.32,0,0,1,3.9-2.3l-1-.2a14.39,14.39,0,0,0-6.2,1.8,25.55,25.55,0,0,1-5.8,1.8c0-.27,1.33-1.13,4-2.6a91.8,91.8,0,0,1,8.5-4.1,19.87,19.87,0,0,1,7.3-1.9h1.2c0-.93-.77-1.77-2.3-2.5a9.74,9.74,0,0,0-4.1-1.1q-3.19,0-11.6,6.2T385.3,85.2Zm5.2,0h1.8l19.8-6.8a23.39,23.39,0,0,0-2-3.1c-.93-1.27-1.67-2-2.2-2.1q-.19,0-9.2,6l-6.4,4.2Zm4,3.3a5.12,5.12,0,0,0,2.4,1.1q1.8,0,5.3-2.6a24.33,24.33,0,0,0,4.7-4.2l-.8-.2a23.33,23.33,0,0,0-6.8,1.6,62.86,62.86,0,0,0-7,2.8Zm20.4-.3a4.07,4.07,0,0,1-1.2,3,17.91,17.91,0,0,1-3.6,2.6,21.23,21.23,0,0,0-3.8,2.7,4.56,4.56,0,0,0-1.4,3.5,12.06,12.06,0,0,0,5.8-1.8,12.83,12.83,0,0,1,5.6-1.6c.67.13,1,.67,1,1.6a3.74,3.74,0,0,1-1.2,2.9,19.68,19.68,0,0,1-3.8,2.5,22.71,22.71,0,0,0-4.1,2.7,4.19,4.19,0,0,0-1.5,3.3,22.56,22.56,0,0,0,8.6-1.9q4.6-1.9,4.6-5.1,0-14.59-7-23.4a6,6,0,0,1-2.1,3.8,59.16,59.16,0,0,1-5.5,3.8,36,36,0,0,0-4.3,2.9,3.21,3.21,0,0,0-1.3,2.5h3l-1.8,1.6a4.34,4.34,0,0,0,1.1,1.5,10.9,10.9,0,0,0,1.5,1.3,3.37,3.37,0,0,0,2.3-1,20.12,20.12,0,0,0,2.5-2.9,11.25,11.25,0,0,1,2-2.3l-2.2-.2a4.76,4.76,0,0,0-3.8,2q0-4.2,8-4.2Zm-8,16.8a16.58,16.58,0,0,1,3.4-2.8q3-2.6,3.6-3.2a13.64,13.64,0,0,0-4.9,1.3c-2.07.87-3.1,1.77-3.1,2.7C415.3,104.2,415.63,104.87,416.3,105Zm2.7,41.5a5.21,5.21,0,0,0-2.9,3.8,53.73,53.73,0,0,0-.6,9.9l5-3.3c2.53-1.67,4.27-2.5,5.2-2.5l2.8-3.6a19.82,19.82,0,0,0-5.5,1.1,24.35,24.35,0,0,0-5.7,2.5l-.2-1a3.61,3.61,0,0,1,1.6-3,20.65,20.65,0,0,1,4.6-2.4,17,17,0,0,0,2.9-1.4c.87-.53,1.3-1.07,1.3-1.6v-1A46.16,46.16,0,0,0,419,146.5Zm-3.1,20.7a4.79,4.79,0,0,1,.4,1.8,29.57,29.57,0,0,1,4.4-3,60.78,60.78,0,0,0,6.4-4.3q2.4-1.9,2.4-3.3a27.26,27.26,0,0,0-9.3,1.7q-4.69,1.69-4.7,5.3A4.87,4.87,0,0,0,415.9,167.2Zm14.8-42.9a.67.67,0,0,0-.6-.3,42.81,42.81,0,0,0-11.2,7.8q-.19,0-.6-.6a3.12,3.12,0,0,1,1.3-2.6,21.27,21.27,0,0,1,3.9-2.2,19.8,19.8,0,0,0,4.4-2.6,4,4,0,0,0,1.4-3.2l-.2-.8-11,3.4v-.8l11-5.2v-6q-4.61,1.8-11.8,10.2a35.18,35.18,0,0,0-1,6.1c-.13,1.93-.2,4-.2,6.1q0,9.41,1.2,9.4h.8a8.48,8.48,0,0,1,2.2-4.2,58,58,0,0,1,4.6-4,30.76,30.76,0,0,0,4.2-3.8,12.52,12.52,0,0,0-3.9.9,12.4,12.4,0,0,1-3.7.9,11.93,11.93,0,0,1,4.8-3,14.68,14.68,0,0,0,3.5-1.9,3.81,3.81,0,0,0,1.1-3.1A1,1,0,0,0,430.7,124.3Zm-9.8-10a56.06,56.06,0,0,1,6.6-4.9v-1.2a36.36,36.36,0,0,0-6.2,1.3q-5,1.31-5,2.5v7.8A24.89,24.89,0,0,1,420.9,114.3Zm-.4,29.7a30.75,30.75,0,0,0,5.7-1.4c1.93-.67,2.9-1.4,2.9-2.2v-6a24.91,24.91,0,0,0-6.4,5.2q-2.59,3-3,3.4C420.23,143.53,420.5,143.87,420.5,144Zm3.4,12a11.38,11.38,0,0,0-4.2,3.4l3.3-.8a15.16,15.16,0,0,0,4.2-1.6,3,3,0,0,0,1.7-2.6A11.22,11.22,0,0,0,423.9,156Zm7.2,11.6a18.86,18.86,0,0,0-.3-3c-.2-1.2-.43-1.8-.7-1.8h-1l-6.8,4.4a15.83,15.83,0,0,1,7.8,2.6,1.23,1.23,0,0,0,1-1.4ZM429.7,147c-1.2,0-2.2.73-3,2.2C428.7,148.8,429.7,148.07,429.7,147Z"/><path class="cls-1" d="M446.7,164.9a2.19,2.19,0,0,1-.8-1.7q0-3.19,4.6-10.8,2.6-4.4,2.6-5.6,2-8.6,9.2-28.8c.53-1.47,1.07-3,1.6-4.7s1.13-3.43,1.8-5.3q.6-2,1.4-6a65.46,65.46,0,0,1,1.8-6.8,31.24,31.24,0,0,1,1.6-4q3.79-9,15-43.2c.27-.53.8-1.9,1.6-4.1a22.81,22.81,0,0,0,1.4-6.3,18.88,18.88,0,0,0,4.7.6c2.47.13,4.17.2,5.1.2q7.6.2,11.8.6t4.8,1.8q0,4,2.6,11.6c1.73,5.07,2.6,7.73,2.6,8Q522.7,75,526,83.6a166,166,0,0,0,9.3,19.6,332.68,332.68,0,0,0,15,38.6,42.5,42.5,0,0,0,3.2,8.6,75.35,75.35,0,0,1,4.6,11.6c-.67,1.07-2.53,1.73-5.6,2s-7.87.4-14.4.4a30.36,30.36,0,0,1-6-.5,4.12,4.12,0,0,1-3.2-2.3q-1.8-3.6-5.4-9.6-4.8-8.81-6.4-12.4-6.4-.19-14.6-1-5.81-.6-8.4-.6a28.27,28.27,0,0,0-8.7,1,7.78,7.78,0,0,0-4.1,2.8,23.19,23.19,0,0,0-2.4,5.6,52.49,52.49,0,0,1-2.2,6.4,80.38,80.38,0,0,1-5.2,9.6q-2.81,4.4-4.2,4.4-7.4-2.2-18.8-2.2A2.68,2.68,0,0,1,446.7,164.9Zm60.8-43.6q3-2.1,3-2.7c0-.13-.27-.33-.8-.6v-2.2a5.64,5.64,0,0,0-3.5,1.6,20.14,20.14,0,0,1-2.3,1.8,18,18,0,0,0-2.1,1.6,5,5,0,0,1-2.9,1.4l6.2-6.4q-.6,0-4.2,2.4c-.53.4-1.53,1-3,1.9a7.53,7.53,0,0,1-3.4,1.3c-.67.67-2,1.83-3.9,3.5a14.22,14.22,0,0,1-4.3,2.9,5,5,0,0,1-.8-.5,5,5,0,0,0-.8-.5q0-.6,3.8-4.2t4.8-3.6a1.2,1.2,0,0,1,.8.8c.13-.13.73-1,1.8-2.5a16.38,16.38,0,0,1,3.8-3.9,16.09,16.09,0,0,0-3.4-.2q-3,0-6.8,3.2a24.33,24.33,0,0,0-5,5.2c-.4-.53-.67-.8-.8-.8-.4,0-.8.47-1.2,1.4a3.7,3.7,0,0,1-2,2,9.6,9.6,0,0,1-.7-2,8.36,8.36,0,0,1-.3-1.6c0-.53.5-1.3,1.5-2.3l1.9-1.9a14.1,14.1,0,0,0,3.6-4l-.2-.6,4.8-2.2h18.8l-4.8-12q.19-.6-1.8-5.6c-1.33-3.33-2.27-5.13-2.8-5.4-.13.27-.6,1.17-1.4,2.7s-1.6,2.3-2.4,2.3a21,21,0,0,1-1.7,7.8,32.92,32.92,0,0,1-3.9,7.2q-2.21,3-3.6,3c-.27-.13-.67-.37-1.2-.7s-.8-.63-.8-.9c0-.93.93-3.27,2.8-7q2.81-4.8,2.8-6.4l-4,1.6-.2-.6c0-.67.47-1.23,1.4-1.7a9,9,0,0,1,2.8-.9,20.18,20.18,0,0,0,2.5-3.2l2.1-3.2a23.44,23.44,0,0,0,2.4-4.4c1.33-2.67,2.27-4.13,2.8-4.4a8,8,0,0,0,.9.7,4.25,4.25,0,0,1,1.1,1.1,15.17,15.17,0,0,1,1,2.8c.53,1.73.93,2.6,1.2,2.6h1.4a3.38,3.38,0,0,1-.2,1,4.54,4.54,0,0,0-.2,1.4.88.88,0,0,0,1,1l.6-.2q1.4-2.4,6.2-5.4a33.43,33.43,0,0,0,3-2.3,2.56,2.56,0,0,0,1-1.9l-.8-1.6c-.13,1.33-1.47,2.73-4,4.2s-4.53,2.2-6,2.2c-.93,0-1.4-.33-1.4-1s.67-2,2-4a27.42,27.42,0,0,0,2.2-3.6,47.59,47.59,0,0,0,7.2-6.2.82.82,0,0,1-.2-.6,3.38,3.38,0,0,1,.2-1,3.87,3.87,0,0,0,.2-1.2,6.37,6.37,0,0,0-3.4,1.4,6.27,6.27,0,0,1-3.2,1.4,14.66,14.66,0,0,1,2.5-2.3,14.66,14.66,0,0,0,2.5-2.3,4.05,4.05,0,0,0,.8-2.6q0-1-2.2-7.9t-3.6-10.3a.82.82,0,0,1-.6.2,19.82,19.82,0,0,1-3.1-.6,18.41,18.41,0,0,0-3.3-.6c-2.13,0-3.2.07-3.2.2l-3.8,4a21.09,21.09,0,0,1-4.6,4.4,57.77,57.77,0,0,0-5.8,5.8q1,0,8.8-5.6l4.6-3q1.8-1.2,3.9-2.5a22.91,22.91,0,0,1,3.1-1.7h1.6a7,7,0,0,1-3,2.5,10.9,10.9,0,0,0-3.2,2.3l6.2-3.2a1.61,1.61,0,0,1,.2,1,1.24,1.24,0,0,1-.8,1.3,6.47,6.47,0,0,0-1.6.9q.19-.2-8,7.4-5.81,5.59-8.6,7.9a13.35,13.35,0,0,1-5.6,2.9l.8-1.6-1.4.8a1.25,1.25,0,0,1-.7-.2c-.2-.13-.3-.27-.3-.4a5,5,0,0,0-.6,2.2,6,6,0,0,0-1.6,3.1,36.19,36.19,0,0,0-.6,5.1,19.18,19.18,0,0,1-1,6.8,23.48,23.48,0,0,1,2-1.6,5.32,5.32,0,0,1,3.2-1.2c.53,0,1.3-.63,2.3-1.9a39.41,39.41,0,0,1,3.1-3.5,7,7,0,0,1,3.6-2v1.8a1.8,1.8,0,0,0-1.6,1,2.35,2.35,0,0,1-1.6,1.2q0,.19.6.6a4.53,4.53,0,0,0,2.8-.9,14.43,14.43,0,0,1,2-1.3l.2.8a14.49,14.49,0,0,1-3.2,2.2l-4,2.4a14.15,14.15,0,0,1-2.4,1.5,20.94,20.94,0,0,0-2,1.1,21.26,21.26,0,0,0-4.4,2.2,12.31,12.31,0,0,0-3.2,4.6,64.78,64.78,0,0,0-2.7,6.6,42.3,42.3,0,0,0-1.3,4.2,3.9,3.9,0,0,0,2.9-1.4,15.41,15.41,0,0,0,2.2-3c.6-1.07,1-1.8,1.3-2.2h-.8c-.8,0-1.27-.27-1.4-.8.27,0,.83-.57,1.7-1.7s1.63-1.7,2.3-1.7a.82.82,0,0,1,.6.2l2.6-3.2a2.44,2.44,0,0,1,.8.3,1.12,1.12,0,0,1,.6,1.1,5.67,5.67,0,0,1-1.2,1.3,5.67,5.67,0,0,0-1.2,1.3,18.15,18.15,0,0,0-2.6,4.2c-.27.4-.9,1.43-1.9,3.1a28.88,28.88,0,0,1-2.7,3.9,3.22,3.22,0,0,1-2.2,1.4h-1.6l-2.4,4.8q2.21,0,5.8-3.6a31.8,31.8,0,0,1,3.9-3.1,6.71,6.71,0,0,1,3.7-1.1l-3.2,3,5.8-3v.8l1.6-1.6c.67.67,1,1.07,1,1.2q0,.8-3.3,3.5t-7.1,5.5c-2.27,1.73-4.37,3.37-6.3,4.9s-2.9,2.5-2.9,2.9h.8q0,1.2-2.1,2.7a12.25,12.25,0,0,0-2.5,2.1,18.75,18.75,0,0,0-2.6,6.3,30.69,30.69,0,0,0-1.2,7.7l5.4-3.8a11.51,11.51,0,0,0,4,.6v1.8a18.65,18.65,0,0,0-8.8,2.1,6.89,6.89,0,0,0-4,6.5,18.2,18.2,0,0,0,4.4-3.6,33.92,33.92,0,0,1,3.3-2.9,5.27,5.27,0,0,1,3.1-1.3c1.47,0,2.2.53,2.2,1.6l-.2.8-.8-.8a13.61,13.61,0,0,0-2.3.9c-1,.47-1.5.9-1.5,1.3a1.82,1.82,0,0,0,.8.2,3.05,3.05,0,0,0,2.2-1v1a40.79,40.79,0,0,0-8.2,4.3c-2.93,1.93-4.4,3.77-4.4,5.5a5.48,5.48,0,0,0,.7,1c.33.4.57.67.7.8a1.57,1.57,0,0,0,1.2-1.6h-1.2a10.9,10.9,0,0,0,1.5-1.3c.6-.6,1-.9,1.3-.9.67,0,1.13.73,1.4,2.2v1a24.51,24.51,0,0,1-3.3,2.3,19.57,19.57,0,0,0-4.5,3.8,6.39,6.39,0,0,0-1.8,4.1c0,.93,1.13,1.6,3.4,2a42.65,42.65,0,0,0,7.4.6l5-.2a178.79,178.79,0,0,1,9-18.2l-2.8,1.6-.6-.2a2.65,2.65,0,0,0-.9,1c-.33.53-.63,1.07-.9,1.6a7.63,7.63,0,0,1,1.6-4.3c1.07-1.53,2.27-2.3,3.6-2.3l1.2.4a15.64,15.64,0,0,1,4-4.8,4.45,4.45,0,0,1-1.6-.8,1.62,1.62,0,0,1-.8-1.2q0-.6,4.6-3.2c.53-.27,1.6-.9,3.2-1.9s2.47-1.77,2.6-2.3c.4.53,1.53.8,3.4.8q-7.61,4-7.6,4.4c0,1.2.33,1.8,1,1.8h7.2a1.9,1.9,0,0,0-.8-1.6l1.4-.2a12.25,12.25,0,0,1,2.7.4,12.25,12.25,0,0,0,2.7.4c.53,0,1.1-.67,1.7-2s1.17-2.47,1.7-3.4a2.45,2.45,0,0,1,2.2-1.4,3.69,3.69,0,0,1-1.4,2.2l.8.2a3.58,3.58,0,0,0,2.3-.9,10.07,10.07,0,0,1,1.5-1.1c.13-.13.67-.53,1.6-1.2a5.34,5.34,0,0,1,3.2-1l.6.2q-1,.4-5.7,4.5c-3.13,2.73-4.83,4.37-5.1,4.9l3.2.2a6.25,6.25,0,0,0,4.1-1.4,24.79,24.79,0,0,0,3.7-4,14.67,14.67,0,0,1,5-5,9.16,9.16,0,0,1-1.1,3.5,18.42,18.42,0,0,1-1.9,3.3q1.61-.8,6.4-5.6,3.6-3.6,4-3.6a7.84,7.84,0,0,1,.9.1,22.58,22.58,0,0,0,2.7.1,28.78,28.78,0,0,0,3.8-.2,18.19,18.19,0,0,1-3.1,2.3q-3.11,2.1-3.9,2.7-.6,0-1.8-1.8l.2.8q0,2-5.7,5.1c-3.8,2.07-5.9,3.23-6.3,3.5a6.74,6.74,0,0,1,1.6.2,7.56,7.56,0,0,0,1.8.2,3,3,0,0,0,3-2c.13.53.67.8,1.6.8a5.75,5.75,0,0,0,2.8-1.2,5.85,5.85,0,0,1,2.6-1.2,13.41,13.41,0,0,1-2.5,2.9c-1.53,1.53-2.3,2.5-2.3,2.9,0,.8.6,1.47,1.8,2a3.87,3.87,0,0,0,1.2-.2,8,8,0,0,0,1-.4c0,2.53-.47,4.07-1.4,4.6a7,7,0,0,0,.6,1.3,5.22,5.22,0,0,0,.8,1.1,9.33,9.33,0,0,0,1.5-.7q.9-.5.9-.9l.8.8-.8.8q.79.19,1.2,4.2a60.7,60.7,0,0,1,10-5.8,1.2,1.2,0,0,1,.8.8q0,1.6-4.7,4t-5.7,2.8a4.63,4.63,0,0,0,.8,1.8,6.37,6.37,0,0,0,1.8-.3,6.93,6.93,0,0,1,2-.3l-3,2.4a1,1,0,0,0-.5.2c-.2.13-.3.27-.3.4l1,1.4a48.41,48.41,0,0,1,4.6-2.4,11.25,11.25,0,0,1,3.4-1.2,12,12,0,0,1,3.2.7,12.38,12.38,0,0,0,3.6.7q-.4.8-14.4,2.8c.53.8,1.07,1.2,1.6,1.2a34,34,0,0,1,5.8-.8,16.44,16.44,0,0,1,3.6.7q2.6.71,10.4.9l1-.8c-1.47-.8-2.33-2.73-2.6-5.8a14.32,14.32,0,0,0-1.1-4.2,2.56,2.56,0,0,0-2.5-1.4c-.8,0-1.23.43-1.3,1.3a7.9,7.9,0,0,1-.4,2.1c-.2.53-.7.8-1.5.8-4.93,0-7.47-.07-7.6-.2q1.8-1,4.1-2.2c1.53-.8,2.6-1.4,3.2-1.8s.9-.73.9-1c0-.53.43-1.07,1.3-1.6s1.3-1.73,1.3-3.6a15.14,15.14,0,0,1-4.8,2.4c.4-.67.87-1.53,1.4-2.6a8.45,8.45,0,0,0,.8-3.8q0-2.21-4.6-10.2a49.18,49.18,0,0,1-3.2-6l-2-5.4q-4.4-11-4.4-13.6h-.8l-4.4,4.8a4.45,4.45,0,0,0-2.8,2.2h1.6v1.2a214.51,214.51,0,0,1-18.8,13.4l-7.8,2.6Q504.5,123.4,507.5,121.3Zm-49,35.4a14.83,14.83,0,0,1,4-2.9,15,15,0,0,1-1.9,4.7c-1.13,2.07-2.17,3.1-3.1,3.1a1.06,1.06,0,0,1-1.2-1.2C456.3,159.33,457,158.1,458.5,156.7Zm11.6-10.9a7,7,0,0,1-3.6,5.2,28.08,28.08,0,0,0-3,1.6c-.13,0-.33-.13-.6-.4l-.6-.6q0-1.8,3.4-4.6a16,16,0,0,1,5.8-3.4Zm-2.9-2.9a14.24,14.24,0,0,0-1.9,1.5l-1.4-.2a5.75,5.75,0,0,1,2.2-1.9,8.87,8.87,0,0,1,2.8-1.1A5.1,5.1,0,0,1,467.2,142.9Zm-.4-19.4q2.51-2.7,9.9-10.1l.8.4q.6,0,1.2-1.2c.4-.8.87-1.2,1.4-1.2a3.35,3.35,0,0,1-.8,2.3,20,20,0,0,1-2.6,2.3,20.94,20.94,0,0,1-1.7,1.4,3.63,3.63,0,0,0-1.5,2.4,25.43,25.43,0,0,1-4.6,3.8,23.8,23.8,0,0,0,4.9-2.3,11.23,11.23,0,0,0,3.9-3.3,3.94,3.94,0,0,1-2,3.2c-1.33.93-3.2,2.07-5.6,3.4-.27.13-1.07.6-2.4,1.4s-2,1.47-2,2a1.43,1.43,0,0,1-1.1-.6,1.75,1.75,0,0,1-.5-1Zm4.9-14.2q-4.4,2.9-4.4,4.1v.8a32.21,32.21,0,0,0,5.1-2.9q3.9-2.51,5.3-3.3l2.4-3.2A47.65,47.65,0,0,0,471.7,109.3Zm3.8,18.6a4.92,4.92,0,0,0,3-1.7l.4.8q0,1.4-3,3a15.57,15.57,0,0,1-4.4,1.8c-.27-.13-.57-.3-.9-.5s-.63-.37-.9-.5a2.42,2.42,0,0,0-1.1.4,2.62,2.62,0,0,1-1.3.4,14.21,14.21,0,0,1,6.2-4.8l-.6,1.6C473.43,128.27,474.3,128.1,475.5,127.9Zm3,5.3c0,.53-1.07,1.67-3.2,3.4a54.7,54.7,0,0,1-4.8,3.6,10.56,10.56,0,0,1,3-3.4c1.87-1.6,2.93-3.07,3.2-4.4A2.12,2.12,0,0,0,478.5,133.2Zm11.6-41.8q-8.4,6.41-10.4,6.4,0-1,4.3-4c2.87-2,4.63-3,5.3-3C489.43,90.8,489.7,91,490.1,91.4Zm-1.2-23.7q3.6-2.51,9.4-6.1,7.8-4.6,7.8-5.8V55h-1.8q0-1.2,1.8-2.4l.6,1a23.08,23.08,0,0,1,2.6-1.1c.93-.33,1.67-.57,2.2-.7v.8c-.13.67-1.2,1.83-3.2,3.5s-4.13,3.3-6.4,4.9q-1,.6-5.2,3.6l-3.4,3Q484.9,76,482.1,76a4.55,4.55,0,0,1,.4-1.6,4.55,4.55,0,0,0,.4-1.6A36.66,36.66,0,0,1,488.9,67.7Zm7.1-16a29.74,29.74,0,0,1-2.7,1.9,35.46,35.46,0,0,0-6.4,4.2c-2.13,1.73-3.2,3.47-3.2,5.2l.2.6c.27-.13,1.23-.8,2.9-2s3-1.8,3.9-1.8c.53,0,1.1-.6,1.7-1.8s1.23-1.8,1.9-1.8a8.09,8.09,0,0,1,1.4.4l5.6-5.6-.8-1.6A16.52,16.52,0,0,0,496,51.7Zm5.2,24.4q-3.1,2.7-4.5,4.1c-.53.4-1.77,1.3-3.7,2.7a15.91,15.91,0,0,1-5.3,2.7q0-.8,3.4-4.1a53.83,53.83,0,0,1,7.6-6.1,18.1,18.1,0,0,1,7.2-3.2C504.83,73,503.27,74.3,501.2,76.1ZM489.9,45.6c-.13.4-.4,1.07-.8,2a7.06,7.06,0,0,0-.6,2.8,55.65,55.65,0,0,0,8.2-7.2l.6.6a1.63,1.63,0,0,0,1-.6,16,16,0,0,1-3.2-1.2,8.45,8.45,0,0,0-3.8-.8A8.92,8.92,0,0,1,489.9,45.6Zm22.5,17a3.12,3.12,0,0,1,.5.4q-2.59,1.39-8.5,4.5T495.3,72l5.6-6.2,4-2.6a1.24,1.24,0,0,0,1.4,1.4,7.21,7.21,0,0,0,3-1.1,9.16,9.16,0,0,1,2.4-1.1A1.25,1.25,0,0,1,512.4,62.6ZM508.2,94a6.81,6.81,0,0,0,2.5,2.8,64.31,64.31,0,0,1,5.6-5q1.61-1.6,4-3.7a15.35,15.35,0,0,0,2.4-2.3c0-.27-.2-.4-.6-.4a8.21,8.21,0,0,0-1.8.3,11.72,11.72,0,0,0-2.4.9c0-1.2.27-1.93.8-2.2a8.24,8.24,0,0,1,3.2-.4,17.12,17.12,0,0,0-.8-5.4,19.12,19.12,0,0,1-4.8,4,19.12,19.12,0,0,0-4.8,4,9.88,9.88,0,0,0,2.5-.4,9.57,9.57,0,0,1,2.3-.4v1.6a3.8,3.8,0,0,1-2.4.7q-1.8.11-3,.3t-1.2,1.2a2,2,0,0,0,.5.8,1.75,1.75,0,0,1,.5,1c0,.93-.13,1.4-.4,1.4s-.73-.33-1.4-1l-1.6-1.6A8.4,8.4,0,0,0,508.2,94Zm.1-33.6a1.59,1.59,0,0,1,1.5-1.8c1-.13,1.8-.27,2.4-.4s.9-.67.9-1.6a4,4,0,0,1,.5.7,1.77,1.77,0,0,1,.3.9,3.2,3.2,0,0,1-.9,1.7,8,8,0,0,1-1.5,1.5C511.37,60.73,510.3,60.4,508.3,60.4Zm7.1,12a45.19,45.19,0,0,0-3.9,4.2,6,6,0,0,0-1.6,3.6,20.83,20.83,0,0,0,3.2-2,32.25,32.25,0,0,1,6.8-3.4c-.27-.13-.53-.8-.8-2a16.35,16.35,0,0,1-.4-3.6C518,69.87,516.93,70.93,515.4,72.4Zm-2.3,31a2.73,2.73,0,0,1,1.2,2l-.4,1.6q2.6-.41,8.9-3.6t6.3-5c0-1.07-.4-1.6-1.2-1.6a3.91,3.91,0,0,0-2.6,1.4l-1.6,1.6c-2.4,2.67-4.6,4.33-6.6,5l-.4-.6q0-.8,4.8-5t6-4.2c0-.8-.53-1.23-1.6-1.3s-1.6-.17-1.6-.3.2-.4.6-.8a7,7,0,0,0,1.2-1.8,4.22,4.22,0,0,0-.9-2.3c-.6-.87-1.1-1.3-1.5-1.3-.93,0-3,1.57-6.1,4.7s-4.9,5.3-5.3,6.5c.8-.27,2-.7,3.6-1.3a11.5,11.5,0,0,1,3.6-.9V97a33.34,33.34,0,0,0-3.7,2,24,24,0,0,1-3.9,2A3,3,0,0,0,513.1,103.4Zm9.4,1.3a24.68,24.68,0,0,0-7.4,4.5,7.77,7.77,0,0,0-2.8,5.8,16.7,16.7,0,0,0,9.4-6.4h1c.4,0,1.4-.93,3-2.8s2.4-3,2.4-3.4Zm1,14.1c.27-.27,1.23-1,2.9-2.3a11.27,11.27,0,0,1,4.9-2.3q-.19.6-4.5,4.3t-5.1,3.7h-1.6v-.8A33.33,33.33,0,0,0,523.5,118.8Zm1.9-3.5c-1.8,1.13-3,1.7-3.5,1.7l-.6-.2c1.73-2.67,3.87-4,6.4-4h.8A9.89,9.89,0,0,1,525.4,115.3Zm6.6,17.5q-2.89,2-4.7,2l-.8-.2c.4-.4.67-.6.8-.6q1.61-1,4.3-2.5t4.5-2.3A17.79,17.79,0,0,1,532,132.8Zm-5.5,9c0-.27,1.93-1.43,5.8-3.5s6.73-3.5,8.6-4.3a3.1,3.1,0,0,1,.6,2.2,22,22,0,0,1-4.2,3.9l-3.6,2.7-.2-.6a10.07,10.07,0,0,1,1.1-1.5,17.35,17.35,0,0,0,1.5-2.1,1.74,1.74,0,0,1,.7.3c.33.2.63.37.9.5v-3.2A26.13,26.13,0,0,1,526.5,141.8Zm3.2-11.8q0-1.4,2.6-3.9c1.73-1.67,2.87-2.5,3.4-2.5a5.27,5.27,0,0,1,1.1.5c.33.2.63.37.9.5q-.6.41-4.7,3.7c-2.73,2.2-4.37,3.3-4.9,3.3a1,1,0,0,1-.5-.2.67.67,0,0,1-.3-.6l1.6-1.6Zm7.1,2.8a31,31,0,0,1-3.2,2.6,20.17,20.17,0,0,0-2.3,1.8l-1.6-.6a3.46,3.46,0,0,1-.3,1.8c-.2.27-.77.4-1.7.4q0-2,4-5a23.62,23.62,0,0,1,6.6-3.8A3.94,3.94,0,0,1,536.8,132.8ZM534.5,118q-2.21,3.41-4,3.4a1.41,1.41,0,0,1-1.6-1.6A9.08,9.08,0,0,1,534.5,118Zm6.8,24.4a7.78,7.78,0,0,1-3,1.2v-.8c0-.13.6-.57,1.8-1.3a9.65,9.65,0,0,1,2.8-1.3C542.9,141,542.37,141.73,541.3,142.4Z"/><path class="cls-1" d="M664.3,133.8a22.26,22.26,0,0,0-.4,4,2.08,2.08,0,0,0,.6,1.3q.6.71.6.9a4.84,4.84,0,0,1-1.6,3.1,14.65,14.65,0,0,0-1.8,2.1,44.59,44.59,0,0,0-2.8,4.6,31.29,31.29,0,0,1-3,5,26.29,26.29,0,0,1-9.7,7,28.73,28.73,0,0,1-11.9,3,46.43,46.43,0,0,0-4.8.4,17.33,17.33,0,0,0-5.8,1.6l-2.2.2a4.33,4.33,0,0,1-2.4-.8,6.06,6.06,0,0,0-3.4-.8,7.34,7.34,0,0,0-2.1.4c-.87.26-1.5.46-1.9.6a9.83,9.83,0,0,1-5,1.4l-8.8-2.2a11.67,11.67,0,0,0-2.4.3,11.1,11.1,0,0,1-2,.3,25.06,25.06,0,0,1-6,.8,27.21,27.21,0,0,1-7.8-.8c-1.6-.54-2.54-.87-2.8-1a12.12,12.12,0,0,0-3.8-1.4c-2.14-.4-3.2-.67-3.2-.8l-.6-.8q-.4-.4-1.7-13.2t-1.7-18.6a1.79,1.79,0,0,1,.7-1.4,2.51,2.51,0,0,1,1.7-.6q1.2,0,7.8,4.4,3.39,2.2,6.8,4.2c2.26,1.33,3.8,2,4.6,2l1.8-1a26.13,26.13,0,0,1,8.6,1.8,33.6,33.6,0,0,0,8.2,1.6l5.4-.2a49.32,49.32,0,0,0,16.4-2.6q7.4-2.59,7.4-10.6a3.67,3.67,0,0,0-1.1-2.7,11.71,11.71,0,0,1-1.5-1.7,11.91,11.91,0,0,1-.4-1.6,16,16,0,0,0-.4-1.6,17.19,17.19,0,0,0-5.9-5.6,38,38,0,0,0-6.4-2.6c-2.2-.67-3.7-1.13-4.5-1.4q.79,0-22.6-6.8a2.35,2.35,0,0,1-1-.3,2.66,2.66,0,0,0-1.2-.3A55,55,0,0,1,571.9,92q-8.21-7.6-8.2-17a16.21,16.21,0,0,1,.4-4.2l1.8-3.6q3.2-10.61,7.9-16.1a27.22,27.22,0,0,1,10.8-7.9,127.83,127.83,0,0,1,17.5-5c.66-.13,2-.47,4-1a45,45,0,0,1,8-1.4q8.19,0,9.6,1.6h20.2a16.3,16.3,0,0,0,4.3,3.5,33.21,33.21,0,0,1,3.9,2.7l-.2,1a23.79,23.79,0,0,0,.8,5.5c.53,2.2.86,3.57,1,4.1l.2,5.2a85.59,85.59,0,0,1,.6,11.2,2.36,2.36,0,0,1-.5,1.7,2.74,2.74,0,0,1-1.9.5l-5.6-3.2q-8-4.39-11.4-5.8-7.61-2.8-22.4-4l-6-.6v-.8c-.4.53-1.87.93-4.4,1.2a18.69,18.69,0,0,0-7.9,2.1c-1.94,1.13-2.9,3.5-2.9,7.1,0,1.07,1.83,3.13,5.5,6.2a107.74,107.74,0,0,0,12.6,9,51.19,51.19,0,0,0,11.9,5.8q22.59,6.8,28,10.4c.53.4,1.3,1,2.3,1.8a15.73,15.73,0,0,0,2.7,1.8q2.6,0,4.7,5.6a83.85,83.85,0,0,1,3.5,12.4,66,66,0,0,1,1.4,8.2l1,.8A12.2,12.2,0,0,0,664.3,133.8Zm-92-72.3a54.3,54.3,0,0,0-2.2,6.5,21,21,0,0,1-1.8,4.8,13.68,13.68,0,0,0,2.8-.4,13.59,13.59,0,0,1,2.8-.4v.8a5.05,5.05,0,0,1,2.9-1.3c1.26-.2,2.3-.33,3.1-.4s1.33-.1,1.6-.1a17.27,17.27,0,0,0,2.2-.2c.93-.13,1.66-.27,2.2-.4l-1.4-.8a29.86,29.86,0,0,1-3.7-.3c-1.54-.2-2.64-.37-3.3-.5V66.4a4.34,4.34,0,0,1-1.2,1.4,2.83,2.83,0,0,1-1.6.4q-2.4,0-2.4-1.2c0-.93.73-1.63,2.2-2.1a31.4,31.4,0,0,1,4.8-1.1q2.6-.4,3.6-.6l-3.2-2.6c0-.13.16-.3.5-.5a1.69,1.69,0,0,1,.7-.3c.53,0,1.66.57,3.4,1.7s2.93,1.7,3.6,1.7a1.92,1.92,0,0,0,1.5-1,3.2,3.2,0,0,0,.7-1.6l-.8-.6a1.77,1.77,0,0,1,.3-.9,3.56,3.56,0,0,1,.5-.7,17.49,17.49,0,0,0-1.5.9,3.81,3.81,0,0,1-1.5.7c-2.54-.53-4.84-1.07-6.9-1.6l-3.9-1v.8c1.46,0,2.2.53,2.2,1.6l-1.4.2a3,3,0,0,1-1.2-.4,3.08,3.08,0,0,0-1.2-.4C573.76,59.2,573,60,572.3,61.5Zm1.8,21.6a28.2,28.2,0,0,0,2.8-1.1,17.51,17.51,0,0,1,7.6-2.2V79c-.14,0-.67-.07-1.6-.2s-2.47-.27-4.6-.4l-9.2-1a11.76,11.76,0,0,0,1.6,6.6A18.27,18.27,0,0,0,574.1,83.1ZM571.3,140a2.73,2.73,0,0,0,2.2,1.6q2.4,0,3.6-5.4h-1.6a6.88,6.88,0,0,1-2.5-1.3,4.66,4.66,0,0,0-2.5-1.1,9.14,9.14,0,0,0-.2,2.2A7.4,7.4,0,0,0,571.3,140Zm11.9,20.5q2.1-3.3,2.7-4.1,1.2-1.2,3.6-3.2a17.15,17.15,0,0,0,3.6-3.9,8.64,8.64,0,0,0,1.2-4.7,2.42,2.42,0,0,0-1.1-1.7,3.23,3.23,0,0,0-1.7-.9l-4,1.6-.8-.2v-1.6a6.78,6.78,0,0,0-3.5,1q-1.71,1-2.1,1.2-3,2.2-5,2.2l-2.2-.2c-1.07.4-1.6.67-1.6.8V159a4.11,4.11,0,0,0,1.1,3.2q1.1,1,5.1,1.6h1.4Q581.1,163.8,583.2,160.5ZM595.5,97c1.73-1.2,3-1.8,3.8-1.8a2.86,2.86,0,0,1,1.2.2l7.2-4v.8a2.12,2.12,0,0,0,.8-1.8,73,73,0,0,0-12.8,1v-2a51.66,51.66,0,0,0,12.6-2,20.64,20.64,0,0,1-3.5-2.6q-2.91-2.4-3.9-2.4-3.21,0-7.7-5c-3-3.33-4.64-5.13-4.9-5.4a8.1,8.1,0,0,1-3.2.8,3.45,3.45,0,0,1-2.2-.8l-1,1.6-3.8-.2q-4.2,0-4.2,1.8l5,.2a2.94,2.94,0,0,0,1,1.7,2.41,2.41,0,0,0,1.6.7c.93,0,1.4-.67,1.4-2l2.2,1.8V76a11.6,11.6,0,0,1,3.7,1.2c1.8.8,2.7,1.47,2.7,2s-1.4,1.47-4.2,2.4a34.11,34.11,0,0,1-6,1.6,1.18,1.18,0,0,1,.4.8c0,.67-.47,1.2-1.4,1.6,0-1.2-.47-1.8-1.4-1.8l-1,.2c.53.13.8.4.8.8l-.2,1.8h-3.2a2.67,2.67,0,0,0,.9,1.9,22.74,22.74,0,0,0,2.2,1.9,10.51,10.51,0,0,1,1.9,1.8c.66-.4,1-.73,1-1,0-.8,1.76-1.7,5.3-2.7s5.7-1.63,6.5-1.9v-1h-8.6c-.14,0-.47-.27-1-.8,0-.53,2.86-.8,8.6-.8,6.66,0,10,.27,10,.8v.8c0,.4-.54.8-1.6,1.2a26,26,0,0,1-3.4,1,18,18,0,0,0-4,1.2v-.8c-.4.13-1.24.47-2.5,1a5.53,5.53,0,0,0-2.3,1.4,2,2,0,0,1,.7.6,1.24,1.24,0,0,1,.3.6,3,3,0,0,0,1-.6,3.23,3.23,0,0,1,2-.6c0,.93-1,1.7-2.9,2.3a17.13,17.13,0,0,1-4.9.9,4.06,4.06,0,0,1-1.4-.3,3.19,3.19,0,0,1-1.2-.7l-.2.8a1.25,1.25,0,0,0,.7,1.3,5.55,5.55,0,0,0,2.1.3,5.15,5.15,0,0,1,2.6.5,4.68,4.68,0,0,1,1.5,1.8,2.76,2.76,0,0,0,2.7,1.3A8.23,8.23,0,0,0,595.5,97Zm-16.2,55.4a3.33,3.33,0,0,0,1.3-.3,9.1,9.1,0,0,1,1.5-.5,2.62,2.62,0,0,1-1.2,2.6,8.36,8.36,0,0,1-3.6.6,2.44,2.44,0,0,1-1.8-.6,10.26,10.26,0,0,0,1.8-1.9c.8-1,1.33-1.7,1.6-2.1q3.79-5.8,5.4-5.8c1.2,0,1.8.47,1.8,1.4-.4,0-1.74.93-4,2.8s-3.4,3.07-3.4,3.6A.82.82,0,0,0,579.3,152.4Zm4.6-104.3A26.3,26.3,0,0,0,579,51c-1.4,1.07-2.1,2.13-2.1,3.2s.8,1.73,2.4,2.4a10.8,10.8,0,0,0,4,1,6.45,6.45,0,0,1,1-.7c.53-.33.8-.63.8-.9s-.84-.63-2.1-1.1-1.9-.83-1.9-1.1q0-2.8,4-2.8c.66,0,1.73.57,3.2,1.7a6.56,6.56,0,0,0,3.4,1.7l.8-.2a2.61,2.61,0,0,1-1.6,1.2,15.66,15.66,0,0,0-1.6.6c.53.13,1.56.43,3.1.9s2.3,1,2.3,1.5a4.27,4.27,0,0,1,1.1-2c.6-.67,1-1.13,1.3-1.4h-1.8a1.77,1.77,0,0,0-.3-.9,1.77,1.77,0,0,1-.3-.9q0-.6,1.8-.6a18.59,18.59,0,0,0-9-6.2C587,46.67,585.76,47.23,583.9,48.1Zm-2.1,17c-1.67.33-2.64,1-2.9,2.1h7.8c.8,0,1.2-.87,1.2-2.6A31.9,31.9,0,0,0,581.8,65.1Zm6.5,98.1a9.93,9.93,0,0,0,5.3-1.2,21.75,21.75,0,0,0,3.7-3l2.6-2.6a1.17,1.17,0,0,0,.8.2,3.61,3.61,0,0,0,2.5-1.4,29,29,0,0,0,2.6-3.3,19.45,19.45,0,0,1,1.9-2.5l-7.8,3.8h-1.8v-1c.4,0,2.06-1,5-2.9s4.66-3,5.2-3.3l-.6-.8h-7.8a18.13,18.13,0,0,0-1.8,1.5,7.13,7.13,0,0,0-1.6,1.9,13,13,0,0,1-2.8,3.2c-1.47,1.33-2.4,2.2-2.8,2.6q-4,3.6-4,4.2t2.4.6a17.84,17.84,0,0,1-2.5,2.4,5.42,5.42,0,0,1-2.3,1.4Zm-2.4-14.6a12.36,12.36,0,0,1,1.1-1.4,6.91,6.91,0,0,1,1.3-1.2,1,1,0,0,1,.7.3.83.83,0,0,1,.3.5,2.68,2.68,0,0,1-1.4,2.3,15.29,15.29,0,0,0-1.6,1.1Zm7.3,6.9a5.48,5.48,0,0,1,3.3-1.1v1.4a7,7,0,0,0-2.6.3,1.93,1.93,0,0,0-.9,1.2q-.3.9-2.1.9A7.36,7.36,0,0,1,593.2,155.5ZM593.4,44a1.24,1.24,0,0,0-.3.6,3.48,3.48,0,0,0,1,2.3,11.2,11.2,0,0,0,2.4,1.5,7.89,7.89,0,0,0,1.4.8,5.21,5.21,0,0,1,2,1.8l1.6-.8a3.25,3.25,0,0,0-1.5-2.4,4.71,4.71,0,0,0-2.9-1.2V44.8a3.08,3.08,0,0,1-1.7-.6,3,3,0,0,0-1.3-.6A.85.85,0,0,0,593.4,44Zm21.2,113.5q2.7-2.3,3.7-3.3c.66-.53,1.5-1.27,2.5-2.2s1.5-1.53,1.5-1.8l-1.6.8a.67.67,0,0,1-.6-.3.93.93,0,0,1-.2-.5q-1.6,3.2-4.6,3.2l-1.2-.2q.79-2.4,5.2-4.4a23.34,23.34,0,0,0,4-2.6,4.24,4.24,0,0,0,1.4-3.4,12.3,12.3,0,0,1-5.2,2,17.08,17.08,0,0,0-7.8,3.8q-1.61,1.6-7.6,6.6a37.1,37.1,0,0,0-8.4,7.8c.66-.27,1.6-.7,2.8-1.3a15.38,15.38,0,0,0,3-1.9v.8h2.2l-2.2,1.6.6.8a3.33,3.33,0,0,1,.9.3,3.72,3.72,0,0,0,1.5.3,9.33,9.33,0,0,0,2.6-.3,12.55,12.55,0,0,0,2.4-1.1Q611.9,159.8,614.6,157.5ZM612.7,52.6c0,1.07-.4,1.6-1.2,1.6a4,4,0,0,1-2.4-.6,6.61,6.61,0,0,1-1.6-1.9,3,3,0,0,0-2.2-1.5c0,1.47-.27,2.4-.8,2.8a5.42,5.42,0,0,1-2.6.8q-3,0-3.8,2.2h20.8l1-2.6a4.43,4.43,0,0,1-2,.4,2.83,2.83,0,0,1-2.5-1,6,6,0,0,1-.9-2.8,8.36,8.36,0,0,0-.3-1.6,8.08,8.08,0,0,0-.9-2.2,4.62,4.62,0,0,0-1.6-1.6,9.35,9.35,0,0,0,.4,3.1,5.61,5.61,0,0,1,.4,1.7h-3.4c0,.53.4,1,1.2,1.3s1.2.7,1.2,1.1l-.4.8,1.4-.8ZM602.4,100a2.83,2.83,0,0,0,1.3-2.2l-5.6,2.4c.13.53.73.8,1.8.8A4.14,4.14,0,0,0,602.4,100Zm-2.5-57a12.33,12.33,0,0,1,2,2.1,9.57,9.57,0,0,0,1.8,1.9,4,4,0,0,0,2.4.6v1a3.84,3.84,0,0,0,2-.6,2,2,0,0,0,.4-1.4,10.28,10.28,0,0,0-.5-2.7,9.71,9.71,0,0,1-.5-2.5l.2-.8A21.44,21.44,0,0,0,599.9,43Zm14.2,111.8a26.18,26.18,0,0,1-4.6,2.9,11.15,11.15,0,0,1-5,1.3,17.53,17.53,0,0,1,3.7-3.8c1.66-1.33,3-2,3.9-2C612.36,153.2,613,153.73,614.1,154.8Zm3.1-49.3a23,23,0,0,0,4.7-3.4c1.33-1.27,2-2.17,2-2.7a1.17,1.17,0,0,0-.2-.8,15.46,15.46,0,0,1-1.5.4,15.46,15.46,0,0,0-1.5.4,17.75,17.75,0,0,0-4.5.6,36.15,36.15,0,0,0-4.3,1.4,27.74,27.74,0,0,1-6.6,2c.13.53.66.8,1.6.8a9.74,9.74,0,0,1,2.2.2c.53.13.8.6.8,1.4h2.6V107A10,10,0,0,0,617.2,105.5Zm-1.1-10.7c-.54.67-.87,1.07-1,1.2a23.56,23.56,0,0,1-4.5,1.6c-2.34.67-3.84,1.53-4.5,2.6a25,25,0,0,0,6.9-1q3.5-1,4.5-1.2a60.35,60.35,0,0,1,7.8-2v-.8a21.84,21.84,0,0,0-3.6-1.5,13.57,13.57,0,0,0-3.6-.9A14,14,0,0,0,616.1,94.8Zm-5.2-3c-1.74.67-2.6,1.33-2.6,2v.8a21,21,0,0,0,3.4-1,33.78,33.78,0,0,0,3.4-1.4V90.8A12.31,12.31,0,0,0,610.9,91.8Zm40,57.4a39.4,39.4,0,0,0,7.3-6.8,12.84,12.84,0,0,0,2.3-8q-2.4,0-6.8,2.4c-2.54,1.2-4.2,1.93-5,2.2a10.4,10.4,0,0,1,4.7-4.8,21.47,21.47,0,0,1,6.9-2.6v-5a19.1,19.1,0,0,0-2.4,1.2c-.67.4-1.14.67-1.4.8l-1.2-.2a26.86,26.86,0,0,0-6.3,4.5,30.38,30.38,0,0,0-5.1,6.1,6.33,6.33,0,0,0,2.1-.5,6.15,6.15,0,0,1,1.9-.5q-.4,1.8-4.3,5a54.82,54.82,0,0,1-8.5,5.7q-4.61,2.51-6.4,2.5c-.14,0-.37-.17-.7-.5a1.55,1.55,0,0,0-1.1-.5,28.63,28.63,0,0,0-5.8,4.3c-2.67,2.33-4,4-4,4.9a11.35,11.35,0,0,0,4-1.3,10.82,10.82,0,0,0,3.6-2.3,90.91,90.91,0,0,1,13.7-7.8q7.7-3.6,8.7-3.6a2.81,2.81,0,0,1,1.7.7,4.55,4.55,0,0,0,1.7.9q-1,1.6-5.4,5.2-6.81,5.2-6.8,7a.93.93,0,0,0,.2.5c.13.2.26.3.4.3a11.71,11.71,0,0,1,3.1-2.8,20.87,20.87,0,0,0,2.7-2A46.67,46.67,0,0,1,650.9,149.2ZM617.3,43.6a15.49,15.49,0,0,0,2.6,8.2,8.4,8.4,0,0,1,.4-2.5,8.18,8.18,0,0,0,.4-2.3,7,7,0,0,0-.6-3.5,3.45,3.45,0,0,0-1.6-1.3,2.25,2.25,0,0,1-1.2-.8ZM633.5,161q0-1.6,7.6-8.8l2.8-2.8a14.14,14.14,0,0,0-4.1.7c-1.54.47-2.3,1.3-2.3,2.5L623.1,159c0,.4-.84,1-2.5,1.7s-2.77,1.23-3.3,1.5a10.69,10.69,0,0,0,5.8,1.4,65.26,65.26,0,0,0,8.1-.4c2.06-.27,3.1-.87,3.1-1.8C633.76,161.4,633.5,161.27,633.5,161Zm-10.3-51.2a10,10,0,0,0,3.1.8v.8a8.82,8.82,0,0,0,3.2-2,12.83,12.83,0,0,0,2.4-2.6c-.14.13-.2.47-.2,1,0,.93.66,1.4,2,1.4q2.59,0,7.4-3.2c.4-.27,1.16-.7,2.3-1.3a20.08,20.08,0,0,1,2.9-1.3,13.36,13.36,0,0,1-2.4-1.8,4.92,4.92,0,0,0-3.2-1.4q-1.2,0-3.8,3.2a20.22,20.22,0,0,0-3.2,4.8l-.2-1.6a5.48,5.48,0,0,1,1-3.1,15.08,15.08,0,0,0,1.4-2.5q-1.6,0-6.8,3c-.4.27-1.67.93-3.8,2a12.65,12.65,0,0,1-5.4,1.6V109A10.11,10.11,0,0,1,623.2,109.8Zm-.7-60.6a3.51,3.51,0,0,1-1,1,2.45,2.45,0,0,0,.9.6,2.26,2.26,0,0,1,.7.4,6.18,6.18,0,0,0,2.4-1.2l3-2c-.27-.8-.7-2-1.3-3.6a8.07,8.07,0,0,0-2.1-3.4,7.53,7.53,0,0,0-3.6-1.4c.13,0,.43.93.9,2.8a23.34,23.34,0,0,1,.7,5.6A2.4,2.4,0,0,1,622.5,49.2ZM627.1,96a5.39,5.39,0,0,1-.7,2.9,18,18,0,0,1-2.3,2.7q-2.4,2.4-2.4,4.2,6.39-3.8,7.2-3.8a2.1,2.1,0,0,0,1.7-.9c.46-.6.9-.9,1.3-.9l-.8,1.6c2-.93,3.06-2,3.2-3.2Q629.89,96,627.1,96Zm1-39c0-1.87-.4-2.8-1.2-2.8L624.7,56A5.15,5.15,0,0,0,628.1,57Zm10.5,79.6q-4.3,2.6-10.7,7a12.47,12.47,0,0,1,1.7.5c1,.33,1.5.77,1.5,1.3a2.2,2.2,0,0,1-.4,1.2,3.72,3.72,0,0,0-.4,2q1.8-2,5.4-5.6c2.4-2.4,3.86-3.6,4.4-3.6a.85.85,0,0,1,.6.2l4.8-5.6Q642.89,134,638.6,136.6ZM631,40.9q-1.71.49-1.5.9a3.79,3.79,0,0,0,.5,1.6,4.17,4.17,0,0,1,.5,1.8h1.4l5.6-3.8a12.14,12.14,0,0,0-3.8-1A10.28,10.28,0,0,0,631,40.9Zm2,73.5a24.27,24.27,0,0,1,2.9,2.8,9.71,9.71,0,0,0,2.4-3.4,15.16,15.16,0,0,1,5-6.2,14.26,14.26,0,0,0-4.6.9,41.13,41.13,0,0,0-5,2.1l-1.8.9a14.82,14.82,0,0,1-2.4.9A7.69,7.69,0,0,1,633,114.4ZM637.1,48c-4.27,2.27-6.54,3.53-6.8,3.8.26.93.66,2.2,1.2,3.8s.93,2.8,1.2,3.6c.53-.53,2.06-1.87,4.6-4,1.86-1.6,3.7-3.3,5.5-5.1s2.7-3,2.7-3.7q0-1.8-1.2-1.8Q643.49,44.6,637.1,48Zm9.4,57.9a12.07,12.07,0,0,0-1.4,1.9c-.4.67-.67,1.13-.8,1.4a18.28,18.28,0,0,1-1.8,3,2.46,2.46,0,0,1-2,1q0,2.6-3,6.2l.8,1.6a32,32,0,0,1,4.4-3.4c2.8-2,5.06-3.53,6.8-4.6a7.33,7.33,0,0,1,2.3-.6,4.29,4.29,0,0,0,2.7-1.6,18.05,18.05,0,0,1-2.6-3.1q-2-2.7-3.4-2.7A2.56,2.56,0,0,0,646.5,105.9Zm-2.6,19.5q8.19-9.2,8.2-10.2v-.6l-3.8,2q-9.6,4.8-9.6,6.8a22.24,22.24,0,0,0,1.4,6.6A50.8,50.8,0,0,1,643.9,125.4Zm4.8-68.6a4.32,4.32,0,0,0-.4-1.7c-.27-.6-.54-.9-.8-.9-.8,0-2.14.77-4,2.3a13.83,13.83,0,0,0-3.4,3.5l3.2.2Q648.7,60.2,648.7,56.8Zm0,9c0-2.8-.27-4.2-.8-4.2h-5.6l-.8,2a8,8,0,0,1,3.8,1.5,12,12,0,0,1,3.4,2.9Zm5.2,50.6c-1.2,1.6-2.07,2.4-2.6,2.4a11,11,0,0,1-1.3,1.9,27.87,27.87,0,0,0-1.7,2.3q-5.4,7.6-5.4,8.2a3.84,3.84,0,0,0,2.3-1.1,3.82,3.82,0,0,1,1.9-1.1l.8.2,8.2-4,3.2-.8a20.63,20.63,0,0,0-3.4-10.6C655.76,113.93,655.1,114.8,653.9,116.4Zm-8.1-67.3a5.11,5.11,0,0,0-1.9,2.7,6.42,6.42,0,0,0,2.9-1.1,2.72,2.72,0,0,0,1.3-2.3l-.2-1.4A14.94,14.94,0,0,1,645.8,49.1Z"/><path class="cls-1" d="M712.9,149.2a59.33,59.33,0,0,0-.6,8.4,15.87,15.87,0,0,0,.5,3.5,15.87,15.87,0,0,1,.5,3.5,5,5,0,0,1-.5,2.8,2.1,2.1,0,0,1-1.7.6c-.13,0-.93.16-2.4.5s-9.27.5-23.4.5c-1.87,0-3-.24-3.5-.7s-.7-1.5-.7-3.1.07-3.4.2-5.4.27-3.53.4-4.6a87.35,87.35,0,0,0,.6-10q0-9.19-1-19.5t-1.2-12.5q-2.4-21.6-2.4-32.4,0-4,.4-14.4.6-9.41.6-19.2-.19-2.4-.5-6.4t-.5-6.4a15.82,15.82,0,0,0,.8-5,10.55,10.55,0,0,0-1.4-5.4q1.39-2.2,6-2.2,6.79,0,11.7.5a17.06,17.06,0,0,1,8.1,2.7,53.73,53.73,0,0,1,1,10.6q0,9.8-.6,19.4-.4,12.8-.4,19.2,0,1-.6,7c-.27,2.4-.4,4-.4,4.8a44.79,44.79,0,0,0,.4,6c.27,2,.47,3.53.6,4.6q3.6-2.8,9.2-10.8a84.86,84.86,0,0,1,11.3-13.2A17.44,17.44,0,0,1,735.5,68a63,63,0,0,1,12,1.4l5,.8a45.13,45.13,0,0,0,7,.6,26.15,26.15,0,0,0,3.8-.2,2.51,2.51,0,0,1,.6,1.2,6,6,0,0,1,.2,1.4c-.27.13-.57.27-.9.4s-.63.27-.9.4a20,20,0,0,0-4.6,3.9,84.56,84.56,0,0,0-5.2,6.9,57,57,0,0,1-5.6,7.2,133,133,0,0,0-15.3,16q-7.9,9.6-7.9,12c0,1.2.2,1.93.6,2.2l10.4,9.6,6,9.4,13.8,15.6q1.2.6,5,4.7t3.8,5.5a6.31,6.31,0,0,1-.8,1.1c-.4.46-.73.7-1,.7l-4.8-.2a154.6,154.6,0,0,0-21.2,2,6.14,6.14,0,0,1-3.1-.8,14.41,14.41,0,0,1-2.1-2.8,75,75,0,0,0-6-8.6c-.53-.8-1.2-1.87-2-3.2s-1.4-2.4-1.8-3.2q-2-4-3.6-6.7a13,13,0,0,0-3.6-4.1C713.3,143.07,713.17,145.73,712.9,149.2ZM682.5,30.6l-.2,2,6.8-5.2-1.6-.8a7.39,7.39,0,0,0-1.9.3c-.73.2-1.3.37-1.7.5v-.8h-2.6A6,6,0,0,1,682.5,30.6Zm1.1,10.2q.1,1.8.3,1.8a4.84,4.84,0,0,0,2.6-1.2,19.21,19.21,0,0,0,3-2.8,33.92,33.92,0,0,1,3.3-2.9,5.27,5.27,0,0,1,3.1-1.3l-1.6-.2a23.11,23.11,0,0,0-6,1c-2.4.67-3.87,1.53-4.4,2.6l-1-.8-.6.8A4.45,4.45,0,0,1,683.6,40.8Zm-.9,11.1a3.82,3.82,0,0,1,.4,1.5l-.2.8q10.8-5,15-10.4a67.76,67.76,0,0,0-8.9,2.9c-4.47,1.67-6.7,3-6.7,4.1A4.35,4.35,0,0,0,682.7,51.9ZM682.4,77a6,6,0,0,0,.5,2.2c.67-.93,2.73-2.47,6.2-4.6a53.55,53.55,0,0,0,5.8-4.1,4.73,4.73,0,0,0,2-3.5l-1.8,1V67a18.66,18.66,0,0,1-4.5,2.1,28,28,0,0,1-4.6,1c-1.53.2-2.57.37-3.1.5l-.6,4.6C682.3,75.47,682.33,76.07,682.4,77Zm.5,12.6q1.61-1.2,4.8-3.2,7.2-4.61,9.2-7.2-9,3-14,3.4l-.6,3.6Zm1.8-25q1,0,6.7-4.3t5.7-5.1h-1.2l1.8-7.2a5.48,5.48,0,0,0-3.3,1.1,36.34,36.34,0,0,0-3.9,3.5q-3.79,4.2-6.6,5v7Zm6.5,22a43,43,0,0,0-4.7,4.4c-1.33,1.47-2.2,2.4-2.6,2.8a32.33,32.33,0,0,1,4.6-1.9l2.8-.9c2.27-.67,3.77-1.43,4.5-2.3s1.1-2.63,1.1-5.3A18,18,0,0,0,691.2,86.6Zm-1.8,7.1c-3.67,1.27-5.5,2.23-5.5,2.9v5.8a99.77,99.77,0,0,0,8.2-5.8q3.79-3,3.8-4.4v-.8C695.23,91.67,693.07,92.43,689.4,93.7ZM685.3,111a17.31,17.31,0,0,1,.8,2.6l9.8-8.6v-2.6a30.55,30.55,0,0,1-4.1,1.5,37.47,37.47,0,0,0-5,1.9c-1.4.67-2.1,1.4-2.1,2.2A8.6,8.6,0,0,0,685.3,111Zm6.4,52.6h16.2q0-3.19.4-9.6a79,79,0,0,0,.6-9.8,27.63,27.63,0,0,0-2.6-10.8,11.9,11.9,0,0,0-5,2.2,61.93,61.93,0,0,0-5.5,4.1c-1.67,1.4-2.5,2.23-2.5,2.5l11.2-5.2a1.9,1.9,0,0,1,1.4,1.5,7.24,7.24,0,0,1,.4,1.9q0,1.6-7.3,6.8t-8.1,6h9.4a2.9,2.9,0,0,1,1.3.6,4.65,4.65,0,0,1,1.3,1.2,1.72,1.72,0,0,1-1.8,1,8.1,8.1,0,0,1-2.3-.5,8.31,8.31,0,0,0-2.5-.5,13.71,13.71,0,0,0-6.5,1.9q-3.49,1.9-3.5,4.5a.71.71,0,0,0,.8.8q1.39,0,5.6-3l2.7-1.6a5.83,5.83,0,0,1,2.5-1c1.07.4,1.6.87,1.6,1.4Q699.5,158.2,691.7,163.6ZM692,40.2a32.45,32.45,0,0,0-5.5,5.4,3.78,3.78,0,0,0,2.6-1.8l8.6-2.6V37l-1.8.8V37Q695.3,37.6,692,40.2Zm-.7,24a16.1,16.1,0,0,1-4.8,2.8l1.2.2q1.39-.2,5.3-.8c2.6-.4,3.9-.73,3.9-1V61C695.3,61.27,693.43,62.33,691.3,64.2Zm-1.4,12.7a15.88,15.88,0,0,0-2.4,2.3.83.83,0,0,0-.5.3l-.5.5a11.78,11.78,0,0,0,5.2-1.4l2.3-.8a9.86,9.86,0,0,1,3.3-.6v-4a21.71,21.71,0,0,0-2.1.9,10.4,10.4,0,0,1-2.7.9A23.65,23.65,0,0,0,689.9,76.9Zm-1.7,38.4a4.43,4.43,0,0,0-.9,2.9,13.81,13.81,0,0,0,.2,2.2,16.25,16.25,0,0,1,.2,2.6,15.67,15.67,0,0,1,5-4.8,31.5,31.5,0,0,0,3.8-3.3,4.42,4.42,0,0,0,1.2-3.1,21,21,0,0,0-6.8,3.6l.8-1.8A6.36,6.36,0,0,0,688.2,115.3Zm3.5-15.7a59,59,0,0,0-4.2,4.6,29.07,29.07,0,0,1,8.4-3.4V97Q694.3,97,691.7,99.6Zm2.8,27.2c1.2-.67,2.43-1.43,3.7-2.3a9.17,9.17,0,0,0,2.9-3.1,25.48,25.48,0,0,0-5,2c-.4.13-1.57.6-3.5,1.4a13.61,13.61,0,0,1-5.1,1.2v6.6Q689.5,129.41,694.5,126.8Zm8.4,14.4v-.8a21.9,21.9,0,0,0-4.2,2,29.24,29.24,0,0,1-3.6,1.7,9.31,9.31,0,0,1-3.4.7l-2.6-.2a9.73,9.73,0,0,1,3.4-4.8q2.81-2.4,7.4-5.6,4-2.59,4-3.2l-.2-1-9.4,3.6c-4.53,1.73-6.8,2.87-6.8,3.4l.6,14.6Zm12-32.8a67.56,67.56,0,0,0-14.3,6.6,45,45,0,0,0-11.5,9.8,116.58,116.58,0,0,1,19-8.4c.93-.27,1.47-.73,1.6-1.4a9,9,0,0,1,.4-1.5c.13-.33.6-.5,1.4-.5v1.6a9.54,9.54,0,0,1,6.2-1.8,12.57,12.57,0,0,0,5.9-1.6c1.53-.93,3-3.27,4.3-7Q723.3,104.2,714.9,108.4ZM692.5,28.6c-1.33.8-2,1.67-2,2.6l.4.6,7.6-1q.19,0,.3-.3a1.57,1.57,0,0,0,.1-.5c0-1.73-1-2.6-3-2.6A7,7,0,0,0,692.5,28.6Zm7.8,96.8a26.39,26.39,0,0,0-9.4,7.2l.8.2q1.2,0,11.8-4.3t12.2-5.5l-3.6-.2A27.74,27.74,0,0,0,700.3,125.4Zm-4.3-17a16.73,16.73,0,0,0-3.7,3.2l.6.4c.8,0,2.17-.57,4.1-1.7s3-1.77,3.3-1.9v-1A8.34,8.34,0,0,0,696,108.4Zm7.9-1a5.15,5.15,0,0,1,3.4,1q5.81-1.2,7.6-2.4l-6.6-.2q-4.39,0-6.2,1.8ZM731.7,94q-3.19,1.2-10.2,3.2-1.2.4-6.2,1.9a56.32,56.32,0,0,0-8.1,3,13.54,13.54,0,0,0-4.3,2.9,64.2,64.2,0,0,0,13.8-1.8l4.2-.8q8.8-1.8,13.1-4.9a62.59,62.59,0,0,0,9.9-9.5,81.62,81.62,0,0,1,9.8-10.6q.6-.41.6-.6c0-.27-.2-.4-.6-.4l-.8.2-21.6,7.8-.6-.2c-.4,0-.8.33-1.2,1,1.07,0,2.8-.13,5.2-.4a41.55,41.55,0,0,1,4.8-.4,4.54,4.54,0,0,0,.2,1.4,3.38,3.38,0,0,1,.2,1c0,.53-.93,1.17-2.8,1.9s-3.2,1.3-4,1.7l1,.5a1.66,1.66,0,0,1,.8.7C734.9,92.4,733.83,93.2,731.7,94Zm-16.9,3.5q5.7-1.69,8.5-2.7l-15.2,3.4v1A42.69,42.69,0,0,0,714.8,97.5Zm-4.1-1.9q6.4-2,14.9-4.9t9.1-3.9q-8.6,3-14.6,3l-2.6-.2-.8-1A48.29,48.29,0,0,0,710.7,95.6Zm0,24.2h5V118Zm1.7,13.7a4,4,0,0,0,2.5,1.1q1.8,0,5.8-2t4-3.8a28,28,0,0,0-6.8,1.2,28,28,0,0,1-6.8,1.2A3.06,3.06,0,0,0,712.4,133.5Zm1.7-5.5a.78.78,0,0,1,.9.7c.07.47.43.7,1.1.7a6.83,6.83,0,0,0,3.2-1.2,7.15,7.15,0,0,1,3.6-1.2c0-.4-.4-.87-1.2-1.4a3.93,3.93,0,0,0-2-.8,10.83,10.83,0,0,0-4.1,1.1,7.53,7.53,0,0,0-3.3,2.3A7.56,7.56,0,0,1,714.1,128Zm7.1,5.5c-2.47,1.27-4,2.43-4.5,3.5q3,0,7.4-.4t7.2-.4l-3.4-4.4-.8-.2A14,14,0,0,0,721.2,133.5Zm-2.7-47.1c0,.13.13.3.4.5s.4.37.4.5a35,35,0,0,0,5.4-2.4c2.13-1.07,4.33-2,6.6-2.9a60.66,60.66,0,0,1,9.4-2.5l-4.8-.2a51.06,51.06,0,0,0-11.3,1.2q-5.29,1.2-7.1,4.2A1.56,1.56,0,0,1,718.5,86.4Zm3.7,51.5c-2.2.47-3.3,1.23-3.3,2.3,0,.4.33.8,1,1.2s1.13.67,1.4.8a8.77,8.77,0,0,0,4.3-1.5q2.5-1.5,2.5-3.5A28.56,28.56,0,0,0,722.2,137.9Zm8.1,6.7a28.26,28.26,0,0,1-7,1.2,18.91,18.91,0,0,0,1.3,3,8.43,8.43,0,0,0,1.9,2.8q1.39,0,6-3.6t4.6-4.6A28,28,0,0,0,730.3,144.6Zm-2.4-2.9-3.6,2.1a3.49,3.49,0,0,0,1.4.2,21.66,21.66,0,0,0,5.5-.9c2.2-.6,3.43-1.1,3.7-1.5a9.69,9.69,0,0,1-.8-1.1,1.84,1.84,0,0,0-1.6-.9A22.33,22.33,0,0,0,727.9,141.7Zm1.4-68.6c-2.13.73-3.2,1.63-3.2,2.7l11.2-2.6c-.13-.8-.8-1.2-2-1.2A18.57,18.57,0,0,0,729.3,73.1Zm5.1,2.1q-6.49,1.2-6.5,2.2v1l7.8-1.2q12-1.61,13-2.2a22.65,22.65,0,0,0-7.2-1.2Q740.9,74,734.4,75.2Zm6.3,77.4a1.66,1.66,0,0,0-.8-.7,2.35,2.35,0,0,0-1-.3q-9.4,0-11,2.6l3.4,3.6Zm1.8-1.8a11.64,11.64,0,0,1-1.8-1.8,3.46,3.46,0,0,1-1-2l.2-.6-8.6,4.4Zm-8,12.2a58.57,58.57,0,0,0,6.2-2c2.93-1.07,4.4-1.93,4.4-2.6v-.8l-3.4.2a4,4,0,0,1,2.4-1.8,26,26,0,0,1,2.8-1,5.32,5.32,0,0,0-3-.8,11.35,11.35,0,0,0-4,1.3c-1.87.87-3,1.63-3.4,2.3h3.4l-.2.8q-6.8,2.81-6.8,3.4C732.9,162.67,733.43,163,734.5,163Zm3.8,2.4a24.94,24.94,0,0,0,4.1-.5,24.79,24.79,0,0,1,3.9-.5,42.19,42.19,0,0,1,5,.4,20.56,20.56,0,0,0,5,.6,15.24,15.24,0,0,0-3.9-4.3,7.85,7.85,0,0,0-4.7-1.7Q739.3,163.4,738.3,165.4Z"/><path class="cls-1" d="M852.1,117.9a1.24,1.24,0,0,0,.6.3c-1.2.53-1.8,1.07-1.8,1.6l.2,1.2q0,2-9.4,3.7t-39.6,3.7a14.62,14.62,0,0,1-3.2.2,12.92,12.92,0,0,1-3.2-.2q1,7,5.4,10a33.43,33.43,0,0,0,10.8,4.6,26.34,26.34,0,0,1,2.9.9c.87.33,1.37.7,1.5,1.1l.8-.6h18.2a13.06,13.06,0,0,0,6.4-2.1q3.6-2.1,3.8-2.9,3.79,0,3.8,6.2l-.2,5,.4,7.2.8.6q-6.4,6.4-12.5,8.4a49.94,49.94,0,0,1-15.3,2,76,76,0,0,1-13.4-1,49.4,49.4,0,0,1-11.6-2.1,20.68,20.68,0,0,1-8.6-4.9,14.6,14.6,0,0,1-6.5-1.9,23.11,23.11,0,0,1-6.4-4.8,8.69,8.69,0,0,1-2.7-5.9l.2-.8a16,16,0,0,1-2.3-4.2,39.72,39.72,0,0,1-1.5-5,44.59,44.59,0,0,0-3-8.2v-1.6a30.83,30.83,0,0,1-.2-4q0-6.41.4-10.3a52.42,52.42,0,0,1,2-9.3,17.64,17.64,0,0,1,1.8-4,20.86,20.86,0,0,0,2.2-4.6,21.53,21.53,0,0,1,4.1-8,48.87,48.87,0,0,1,7.7-7,34.86,34.86,0,0,1,5.9-3.4A110.67,110.67,0,0,1,801.5,73a28.57,28.57,0,0,1,9.8-2.2q5.21,0,15.5,3.7t14.7,7.3a22.88,22.88,0,0,1,7.9,11.7,106.08,106.08,0,0,1,3.3,18.3,10.4,10.4,0,0,1-.5,4.1,3.32,3.32,0,0,0-.5,1.5C851.7,117.53,851.83,117.7,852.1,117.9Zm-3.4.3c-.67-.13-1-.67-1-1.6l.2-.8a14.43,14.43,0,0,1-3.6,1.5,17.65,17.65,0,0,1-3.6.3l-2.4-.2,1.6-.8-.6-.8-5.6,2.4a1.62,1.62,0,0,0-1.6-.8,5,5,0,0,0-3.3,1.1q-1.31,1.09-6.1,2.1l-1-1.6c0,.67-1.07,1.37-3.2,2.1a17,17,0,0,1-5.2,1.1q-1.8,0-1.8-1.2c.13-.27,1.9-.83,5.3-1.7s5.37-1.77,5.9-2.7a6.28,6.28,0,0,0-2.6-.8,6.5,6.5,0,0,0-2,.4,6.23,6.23,0,0,1-1.8.4c-.8,0-1.2-.13-1.2-.4s.33-.5,1-.7a16.41,16.41,0,0,1,2.4-.5,7.07,7.07,0,0,1,3.4-1.8q2.6-.8,5.4-1.4,6-1.2,6.4-2.2a44.4,44.4,0,0,0-12.6,1.6q-1.2-.4-1.2-2.4h-3.6l-.8,1.4,1.6,1-.8,1.6-9.6,4.6h-3A6.81,6.81,0,0,1,806,116a12.38,12.38,0,0,0,2.1-1c2.93-1.33,4.87-2.6,5.8-3.8h-2.4a3.25,3.25,0,0,1,1.3-1c.73-.4,1.1-.73,1.1-1a.85.85,0,0,0-.4-.7c-.27-.2-.4-.37-.4-.5-.93.53-4.47.8-10.6.8h-5.2a3,3,0,0,0-1.9.7,2.69,2.69,0,0,1-1.3.7,5.93,5.93,0,0,1-1.6-.3,7.13,7.13,0,0,0-1.2-.3,38.43,38.43,0,0,1-4.4.6c-2.53.27-3.8.6-3.8,1v1a18.9,18.9,0,0,0,7-1q1.8,0,1.8,1.2a2.59,2.59,0,0,1-1.2,2.1,4,4,0,0,1-2.4.9,3,3,0,0,1-1.2-.4l-9.6,5.6a1.53,1.53,0,0,0-1.2-.9,1.62,1.62,0,0,1-1.2-.7,5.35,5.35,0,0,1,2.5-1.9c1.13-.47,1.9-.77,2.3-.9a9.3,9.3,0,0,0,4-1.8l-3.2-.2a16.82,16.82,0,0,0-3.4.5,17.23,17.23,0,0,1-3.6.5,5.29,5.29,0,0,1-1.6-.2l-1.6,5.6a1.6,1.6,0,0,1,1.1,1.4,10.53,10.53,0,0,0,.3,1.7c.13.47.73.7,1.8.7q3,0,10.4-5c.53-.27,1.63-.9,3.3-1.9a40.76,40.76,0,0,1,4.3-2.3,8.1,8.1,0,0,1,3.2-.8,3.5,3.5,0,0,1,2.6,1c0,.53-.83,1.13-2.5,1.8a33.1,33.1,0,0,0-3.9,1.8c.53.13.8.87.8,2.2q0,1.2-3,2.1a12.52,12.52,0,0,0-3.4,1.3v-.8c-1.2,0-1.8.53-1.8,1.6l.2.8a12.83,12.83,0,0,0,5.6-1.6,8.17,8.17,0,0,1,4.4-1.4,2.76,2.76,0,0,1,1.6-2.5,6.84,6.84,0,0,1,3.4-.9v.8l2.4-.8-.8-.8a4,4,0,0,1,.7-.5,1.77,1.77,0,0,1,.9-.3,1.2,1.2,0,0,1,.8.8,26.17,26.17,0,0,1,5.8-1.2c2.4-.27,4.13-.4,5.2-.4q-2.6,1.6-9.6,3.2-5.81,1.4-7,2.4v1q3.8,0,11.4-.4,6-.6,12.4-.6l3.2.8a23.93,23.93,0,0,1,4.4-1.8,16.19,16.19,0,0,1,3.9-.4,38.38,38.38,0,0,0,4.1-.2,57.62,57.62,0,0,0,5.9-.8c2.2-.4,3.7-.67,4.5-.8Zm-70.5,12.7a30.55,30.55,0,0,0,4.1-1.5l.8-1a25.49,25.49,0,0,0-4,.8,46,46,0,0,1-6.2,1v2.4Q775.3,131.81,778.2,130.9Zm-4.7-24.5a48,48,0,0,1,5-2.3q3.19-1.3,5-1.9,0-2.2-4.6-2.2a6.57,6.57,0,0,0-3.8,1.1,3.36,3.36,0,0,0-1.6,2.9Zm2.5,39.1c1.13,3.4,2.37,5.1,3.7,5.1a14.18,14.18,0,0,0,6-1.5,52.05,52.05,0,0,0,6-3.3q2.81-1.8,4-2.4a16.69,16.69,0,0,0-5.6-.8q-2,0-6,.4a53.31,53.31,0,0,1-5.6.4c-1.07,0-1.6-.33-1.6-1q0-1.4,6.5-4.5t8.3-3.1H778.5l-1-1.6a3.77,3.77,0,0,1-1.7,2.3,3,3,0,0,0-1.5,2.3A27.14,27.14,0,0,0,776,145.5Zm10.3-43.1a50.56,50.56,0,0,0-5,3c-3.2,2.13-5.47,3.27-6.8,3.4h1.8q4.4,0,6.3-.2a25,25,0,0,0,5.3-1.4l1.6.8a35.3,35.3,0,0,0,.8-6.6A8.83,8.83,0,0,0,786.3,102.4ZM780.5,93c-1.73.93-2.73,1.67-3,2.2l1.6.2a5.12,5.12,0,0,0,2.9-1.3c1.13-.87,1.7-1.7,1.7-2.5A11.34,11.34,0,0,0,780.5,93Zm9.7,4.8a2.33,2.33,0,0,1,1.5,1.4l5.6-5.4a40.73,40.73,0,0,0-10.1,1.9c-4.47,1.27-6.83,2.17-7.1,2.7l1.6.2a10.28,10.28,0,0,0,2.7-.5,10.28,10.28,0,0,1,2.7-.5A16.61,16.61,0,0,1,790.2,97.8Zm21.3,60.6a23.15,23.15,0,0,0-3.9,1.7,10.2,10.2,0,0,1-4.7,1.3v-3.6l3.1-3.1a24.43,24.43,0,0,0,3.9-4.9,34.65,34.65,0,0,1-9.4,3.8,25,25,0,0,0-5.6,1.8,1.25,1.25,0,0,0-.2-.7.67.67,0,0,0-.6-.3l-1.4,1a1.9,1.9,0,0,1-1-.4,2.24,2.24,0,0,1-.8-.8q0-2.2,2.5-3.6a28.11,28.11,0,0,0,2.7-1.6,26.4,26.4,0,0,0-7.5,1.6,40.76,40.76,0,0,1-5.5,1.6,1.2,1.2,0,0,1-.8-.8l-.2,1.2q0,2,4.8,4.5a62.65,62.65,0,0,0,10.7,4.3,38,38,0,0,0,7.3,1.8Q808.91,163.2,811.5,158.4ZM782.3,89h1.6l15-6.2.8-1a8,8,0,0,1-2.4.2,3.29,3.29,0,0,1-2.7-.9c-.47-.6-.9-.9-1.3-.9s-1.17.57-2.3,1.7-2,1.7-2.5,1.7a.82.82,0,0,1-.6-.2Zm11,47.2-1.6,1v-1l-4.5,2.2a31.89,31.89,0,0,0-4.9,2.8l7.4-.4,6-.4,1-.8Zm-1.9-6.4a9.26,9.26,0,0,1-.5-2.2l.2-.8a31.86,31.86,0,0,0-3.6,2.3,7.85,7.85,0,0,1-4.4,1.7l1.6,1.6v.8a8.24,8.24,0,0,1,4.4-1h2.8A9.14,9.14,0,0,0,791.4,129.8Zm17.1-45a38.22,38.22,0,0,1-7.6,1.2c-1.2,0-1.87-.33-2-1a1.93,1.93,0,0,1-.3,1.3,1.56,1.56,0,0,1-1.1.3c-.93,0-1.53-.27-1.8-.8q0,3.2-5.6,3.2l1-.6q-2.21,0-4.8,3c3.2,0,4.8.27,4.8.8a7.55,7.55,0,0,1,3.4-.8,1.17,1.17,0,0,1,.8.2c.27.27.4.47.4.6a5.56,5.56,0,0,1-.6.5,1.63,1.63,0,0,1-1,.3l.8.2a9.25,9.25,0,0,0,4.3-1.6c1.8-1.07,2.77-2.13,2.9-3.2q10.39,0,14.2-5A27.78,27.78,0,0,0,808.5,84.8Zm-13.6,60.8a23.58,23.58,0,0,0-4.4,1.3,6.23,6.23,0,0,0-2.6,2.1l.6.2q2.21,0,6.4-2.6v.8a9,9,0,0,0,2.2-.8,60.79,60.79,0,0,1,6.6-2.2,7.16,7.16,0,0,1-2.4-1.6Q799.7,144.41,794.9,145.6Zm10.2-50.5a22.39,22.39,0,0,0-7.2,4.1q-3,2.6-3,5.6h30q0-5.6-3.6-8.4a14.2,14.2,0,0,0-9-2.8A22,22,0,0,0,805.1,95.1Zm4.8,17.7a58.68,58.68,0,0,0-6.4,1.8l-4.6,1.2V115a9.23,9.23,0,0,1,2.3-1.5,31.49,31.49,0,0,1,3.3-1.7l.6,1a2.78,2.78,0,0,1,1.2-1.9,3.45,3.45,0,0,1,2-.7v1.6h1.6Zm-1.1,33.4a4.44,4.44,0,0,0-1.1-.2,11.22,11.22,0,0,0-4.6,1.2,7.33,7.33,0,0,0-3.4,2.6l1.6.8q1.61,0,5.1-1.9a19.51,19.51,0,0,0,3.5-2.1A6.6,6.6,0,0,0,808.8,146.2ZM804.9,92a3.4,3.4,0,0,0,1.8-.6,3.36,3.36,0,0,0-1-.5,3.79,3.79,0,0,0-1.2-.3q-.4,0-.9.6a1.75,1.75,0,0,0-.5,1A17.93,17.93,0,0,0,804.9,92Zm2-16.6a7.21,7.21,0,0,0-2.4,1,2.6,2.6,0,0,1,.6.1,4.06,4.06,0,0,0,1,.1c2.53,0,4.07-.6,4.6-1.8h-1.6A20.46,20.46,0,0,0,806.9,75.4Zm8.8,74a45.38,45.38,0,0,0-4.2,2,15.47,15.47,0,0,1-4.8,6.4h1l9.4-5.6a28.91,28.91,0,0,0,3.3-1.9,21.5,21.5,0,0,1,3.9-2.1,19.65,19.65,0,0,0-3.6-.2A13.68,13.68,0,0,0,815.7,149.4Zm-1.2-69.8q-4,1.8-5.4,1.8v1.4l9.6-1.6a1.63,1.63,0,0,1,.3-1,5.56,5.56,0,0,1,.5-.6c.13,0,.33.13.6.4l6.4-.4L824.9,78l-6.2-1.6Q818.51,77.79,814.5,79.6Zm23.7,66.2c-2.33.53-4,.93-4.9,1.2q-6.4,1.8-7.6,2a8.52,8.52,0,0,1-2.6,3.8,12.32,12.32,0,0,1-4.4,2.6l-1.2-1.6c0,2.27.33,3.4,1,3.4q1.8,0,11.2-5.4l4-2.2q0,1-6.8,6.4t-7.4,5.4c-.53,0-1.63-.57-3.3-1.7a20.81,20.81,0,0,0-3.1-1.9l.6,1.6a3.44,3.44,0,0,1-1,2.7,12.44,12.44,0,0,1-3.6,1.9c.53.67,2.07,1,4.6,1l5-.2.8-1.6c.13.53.4.8.8.8l1.4-.2V165a1.75,1.75,0,0,0,1-.5,1.75,1.75,0,0,1,1-.5,2.13,2.13,0,0,1,1.2.4,2.45,2.45,0,0,0,1.4.4,11,11,0,0,0,6.7-2.5,7.28,7.28,0,0,0,3.3-5.9q-2.4,0-4.2,3v-1l-1.6,1.6a6.33,6.33,0,0,1,.3-2.3,4.15,4.15,0,0,1,1.3-1.5l.8.8a21.4,21.4,0,0,1,3-3.2,13.46,13.46,0,0,1,3.4-2.4l.6,3q0,1-2.1,4.5c-1.4,2.33-2.23,3.77-2.5,4.3l4.6-2.2-.6-1a46.86,46.86,0,0,1,7-7.2c-.27-2.13-1.07-3.2-2.4-3.2-.53,0-1,.4-1.4,1.2a2.38,2.38,0,0,1-1.8,1.4v-2c.67,0,1.43-.53,2.3-1.6a5.89,5.89,0,0,1,2.5-2,4.6,4.6,0,0,0-1.6-1.6A26.93,26.93,0,0,0,838.2,145.8ZM826.5,87.4h-.8L817.1,89a4.54,4.54,0,0,1-1.4.2l-1.2-.2a6.39,6.39,0,0,0-2.2.8,10.88,10.88,0,0,0,4.4.8h1.8C822.37,90.6,825,89.53,826.5,87.4Zm10-4.2q-4.39-3-7.2-3a4.62,4.62,0,0,0-2.9,1q-1.3,1-3.7,3c-1.6,1.6-2.67,2.4-3.2,2.4h.6a9.55,9.55,0,0,0,3.8-1.4q2.6-1.4,3-2.4v2h1.2l5.6-1.4c1.07,0,1.6.33,1.6,1a3.62,3.62,0,0,1-.2,1.3,2.4,2.4,0,0,0-.2.7,2.44,2.44,0,0,1-.8-.3,2.66,2.66,0,0,0-1.2-.3c-.27,0-1,.67-2.3,2s-2.1,2.27-2.5,2.8l5.6-1.6a7.16,7.16,0,0,1-2.4,1.6,8.53,8.53,0,0,0,4.8-1.2,5.85,5.85,0,0,1,2.6-1.2,2.1,2.1,0,0,1,1.2.2l-.6.6h2.2Q840.9,86.2,836.5,83.2Zm-11.6,10a3.11,3.11,0,0,0,.7,1.6,12.53,12.53,0,0,1,.9,1.4l9.6-4.8h-1.6A72.54,72.54,0,0,0,824.9,93.2Zm2.4,21.6q-2.4,1-2.4,1.8l9.8-2.4-4.8-.4A21.52,21.52,0,0,0,827.3,114.8Zm1.6,44.6a3.48,3.48,0,0,1-.9,2.4,4.8,4.8,0,0,1-2.3,1.4A11.91,11.91,0,0,1,828.9,159.4ZM830,97.9a3.62,3.62,0,0,0-1.9,1.3q0,.4.6.9a5.48,5.48,0,0,0,1,.7,8.33,8.33,0,0,0,2.8-1.4,19.2,19.2,0,0,1,2.8-1.6l-2.4-.2A11.35,11.35,0,0,0,830,97.9Zm5.7-3.9a13.89,13.89,0,0,1-4.4,1.4,1.17,1.17,0,0,1-.8-.2v1.4a10.91,10.91,0,0,0,3.6-.7,10.53,10.53,0,0,1,3.4-.7.67.67,0,0,1,.6.3,1.25,1.25,0,0,1,.2.7h5.6c-1.07.13-3.6,1.17-7.6,3.1s-6,3.23-6,3.9h5.8l-.8-.8h.8a10,10,0,0,1,1.7.3,28,28,0,0,0,2.9.5q6.6-1.4,6.6-3.2a9,9,0,0,0-4.4-8Q840.5,92,835.7,94Zm12.2,13.2a4.44,4.44,0,0,0-.8-1.9,4.44,4.44,0,0,1-.8-2.1c-1.47.67-3.33,1.4-5.6,2.2s-4.07,1.4-5.4,1.8h1.6c2,0,3.27-.27,3.8-.8a2.5,2.5,0,0,1,.9.2,1.24,1.24,0,0,1,.7.6c0-.8.17-1.3.5-1.5a3,3,0,0,1,1.5-.3,2.1,2.1,0,0,1,1.2.2l-.8.8c0,.13.13.33.4.6s.4.47.4.6l-6.2,2a7.84,7.84,0,0,1,.9.1,13.62,13.62,0,0,0,1.9.1Q847.91,109.8,847.9,107.2Zm-1.2,6a3.43,3.43,0,0,1-1.2-1.4,2.72,2.72,0,0,1-1.5,2.1,12,12,0,0,1-3.3,1.1h4a12.19,12.19,0,0,0,3.4-.6A17.36,17.36,0,0,0,846.7,113.2Zm-.4,46.2a3,3,0,0,1-.8-2.2v-1q0,.8-1.2,1.8c-.8.67-1.2,1.13-1.2,1.4,0,.93.27,1.47.8,1.6A9.19,9.19,0,0,0,846.3,159.4Z"/><path class="cls-1" d="M928.8,64.7a2.37,2.37,0,0,1,.3,1.5V85a4.69,4.69,0,0,1-1.2,3.3,4.14,4.14,0,0,1-3.2,1.3,32,32,0,0,1-4.4-.8q-5.4-1-5.8-1a30.85,30.85,0,0,0-3.9.3l-3.9.5a22.21,22.21,0,0,0-1.8,9.2,116.73,116.73,0,0,0,1.2,16.3q1.2,8.5,1.4,9.9a179.12,179.12,0,0,1,2.6,21.6q.4,1.8,3,1.8a18.88,18.88,0,0,0,4.3-.6,18,18,0,0,1,3.9-.6,3.57,3.57,0,0,1,3.8,2.8,27,27,0,0,1,.8,7.2q0,12.6-2.6,12.6h-4.4a109.66,109.66,0,0,1-17-1.1,39.62,39.62,0,0,1-13.4-4.9q-7-4-10.3-13.7a60.23,60.23,0,0,1-3.3-19.5q0-2.8.4-8.4t.4-8.4a80.57,80.57,0,0,0-.6-10c-.27-4.27-.4-7.53-.4-9.8l.2-3.4a2.87,2.87,0,0,1-1.8-1.5c-.53-.87-1-1.3-1.4-1.3q-4.61,3.4-7.2,3.4c-.67,0-1-.6-1-1.8,0-2.27.6-3.93,1.8-5q-2-.6-2-7l.2-9.4a9.29,9.29,0,0,1,3.8-1.5,34.59,34.59,0,0,1,5-.3,13.45,13.45,0,0,1,3.1.4,12.25,12.25,0,0,0,2.7.4l-.2-9q-.4-6-.4-9c0-2.27.5-3.83,1.5-4.7s3.3-1.3,6.9-1.3a19.73,19.73,0,0,1,4.8.6,32.51,32.51,0,0,0,4.4.4,4.51,4.51,0,0,0,1.7-.9,4.12,4.12,0,0,1,2.1-.9q5.8,0,7.2,1.9t1.4,6.7a32.1,32.1,0,0,0,.4,4.2,21.38,21.38,0,0,1,.6,5.2l-.4,6,19.6-.8A1.56,1.56,0,0,1,928.8,64.7ZM868.3,83.1c.13.2.47.3,1,.3q1.8,0,7.8-5.4t6.2-6.6a10.18,10.18,0,0,1-5.8,1.6V70.4h-8.8a9.94,9.94,0,0,0-.5,1.8,12.44,12.44,0,0,0-.3,2.6,12.67,12.67,0,0,0,.5,2.7,13,13,0,0,1,.5,3.1,2.14,2.14,0,0,1-1,2A3.12,3.12,0,0,1,868.3,83.1Zm10.9,3.1c.33.8.57,1.33.7,1.6l9.6-3.4c1.07-1.47,3.53-2.73,7.4-3.8a35.14,35.14,0,0,0,5.6-2.1,8.54,8.54,0,0,0,3.4-2.9h-2.6l-20,5.2-.6-.8c-.4,1.2-1.07,1.8-2,1.8a10.89,10.89,0,0,1-3.2-1l-6,4.2h6.8Q878.71,85,879.2,86.2Zm6.9,3.2a10.68,10.68,0,0,0-4.9,1.5Q879.7,92,879.7,96a19.12,19.12,0,0,0,.2,3,17,17,0,0,1,4.1-4.5,49.23,49.23,0,0,1,5.5-3.3,21.43,21.43,0,0,0,6-3.4h-2.4A20.14,20.14,0,0,1,886.1,89.4Zm1.8,35.4A10.83,10.83,0,0,0,883,127q-1.5,1.4-3.1,6.6a77,77,0,0,0,9.9-6q5.1-3.6,6.7-4.6v-1A34.19,34.19,0,0,1,887.9,124.8Zm-5.9-8a7.63,7.63,0,0,0-1.3,4.6l.2,1.6,13.8-7.8a13.36,13.36,0,0,0-4.8,1c-.4.13-1.07.33-2,.6a10,10,0,0,1-2.8.4l-1.8-.2,1-.8,14.6-5.2v-5.2q-2.6.2-7.2,3.5t-5.8,4.1A13.49,13.49,0,0,0,882,116.8Zm5.9-18.3c-4.53,1.53-6.87,2.23-7,2.1v5.2h.8q1.8,0,9.2-4.5t7.4-5.9l-.2-.6Q894.7,96.2,887.9,98.5Zm-4.5,9.2a8.43,8.43,0,0,0-2.5,2.3c.67.13,1,.8,1,2l-.2,1.6,3.4-3.6a1,1,0,0,0,1,1,1.77,1.77,0,0,0,.9-.3,4.72,4.72,0,0,0,.9-.7q2.4-1.6,5.6-4c2.13-1.6,3.67-2.8,4.6-3.6l-11.2,4.2A6.38,6.38,0,0,0,883.4,107.7Zm-1.7,32.7,12-5.2V134a61.85,61.85,0,0,0-7.1,2q-4.9,1.6-4.9,1.8Zm.8-76.8a4,4,0,0,1,.5.7,1.77,1.77,0,0,1,.3.9,16.76,16.76,0,0,0,5.5-1.2q3.3-1.2,4.3-3l-3.4-.2Q882.5,60.8,882.5,63.6Zm.2-13.8a4.81,4.81,0,0,1,.6,1.2,2.46,2.46,0,0,0,.6,1,1.63,1.63,0,0,0,1.2.4,15.09,15.09,0,0,0,5.6-1.6,12.06,12.06,0,0,1,5.8-1.8l2-1a6.2,6.2,0,0,0,2.2-1.6,22.41,22.41,0,0,1-3.4.2,40.24,40.24,0,0,1-7-.6,27.07,27.07,0,0,1-3.4-.3,31.2,31.2,0,0,0-4.2-.3Zm.4,97.7a1.87,1.87,0,0,0,2,1.5q1,0,7.9-4.8t7.7-5.6a8.93,8.93,0,0,0-1.9.2,7.39,7.39,0,0,1-1.5.2,41.9,41.9,0,0,0-8.3,1.7c-4.2,1.13-6.3,2.17-6.3,3.1A14.42,14.42,0,0,0,883.1,147.5ZM901.7,123l-1-.8a17.33,17.33,0,0,1-4.2,4c-1.73,1.2-3.47,2.33-5.2,3.4a44.1,44.1,0,0,0-7,4.8,14.4,14.4,0,0,0,5.5-1.2c1.93-.8,3.1-1.27,3.5-1.4q5.21-2.6,8.4-2.6ZM885.3,97.4a14.08,14.08,0,0,0,3.4-.7,16,16,0,0,0,3.4-1.3,2.06,2.06,0,0,1,1.2-1.5,18,18,0,0,1,2.2-.9,11.35,11.35,0,0,0,3.3-1.7,3.55,3.55,0,0,0,1.1-2.9q-2.21,0-7.8,3.4a44.87,44.87,0,0,0-7.4,5.2C884.7,97.27,884.9,97.4,885.3,97.4Zm16.3-42.3a22.23,22.23,0,0,0,1.7-5.3,9.88,9.88,0,0,0-4.8,1.2,36.81,36.81,0,0,0-5,3.4,31.7,31.7,0,0,1-4.3,3.1,8.08,8.08,0,0,1-4.1,1.1V60a25.43,25.43,0,0,0,7.4-1.6,21.62,21.62,0,0,1,6.8-1.6A2.65,2.65,0,0,0,901.6,55.1Zm-6.3,12.5q-2.81,1.2-5.8,2.2c-2,.67-3.47,1.2-4.4,1.6v3.8l15.6-9V64.4A25,25,0,0,1,895.3,67.6Zm8.6,3.3a2,2,0,0,1-.7-1.4c-.07-.6-.5-.9-1.3-.9q-2,2.2-8,4.6-6.4,2.6-8.8,5.2l8-1.8.6-1,1,1c1.07-.93,3.13-1.67,6.2-2.2a28.49,28.49,0,0,0,4.5-1.4c.87-.4,1.3-.93,1.3-1.6A5,5,0,0,1,903.9,70.9Zm-16,84.2a3,3,0,0,0,2,.9q2,0,8.3-3.9t6.3-5.9h-1.2l-15.4,6.2c-.67.27-1,.53-1,.8A2.56,2.56,0,0,0,887.9,155.1Zm2.3-87.5a10.56,10.56,0,0,1,2.9-.6l8.4-4.2a2.9,2.9,0,0,1,.6-1.3,2.92,2.92,0,0,0,.6-1.5q-2,0-8.6,3.3t-6.6,4.9A10.6,10.6,0,0,0,890.2,67.6ZM900.9,118c0-1.87-.4-2.8-1.2-2.8l-11.8,6.2a13.86,13.86,0,0,0,5.2-1.4c.4-.13,1.13-.4,2.2-.8a9.06,9.06,0,0,1,3.2-.6c1.33,0,2.07.4,2.2,1.2Zm-1.7,37.6q-7.69,3.19-8.9,4.6h13q6.8-6.8,6.8-7v-.8h-1.6Q906.9,152.4,899.2,155.6Zm-2.1-12.3a27.78,27.78,0,0,0-5.8,5.7,20,20,0,0,0,4.6-2.2q2.6-1.61,8.4-5.8a4.54,4.54,0,0,0-.2-1.4A25.32,25.32,0,0,0,897.1,143.3Zm5.4-9.9-7.2,3.2,1.2.4q6-.8,6-1.8ZM923.9,74a79.67,79.67,0,0,0-13.6,4.4q-7.2,3-8.8,6l1.8-.2a4.63,4.63,0,0,1,2.6.8,65.61,65.61,0,0,0,8.2-.8,75.41,75.41,0,0,1,9-.8Zm-19,87.8h1a14.49,14.49,0,0,0,5.2-1.7,30.48,30.48,0,0,0,6.5-4.1q2.89-2.4,2.9-4.4Zm7.3-91.9c-2.6.73-3.9,1.37-3.9,1.9a3.5,3.5,0,0,0,.8,1.1,15.52,15.52,0,0,1,1.2,1.5l-1.8,3,14.4-7.8c-.53-.53-1.67-.8-3.4-.8A27.08,27.08,0,0,0,912.2,69.9Zm5.9,93.6q1.6-.9,1.6-5.1l-11.2,5.2,1.6.5a6.37,6.37,0,0,0,1.8.3C915,164.4,917,164.1,918.1,163.5Z"/><path class="cls-1" d="M1014,147.8a73.49,73.49,0,0,1,2.7,12q-6.8,9.19-32,9.2a48.82,48.82,0,0,1-17.1-2.8,53.18,53.18,0,0,1-14.7-8.6,37.31,37.31,0,0,1-6.5-7.4q-3.9-5.4-4.1-6.8-.79-2.4-2-8a44,44,0,0,1-1.2-8q0-27.41,3.8-33.4,8.21-13,18.8-18t27.2-5a38.59,38.59,0,0,1,12.9,3.6,64.86,64.86,0,0,1,11.9,7.8V99.2a2.14,2.14,0,0,1-.8.4,3.87,3.87,0,0,1-1.2.2,3.81,3.81,0,0,1-1.9-.4,4.81,4.81,0,0,1-1.5-1.7,4.68,4.68,0,0,0-2.2-1.9,22.63,22.63,0,0,0-6.5-1.5q-3.5-.3-8.7-.3-10,0-16.4,6.1t-6.4,16.1q0,15.4,6,25.6l1,.6,4,1.8c3.73,1.73,5.87,2.6,6.4,2.6l9.6.2a20.57,20.57,0,0,0,3.9-.3,31.43,31.43,0,0,0,4.9-1.7c.4-.27,1.4-1,3-2.3s2.6-1.9,3-1.9Q1011.9,140.8,1014,147.8Zm-60.4-33.2a16.88,16.88,0,0,0-7.5,5,12,12,0,0,0-2.6,7.8,31.67,31.67,0,0,0,2.9-1.7c1.13-.73,2.17-1.37,3.1-1.9a6.36,6.36,0,0,1,3.2-.8,3,3,0,0,1-1.6,2.3,13.7,13.7,0,0,1-3.4,1.7,17.4,17.4,0,0,0,6-1.1c2-.73,3.27-1.17,3.8-1.3a16.62,16.62,0,0,1,6-1.8v-3.2a13.59,13.59,0,0,0-4.8,1.4,8.68,8.68,0,0,1-4.2,1.4v-.8q1.2,0,5.8-4.7t4.8-6.3l-.8-.2c-.4.13-1,.37-1.9.7a27,27,0,0,0-2.5,1.1Q958.51,112.8,953.6,114.6Zm-9.7,2.8a4.44,4.44,0,0,0,2.6-1.5,4.44,4.44,0,0,1,2.6-1.5c.67-.27,2.5-1.13,5.5-2.6a23.48,23.48,0,0,1,6.3-2.4c0-.13-.1-.27-.3-.4a.9.9,0,0,1-.3-.8,1.2,1.2,0,0,1,.8-.8l1.6,1.6,1.8-1.8a14.54,14.54,0,0,0,1.8-2.1,3.7,3.7,0,0,0,.6-2.1c0-.4-.13-.6-.4-.6q-1.2,0-5.7,2.8a40.13,40.13,0,0,0-7.1,5.4l-3.4.8a4,4,0,0,0,2.2-1.5,10.74,10.74,0,0,0,1.4-2.9c.4-1.2.8-1.87,1.2-2q1-.41,4.6-1.6a24.38,24.38,0,0,0,5.7-2.6c1.4-.93,2.1-1.8,2.1-2.6a1.77,1.77,0,0,0-.3-.9,1.74,1.74,0,0,0-.7-.7c1.47,0,4.53-.77,9.2-2.3a116,116,0,0,0,12.8-5q5.81-2.7,5.8-4.1l-.4-.8c-1.07.53-2.57,1.17-4.5,1.9a30.92,30.92,0,0,1-3.9,1.3l-12,4a2.2,2.2,0,0,1-1.4.8,1.8,1.8,0,0,1-1.6-1.2,17.23,17.23,0,0,1,2.4-1.9,16.7,16.7,0,0,0,2.2-1.7c0-.4.53-1.13,1.6-2.2q-3.41,1.8-10,4.9t-12.2,5.5a4.24,4.24,0,0,1-2.1,1.9l-1.9.9a18.82,18.82,0,0,0-3.1,1.5,2.84,2.84,0,0,0-1.3,2.1l-1.6,7.4a14.6,14.6,0,0,1,6.6-2.2q-1,1-3.9,3.4t-3.3,2.4Zm1.6,18.8c.67,0,1.13-.4,1.4-1.2l13.8-7,2.8-2.6q-6.19,0-17.4,4l-.8-.8c-.93.93-1.4,1.6-1.4,2v1.2Q943.9,136.2,945.5,136.2Zm4.8,11.7a3.51,3.51,0,0,0,2.6,1.3,5,5,0,0,0,2.9-1.1c1-.73,1.57-1.17,1.7-1.3s.8-.6,2-1.4a6.75,6.75,0,0,1,3.8-1.2c0,.4-.57,1.2-1.7,2.4s-1.83,1.8-2.1,1.8c.93-.13,1.87-.3,2.8-.5a11,11,0,0,1,2-.3l-.8,1.6-.8-.8a3.57,3.57,0,0,1-2,2.4,6.68,6.68,0,0,0,3-.6,15.73,15.73,0,0,0,2.7-1.8,9.24,9.24,0,0,1,2.7-1.6l-1-1a3.29,3.29,0,0,1,1.4-1q1.2-.6,1.2-1.2-.6-.6-2.4-5.6-.4-.8-2.2-5t-2.6-4.4l-3.6,1.6a3.49,3.49,0,0,1-1.8,1.7,24.15,24.15,0,0,1-2.5,1.1q-1.1.41-1.5.6a29.43,29.43,0,0,0-4.5,2,2.32,2.32,0,0,0-1.3,2q-.19,0-.6-.6a5,5,0,0,1-1,1.8,3.75,3.75,0,0,0-.8,2.4q1.2,0,5-2.4,4.2-2.4,7.5-3.9a15.23,15.23,0,0,1,6.3-1.5,3.22,3.22,0,0,1-1.7,3.1,22.16,22.16,0,0,1-5.1,1.7,20.78,20.78,0,0,0-4.3,1.3,2.37,2.37,0,0,0-1.5,2.3,2.32,2.32,0,0,1,1.6-.8l2.4.2v1.2a7.15,7.15,0,0,1-2.9.8,12.68,12.68,0,0,0-3,.6,1.56,1.56,0,0,0-1.1,1.6A3.8,3.8,0,0,0,950.3,147.9Zm-.5-54a5.56,5.56,0,0,0-2.1,1.5q7.2,0,7.4-2.2l-3-.2A13.61,13.61,0,0,0,949.8,93.9Zm6.9,24.1a20.16,20.16,0,0,1-8.6,4l-.2-.8c0-.93,1-1.7,2.9-2.3a17.08,17.08,0,0,1,4.9-.9Zm9-39.2a45.87,45.87,0,0,0-8.9,4.9q-4.09,2.89-4.7,6.3l7.8-6.4-4.8,7.2a11.38,11.38,0,0,1,4.2-3.4c2-1.07,3.2-1.73,3.6-2q7.2-4,9.6-7l-1-1.6Q970.5,76.8,965.7,78.8Zm-8,76a6.4,6.4,0,0,1,1.1-2.3,6.23,6.23,0,0,0,1.1-2.5,3.68,3.68,0,0,1-2.6,1.7,5,5,0,0,0-2.8,1.5Zm3-14a6,6,0,0,0-1.9.3,4.73,4.73,0,0,1-1.3.3c0-.53.83-1,2.5-1.4a18,18,0,0,1,3.9-.6c.4,0,1.07.47,2,1.4a1.55,1.55,0,0,1-1.1.9,5.58,5.58,0,0,1-1.1.3Q963.7,140.8,960.7,140.8Zm36.6,21.4a8.68,8.68,0,0,1,4-1.6q1.8,0,5.5-2.3c2.47-1.53,3.83-3,4.1-4.3l-2.4-6.4-.6-.2q-1.6.6-7,2.7a76.7,76.7,0,0,0-10.3,4.9q-4.9,2.81-4.9,4.8a5.49,5.49,0,0,1-.3,2.2,1.12,1.12,0,0,1-1.1.6,8.21,8.21,0,0,1-1.8-.3,10.72,10.72,0,0,0-2.6-.3,3.6,3.6,0,0,1,1-2.5,15.42,15.42,0,0,1,2.8-2.3,8.82,8.82,0,0,0,3.4-3.2l-1.6-.8,2.4-2.4a29.36,29.36,0,0,0-5.5.6c-2.07.4-3.1,1.13-3.1,2.2a.88.88,0,0,0,1,1,5.88,5.88,0,0,0,3.6-1.4l.2.8a2.88,2.88,0,0,1-1.5,2.4,5.23,5.23,0,0,1-2.9,1l-1.6-.6v1.4c0,.13-.77.37-2.3.7a19.74,19.74,0,0,1-4.1.5l-1-.2,6.6-6-3.8-.8v-.8l4.6-2.4a2.15,2.15,0,0,0-1.3-1.5,7.42,7.42,0,0,0-2.3-.3q-4.8,0-15.2,7.4a8.36,8.36,0,0,0,1.6-.3,11.61,11.61,0,0,1,2.8-.3c.4,0,.6.07.6.2q0,3.19-4.4,3.2,2.4,3.41,11,5.7a58.29,58.29,0,0,0,14.6,2.3l3.2-.2,2.4-1.6,1,.8q.2-2.4,5.6-6.4,3.19-2.4,3.2-3.4c0-.93.67-1.73,2-2.4a7.16,7.16,0,0,0,2.4-1.6c.67.13,1,.67,1,1.6h1.4a7.25,7.25,0,0,1-3.2,2.4c-.67.13-2.57,1.57-5.7,4.3s-4.77,4.3-4.9,4.7A9.42,9.42,0,0,0,997.3,162.2ZM978.1,76.8a8.14,8.14,0,0,1-2.5,3.6,51,51,0,0,1-5.7,3.8q-2.21,1.2-4.5,2.6a10.93,10.93,0,0,0-3.5,3.2h.8l16.2-8.2a10.28,10.28,0,0,1,4-2.8,7.36,7.36,0,0,0,4.2-2.8l-2.2-.2-3.4.2a6.18,6.18,0,0,1-1.8-.2A1.62,1.62,0,0,0,978.1,76.8ZM971.5,153a3.93,3.93,0,0,0-2,.8,6.94,6.94,0,0,1-2,1,1.17,1.17,0,0,1-.2-.8c0-1.33,1.13-2.13,3.4-2.4A1.44,1.44,0,0,1,971.5,153Zm2.6-76.2a1.06,1.06,0,0,0,1.2,1.2c.67,0,1.33-.6,2-1.8l-1.2-.2C975,76,974.37,76.27,974.1,76.8Zm13.4,3.8a43.09,43.09,0,0,1-4.2,3.7,6.61,6.61,0,0,1-3.6,1.7c-.13,0-.4-.2-.8-.6l-.8,2.2a93,93,0,0,0,9.8-3.2,24,24,0,0,1,3.8-1.4c.4-.13,1.3-.47,2.7-1a22.52,22.52,0,0,0,3.6-1.7,8.41,8.41,0,0,0,2.3-1.9,17.94,17.94,0,0,1-3.6-1.2c-1.6-.67-2.53-1.07-2.8-1.2Q992.1,76,987.5,80.6Zm20.2,3.8a13.43,13.43,0,0,1-4.6,1.4,42.92,42.92,0,0,0-6.1,1.9,3.52,3.52,0,0,0-2.3,3.1l13,1.4h.8A36.14,36.14,0,0,1,1007.7,84.4Zm1.1,77.5q2.3-1.1,2.3-4.7-6.6,4.4-9.2,5.8A16.7,16.7,0,0,0,1008.8,161.9Zm-4.9-80.4a4.44,4.44,0,0,0-.2,1.1,6.23,6.23,0,0,0,2.4-.8c-.13-.13-.37-.33-.7-.6a1.47,1.47,0,0,0-.9-.4C1004.23,80.8,1004,81,1003.9,81.5Z"/><path class="cls-1" d="M1120.9,149.9c.27,2.47.47,4.23.6,5.3a75.34,75.34,0,0,1,1,11.6q0,7.39-3.2,7.4a3.39,3.39,0,0,1-1.7-.8c-.73-.54-1.17-.87-1.3-1h-14.6a5.32,5.32,0,0,1-2.6.8,6.38,6.38,0,0,1-3.5-1.1,3.21,3.21,0,0,1-1.7-2.7,4.32,4.32,0,0,1,.7-1.6c.47-.8.77-1.34.9-1.6a235.92,235.92,0,0,0,2.4-33.8,181.81,181.81,0,0,0-1.2-23.9q-1.2-8.5-5.6-13.3t-13.6-4.8q-11.4,0-18.8,10.4l.2,1.2a21.84,21.84,0,0,1-1.6,6,27.9,27.9,0,0,0-2.4,9.8,55.17,55.17,0,0,0,1.6,11.2c.13.8.4,2.3.8,4.5a33.39,33.39,0,0,1,.6,5.9c.53,4.8.87,8.3,1,10.5s.2,6.3.2,12.3q0,10.2-3.2,10.2l-21.6-1.8.6-10.2.4-7c0-.53-.33-3.47-1-8.8a53.09,53.09,0,0,1,1-9.6,75.87,75.87,0,0,0,.8-9.2q-4.2-30.19-4.2-45.8,0-2.4.4-7.2.4-5.2.4-7.6c0-1.87-.13-4.53-.4-8s-.4-6.07-.4-7.8a27.47,27.47,0,0,1,.4-3.8,28.39,28.39,0,0,0,.4-4.2,77,77,0,0,0-3-14l-1.4-5.8a1.66,1.66,0,0,1,.8-.7,2.35,2.35,0,0,1,1-.3,8.87,8.87,0,0,1,2.5.8,11.63,11.63,0,0,0,4.5.8l3.4-.6h16.4l.8.6q0,1.61,1.2,10a131,131,0,0,1,2.4,21.4c0,1.47-.13,3.53-.4,6.2-.27,2.93-.4,5.07-.4,6.4a44.53,44.53,0,0,0,12.2-2.2c.67-.13,2.33-.53,5-1.2a31.22,31.22,0,0,1,7.6-1,35.82,35.82,0,0,1,12.5,2.5q6.71,2.51,9.9,6.3a64.67,64.67,0,0,1,8.5,12.1,31,31,0,0,1,3.3,9.7,110,110,0,0,1,.8,11.4q0,4.2.2,6.4,1.8,12.6,1.8,14.6a53.09,53.09,0,0,1-1,9.6,75.13,75.13,0,0,0-.8,8.8A62,62,0,0,0,1120.9,149.9ZM1037.1,32.6l6-4.2a2.8,2.8,0,0,0,2-1.1c.67-.73,1.13-1.23,1.4-1.5h-12.2Zm1.2,2.6a2.07,2.07,0,0,0-1.2,2l.8,4.2q4.2-1.6,9-7.8a13.87,13.87,0,0,0-5.6,1.8.71.71,0,0,0-.8-.8A5,5,0,0,0,1038.3,35.2Zm13.9,14.6a25.81,25.81,0,0,0,3.7-1.6,19.52,19.52,0,0,0-.8-4.4c-2.27,1.07-3.43,1.8-3.5,2.2a2.9,2.9,0,0,1-.9,1.4,24.21,24.21,0,0,1-4.8,2.8,51,51,0,0,0-6.1,3.8,4.68,4.68,0,0,0-2.1,3.8,9.66,9.66,0,0,0,1,5q10.8-6,14.8-11l-4.6.2a10.82,10.82,0,0,1-2.4-.2C1048.5,51.13,1050.4,50.47,1052.2,49.8Zm-13.5,45h.8q.4-.4,7.6-5t7.2-6.6a2.63,2.63,0,0,1-.6-.9,2.5,2.5,0,0,1-.2-.9,4.55,4.55,0,0,1,.4-1.6,4.87,4.87,0,0,0,.4-1.8l-.2-1.2q-.6,0-5.2,3.8l-5,3.8c0,1.2-.27,1.8-.8,1.8a1.77,1.77,0,0,1-.9-.3,1.77,1.77,0,0,0-.9-.3V84.4q0-1.8,4.6-4.4a33.85,33.85,0,0,0,5.7-4.3,6.62,6.62,0,0,0,1.9-4.9V68l-5,4c-1.6,1.33-3.2,2.57-4.8,3.7s-2.8,1.7-3.6,1.7a4.74,4.74,0,0,1,1-3.3,10.42,10.42,0,0,1,3-2.1,10.39,10.39,0,0,0,4.2-3.2l.6,1a18.14,18.14,0,0,1,2.7-3.9c1.4-1.67,2.23-2.7,2.5-3.1a14.74,14.74,0,0,0-5.4,1.2q-3,1.2-5.5,2.5l-3.3,1.7q-2.2,1.2-2.2,6.2l.2,3.4Q1037.9,81.6,1038.7,94.8Zm12-54.4a10.72,10.72,0,0,1,1.8-.7,3.35,3.35,0,0,0,1.4-.7,2.71,2.71,0,0,0,.4-1.8,17.71,17.71,0,0,0-.8-5.2,125.07,125.07,0,0,0-15.6,13.6v7.6l8.6-5.8a24.2,24.2,0,0,1,3.2-2.4,13,13,0,0,0,4.4-3.6v-1Zm-5.6,63.5q2.81-2.7,9-7.9,4-3.19,4.6-3.8a11.31,11.31,0,0,0-4.3.7,26.66,26.66,0,0,0-3.9,2.1,13.48,13.48,0,0,1-4.8,2.4c-2.4,0-4,.3-4.9.9s-1.3,2-1.3,4.3v5.2q0,6.8,1.8,10.2a34.61,34.61,0,0,1,3.4-6c.67-.4,1.5-.83,2.5-1.3a10.14,10.14,0,0,0,2.4-1.5,3.32,3.32,0,0,0,.9-2.6,11.12,11.12,0,0,0-4.2,1,17.16,17.16,0,0,1-4,.8Q1042.3,106.6,1045.1,103.9Zm-4,60.3a5.32,5.32,0,0,1,1.7-3.6,38,38,0,0,1,3.8-3.5c1.4-1.13,2.37-1.9,2.9-2.3a26.38,26.38,0,0,0,4-3.2,19.75,19.75,0,0,0-3.6.5,19.71,19.71,0,0,1-3.4.5c2.4-2.13,4.4-3.27,6-3.4v-4.6a32.75,32.75,0,0,1-5.1,4.8q-3.3,2.59-4.3,3.2v-1.8l8.6-8.6v-2.4a3,3,0,0,0-1.9.7,2.09,2.09,0,0,0-.9,1.7,11.48,11.48,0,0,1-3,.6c-1.33.13-2.27.2-2.8.2a5.4,5.4,0,0,1,1.6-2.6,9.22,9.22,0,0,1,2.8-1.4,6.61,6.61,0,0,0,3.2-1.7c.67-.73,1-2.23,1-4.5q-2.4.4-6.8,5.1t-4.4,7.7V168l13-.8a5.72,5.72,0,0,0-.7-3.1,12.55,12.55,0,0,1-1.1-2.1,5.4,5.4,0,0,1-3.4,3.4,19.32,19.32,0,0,1-6,.8,25.55,25.55,0,0,1,5.5-3.6q4.1-2.21,5.7-2.2v-3.8a5.32,5.32,0,0,0-3.6,1.2,27.4,27.4,0,0,0-3.2,3.4,34.65,34.65,0,0,1-2.6,2.7,5.31,5.31,0,0,1-2.8,1.5A2.12,2.12,0,0,1,1041.1,164.2Zm.4-41.4c.27,1.07.53,2.07.8,3q6.79-3.6,6.8-7.8a11.81,11.81,0,0,0-.8-5l-7,6.8-.2.6A10.8,10.8,0,0,0,1041.5,122.8Zm.9,6.5q-1.31,2.1-1.3,6.9l.2,2.6a27,27,0,0,1,3.2-2.8q6.6-4.8,6.6-7.8c-.93.13-2.27.4-4,.8s-3.07.73-4,1a4.12,4.12,0,0,1,1.9-1.6,22.69,22.69,0,0,1,3.6-1.2c1.53-.4,2.3-1,2.3-1.8a4.07,4.07,0,0,0-1-3l-1.6.8A32.92,32.92,0,0,0,1042.4,129.3Zm12.7-75.1q-9.8,5.4-13.8,10.4h1l11.2-4.4a1.9,1.9,0,0,0,1.4-1.5,9.05,9.05,0,0,0,.4-2.7Zm-11.2-24-.8.8h.8Zm2.7,89.5a5.87,5.87,0,0,1-3.1,1.1l-.2-.6a1,1,0,0,1,.5-.9q.5-.3,1.8-.9t2.7-1.2A3.07,3.07,0,0,1,1046.6,119.7Zm2.3-25.9a50.56,50.56,0,0,0,5.8-3,25.19,25.19,0,0,1,8.2-3.8l24-17.2,2.6-2.6q-15,8.4-25,11.2l-20.6,16.4A12.83,12.83,0,0,0,1048.9,93.8Zm-.4-18.4a10.78,10.78,0,0,1-4.6,2.2,16.06,16.06,0,0,1,3.5-3.6,6.86,6.86,0,0,1,3.9-1.8Q1051.3,73.4,1048.5,75.4Zm-.1,9.2a31.66,31.66,0,0,0-3.7,1.6q4.4-5.6,7.2-5.6C1051.9,82.33,1050.73,83.67,1048.4,84.6Zm1.4,19.8a7.21,7.21,0,0,0,2.7-3.6,54.85,54.85,0,0,0-4.5,3.2,12.52,12.52,0,0,0-2.3,2A6.79,6.79,0,0,0,1049.8,104.4Zm1-77.4a13.32,13.32,0,0,0-2.4,1.2,8,8,0,0,0-1.9,2l.8.8a7.08,7.08,0,0,0,3.9-1.7c1.53-1.13,2.3-2.3,2.3-3.5Q1052.3,26.4,1050.8,27Zm9.6,46.5a23.65,23.65,0,0,0-1.7,4.1,21.49,21.49,0,0,1,4.3-1.3c2.07-.47,3.17-.7,3.3-.7l.8.2,18.2-8.6a67,67,0,0,0-22.4,3.4A6.86,6.86,0,0,0,1060.4,73.5Zm20.5,11.7q.6,0,4.4-2.8c.93-.53,2.23-1.37,3.9-2.5a26.32,26.32,0,0,1,3.9-2.3l-1-.2a14.39,14.39,0,0,0-6.2,1.8,25.55,25.55,0,0,1-5.8,1.8c0-.27,1.33-1.13,4-2.6a91.8,91.8,0,0,1,8.5-4.1,19.87,19.87,0,0,1,7.3-1.9h1.2c0-.93-.77-1.77-2.3-2.5a9.74,9.74,0,0,0-4.1-1.1q-3.2,0-11.6,6.2t-11.6,10.2Zm5.2,0h1.8l19.8-6.8a23.39,23.39,0,0,0-2-3.1c-.93-1.27-1.67-2-2.2-2.1q-.2,0-9.2,6l-6.4,4.2Zm4,3.3a5.12,5.12,0,0,0,2.4,1.1q1.8,0,5.3-2.6a24.33,24.33,0,0,0,4.7-4.2l-.8-.2a23.33,23.33,0,0,0-6.8,1.6,62.86,62.86,0,0,0-7,2.8Zm20.4-.3a4.07,4.07,0,0,1-1.2,3,17.91,17.91,0,0,1-3.6,2.6,21.23,21.23,0,0,0-3.8,2.7,4.56,4.56,0,0,0-1.4,3.5,12.06,12.06,0,0,0,5.8-1.8,12.83,12.83,0,0,1,5.6-1.6c.67.13,1,.67,1,1.6a3.74,3.74,0,0,1-1.2,2.9,19.68,19.68,0,0,1-3.8,2.5,22.71,22.71,0,0,0-4.1,2.7,4.19,4.19,0,0,0-1.5,3.3,22.56,22.56,0,0,0,8.6-1.9q4.61-1.9,4.6-5.1,0-14.59-7-23.4a6,6,0,0,1-2.1,3.8,59.16,59.16,0,0,1-5.5,3.8,36,36,0,0,0-4.3,2.9,3.21,3.21,0,0,0-1.3,2.5h3l-1.8,1.6a4.34,4.34,0,0,0,1.1,1.5,10.9,10.9,0,0,0,1.5,1.3,3.37,3.37,0,0,0,2.3-1,20.12,20.12,0,0,0,2.5-2.9,11.25,11.25,0,0,1,2-2.3l-2.2-.2a4.76,4.76,0,0,0-3.8,2q0-4.2,8-4.2Zm-8,16.8a16.58,16.58,0,0,1,3.4-2.8q3-2.6,3.6-3.2a13.64,13.64,0,0,0-4.9,1.3c-2.07.87-3.1,1.77-3.1,2.7C1101.5,104.2,1101.83,104.87,1102.5,105Zm2.7,41.5a5.21,5.21,0,0,0-2.9,3.8,53.73,53.73,0,0,0-.6,9.9l5-3.3c2.53-1.67,4.27-2.5,5.2-2.5l2.8-3.6a19.82,19.82,0,0,0-5.5,1.1,24.35,24.35,0,0,0-5.7,2.5l-.2-1a3.61,3.61,0,0,1,1.6-3,20.65,20.65,0,0,1,4.6-2.4,17,17,0,0,0,2.9-1.4c.87-.53,1.3-1.07,1.3-1.6v-1A46.16,46.16,0,0,0,1105.2,146.5Zm-3.1,20.7a4.79,4.79,0,0,1,.4,1.8,29.57,29.57,0,0,1,4.4-3,60.78,60.78,0,0,0,6.4-4.3q2.4-1.9,2.4-3.3a27.26,27.26,0,0,0-9.3,1.7q-4.7,1.69-4.7,5.3A4.87,4.87,0,0,0,1102.1,167.2Zm14.8-42.9a.67.67,0,0,0-.6-.3,42.81,42.81,0,0,0-11.2,7.8q-.19,0-.6-.6a3.12,3.12,0,0,1,1.3-2.6,21.27,21.27,0,0,1,3.9-2.2,19.8,19.8,0,0,0,4.4-2.6,4,4,0,0,0,1.4-3.2l-.2-.8-11,3.4v-.8l11-5.2v-6q-4.6,1.8-11.8,10.2a35.18,35.18,0,0,0-1,6.1c-.13,1.93-.2,4-.2,6.1q0,9.41,1.2,9.4h.8a8.48,8.48,0,0,1,2.2-4.2,58,58,0,0,1,4.6-4,30.76,30.76,0,0,0,4.2-3.8,12.52,12.52,0,0,0-3.9.9,12.4,12.4,0,0,1-3.7.9,11.93,11.93,0,0,1,4.8-3,14.68,14.68,0,0,0,3.5-1.9,3.81,3.81,0,0,0,1.1-3.1A1,1,0,0,0,1116.9,124.3Zm-9.8-10a56.06,56.06,0,0,1,6.6-4.9v-1.2a36.36,36.36,0,0,0-6.2,1.3q-5,1.31-5,2.5v7.8A24.89,24.89,0,0,1,1107.1,114.3Zm-.4,29.7a30.75,30.75,0,0,0,5.7-1.4c1.93-.67,2.9-1.4,2.9-2.2v-6a24.91,24.91,0,0,0-6.4,5.2q-2.6,3-3,3.4C1106.43,143.53,1106.7,143.87,1106.7,144Zm3.4,12a11.38,11.38,0,0,0-4.2,3.4l3.3-.8a15.16,15.16,0,0,0,4.2-1.6,3,3,0,0,0,1.7-2.6A11.22,11.22,0,0,0,1110.1,156Zm7.2,11.6a18.86,18.86,0,0,0-.3-3c-.2-1.2-.43-1.8-.7-1.8h-1l-6.8,4.4a15.83,15.83,0,0,1,7.8,2.6,1.23,1.23,0,0,0,1-1.4Zm-1.4-20.6c-1.2,0-2.2.73-3,2.2C1114.9,148.8,1115.9,148.07,1115.9,147Z"/><path class="cls-1" d="M1265.9,116.6a40.54,40.54,0,0,1-2.6,15.1,42,42,0,0,1-6.9,11.6q-4.31,5.1-12.1,12.7a27,27,0,0,1-11.8,7.2,111.73,111.73,0,0,1-17.2,3l-7.2,1a1.33,1.33,0,0,1-.8.6,3.38,3.38,0,0,1-1,.2q-12.19,0-20.3-3t-20.1-10.6c-1.07-.67-2.53-1.5-4.4-2.5a24.06,24.06,0,0,1-4.2-2.7q-9.79-8-14-21.5a95.4,95.4,0,0,1-4.2-28.5q0-15.6,8.2-31.7t21.2-24.3a47.66,47.66,0,0,1,7.4-3.5c2.67-1,4.33-1.63,5-1.9a73.16,73.16,0,0,0,9.2-3.4q17.6-2.2,18.8-2.2a56.37,56.37,0,0,1,9.6,2.1,62.76,62.76,0,0,1,12.3,4.8c3.67,1.93,5.5,4,5.5,6.1a6.81,6.81,0,0,1,4.3,1.6,12.36,12.36,0,0,1,2.6,3.6c.73,1.47,1.43,2.73,2.1,3.8a53.47,53.47,0,0,0,4.6,6.4q4.61,6.2,7.2,10.4a29.22,29.22,0,0,1,3.6,8.2A147.33,147.33,0,0,1,1265.9,116.6ZM1146.5,100q4,0,4.8-1.8l-2.6-1.7a12.22,12.22,0,0,0-3.6-1.7c-.53.13-.8.73-.8,1.8C1144.3,98.87,1145,100,1146.5,100Zm7,4.6a6.36,6.36,0,0,1,1.2.4v-3.6a34.08,34.08,0,0,0-5.6.8c-2.67.53-4,1.13-4,1.8a8.31,8.31,0,0,1,2.5.5,8.12,8.12,0,0,0,2.1.5l2.4-.6A6,6,0,0,1,1153.5,104.6Zm-8.4,4.2a22,22,0,0,0,6.2-1,22,22,0,0,0-6.2-1Zm1.4-20.3a1.7,1.7,0,0,0-.4,1.1,4.43,4.43,0,0,0,1.5.5,9.87,9.87,0,0,0,2.1.3,5.62,5.62,0,0,0,1.2-.2,2.51,2.51,0,0,0,1.2-.6,24.09,24.09,0,0,1-2.8-1c-.93-.4-1.6-.67-2-.8A2.51,2.51,0,0,0,1146.5,88.5Zm-.4,4.7a28.36,28.36,0,0,1,5.1,1.7,17.83,17.83,0,0,1,3.5,1.7,15.75,15.75,0,0,0,1-4.4h-8.8Zm1.1,25.7a1.48,1.48,0,0,0,1.3.9c2.53,0,4.07-.6,4.6-1.8a35.63,35.63,0,0,0-6.4-1A3.88,3.88,0,0,0,1147.2,118.9Zm3.1-5.9-.6.8c0,.67.93,1,2.8,1h2.2v-4.6c-.67.13-1.73.37-3.2.7a12.09,12.09,0,0,0-3.4,1.2,2,2,0,0,0-1.2,1.7c0,.13.13.3.4.5a1.24,1.24,0,0,0,.6.3,1.59,1.59,0,0,1,1.8-1.8Zm2.5-30.2a14.59,14.59,0,0,0-5.1,1.2,5.86,5.86,0,0,0,3.2,2.9,26.58,26.58,0,0,0,5.6,1.1,8.78,8.78,0,0,0,1.8-5.4C1156.57,82.6,1154.73,82.67,1152.8,82.8Zm-4.9-2.8.8.2c.93,0,1.47-.33,1.6-1h7.8l1-.8a12.22,12.22,0,0,0-4.8-1.8,19.52,19.52,0,0,1-4.6-1.6Zm1.4,45.5a2,2,0,0,1,.6,1.1h2.2v1l4.4-1v-1c0-3.33-.6-5.27-1.8-5.8a26.92,26.92,0,0,1-3.2,2.1c-1.87,1.13-2.8,2-2.8,2.5A2,2,0,0,0,1149.3,125.5Zm3.6-57.2a20.36,20.36,0,0,0-1.6,3.3l4.4.2a13.68,13.68,0,0,0,5.8-1.2q-1-.6-3.6-2.5c-1.73-1.27-2.93-1.9-3.6-1.9A7.73,7.73,0,0,0,1152.9,68.3Zm3.3,64.1c1.27-.8,1.9-1.4,1.9-1.8q0-1.2-4.2-1.2c-1.73,0-2.6.4-2.6,1.2a3.06,3.06,0,0,0,.8,1.8,4.59,4.59,0,0,0,1.2,1.2A6.27,6.27,0,0,0,1156.2,132.4Zm2.4,5.8,4.7.6V138a6.28,6.28,0,0,0-.9-2.7c-.6-1.13-1.17-1.7-1.7-1.7a6.37,6.37,0,0,0-3.2,1.1,11.22,11.22,0,0,0-2.8,2.3Q1155.49,137.8,1158.6,138.2Zm-1.1-76.6a8.77,8.77,0,0,0-1,1.8c.13,0,.47-.23,1-.7a3.53,3.53,0,0,1,2.4-.7l5.2,1c.4,0,.93-.33,1.6-1-.13-.4-1.2-.77-3.2-1.1s-3.47-.57-4.4-.7A3,3,0,0,0,1157.5,61.6Zm-1,3a9.08,9.08,0,0,0,3.1,2.6,7.89,7.89,0,0,0,3.7,1,6.09,6.09,0,0,0,3.3-1.1,13.38,13.38,0,0,0,2.9-2.5Zm86.1,66.1q4.5-9.7,4.5-25.5a60.8,60.8,0,0,0-1.6-10.6,43.92,43.92,0,0,1-1.4-8.6l.2-1.6-4.2-12a3.59,3.59,0,0,0-2.2-1.7,3.4,3.4,0,0,1-2.2-1.9c0-1.87-.37-3.1-1.1-3.7a9.34,9.34,0,0,0-3.7-1.5,7.87,7.87,0,0,1-5.4-3.4,10.27,10.27,0,0,1-3.6-1.3q-2-1.09-3.8-2.3a50.64,50.64,0,0,0-7-3.6,17.06,17.06,0,0,0-6.4-1.2,16.87,16.87,0,0,0-4.8.4,1.87,1.87,0,0,0-1.2,1.5,2,2,0,0,1-1,1.5l-3.6,2a63.91,63.91,0,0,1-12.8,6.4q-10.2,3.79-15.9,15a50.55,50.55,0,0,0-5.7,23.2,12.39,12.39,0,0,0,.5,4.1,6.22,6.22,0,0,1,.5,1.9,80.56,80.56,0,0,0,.9,13.6,29.06,29.06,0,0,0,4.8,10.8q3.9,5.81,12.5,13.4,1.8,1.8,12.9,4t15.9,2.2l3.8-.2a6.57,6.57,0,0,1,3.3-2.2,51.61,51.61,0,0,1,6.1-1.6l4.6-1.4Q1238.1,140.4,1242.6,130.7ZM1172.7,45a28.86,28.86,0,0,0-6.7,4.8c-1.93,1.87-2.9,3.53-2.9,5a1.5,1.5,0,0,0,.4.7,1.09,1.09,0,0,0,.8.5h16.4a3,3,0,0,0-1.9-1.6,17.35,17.35,0,0,0-3.5-.6,11.9,11.9,0,0,1-3.9-.8,2.56,2.56,0,0,1-1.3-2.6,2.45,2.45,0,0,1,1.4-2.2,19.52,19.52,0,0,1,4.6-1.6c.67-.27,1.43-.53,2.3-.8s1.83-.6,2.9-1a2.78,2.78,0,0,0-.9-1.5,3,3,0,0,0-1.5-.3A14.3,14.3,0,0,0,1172.7,45Zm-6.1,102.5a8.24,8.24,0,0,0,2.5-.6c.8-.33,1.2-.77,1.2-1.3v-1a12.74,12.74,0,0,0-4.1.8l-2.9,1a1.41,1.41,0,0,0,.6,1,2.28,2.28,0,0,0,1,.2C1165.17,147.6,1165.73,147.57,1166.6,147.5Zm7.9.7a4.81,4.81,0,0,0-1.2-.6,3.49,3.49,0,0,0-.8-.2,7.09,7.09,0,0,0-1.7,1,3.08,3.08,0,0,0-1.3,1.6Q1173.7,150,1174.5,148.2Zm3.4-95.6q5.2.6,7.8.8c.53,0,1.57-1,3.1-2.9s2.3-3.23,2.3-3.9l-1-1q-3,0-10.1,2.2t-8.1,4Q1172.7,52,1177.9,52.6Zm43.4,49.3a6,6,0,0,0-1.2,3.5,14.53,14.53,0,0,0,1.6,6.6,41.81,41.81,0,0,0,4.6,7,65.84,65.84,0,0,1,4.7,7.6,14.55,14.55,0,0,1,1.5,6.6c0,1.07-.23,1.7-.7,1.9a8,8,0,0,1-2.7.3,22.2,22.2,0,0,1-4.4-.4c-1.33-.27-2.27-.47-2.8-.6a26,26,0,0,0-7-1,22.41,22.41,0,0,0-3.4.2q-1.2-2.21-4.2-7.9a84,84,0,0,0-4.4-7.7l-2.4-3.4-1,.8-.2,2.6a29.26,29.26,0,0,0,.2,3.7c.13,1,.27,1.83.4,2.5a34.66,34.66,0,0,1,.6,6.4c-.13.53-.3,1.23-.5,2.1s-.37,1.5-.5,1.9h-21.6a4.25,4.25,0,0,1-3.5-2.2,7.77,7.77,0,0,1-1.5-4.4,77.76,77.76,0,0,1,1.8-10.6q1.6-9.6,1.6-10.6l.2-15.8q0-7-.8-15.8l-.2-5.4a3.33,3.33,0,0,1,.3-1.3c.2-.47.37-.9.5-1.3a12.11,12.11,0,0,0,2.6.2q2.8,0,7.6-.4a51.25,51.25,0,0,1,8-.6l.8-1.8.8.8a37.4,37.4,0,0,1,4.6-.2,67.15,67.15,0,0,1,23.8,4.6q3.6,5,4.4,7.5a29.38,29.38,0,0,1,.8,8.1v1.4a28.59,28.59,0,0,1-.5,6,15.36,15.36,0,0,1-2.9,5.4A14.53,14.53,0,0,0,1221.3,101.9ZM1184.1,155c0-.67-.83-1.67-2.5-3a7.59,7.59,0,0,0-4.5-2l-1.6,1.6a6.21,6.21,0,0,1,2.3,2.2,19.18,19.18,0,0,0,2.5,2.9,3.8,3.8,0,0,0,2.6,1.1C1183.7,157.8,1184.1,156.87,1184.1,155Zm-5-33a4.26,4.26,0,0,0-.8,3,6,6,0,0,0,.2,1.4,6.36,6.36,0,0,0,.4,1.2,16.66,16.66,0,0,1,5-3.4,15.42,15.42,0,0,0,4.4-2.8l-6.6-.2A3.58,3.58,0,0,0,1179.1,122Zm16.2,7.4-.8-3.6c-1.2.67-3.67,1.13-7.4,1.4-5.47.53-8.2,1.47-8.2,2.8h14.6Zm-13.9-13.5a2.17,2.17,0,0,0-1.3,2.3q3.2,0,9.2-2.8h-4.2A10.82,10.82,0,0,0,1181.4,115.9Zm-.7-4.7.6.2a24.05,24.05,0,0,0,14-4.6h-.8a56.69,56.69,0,0,0-6.7.7c-3.27.47-5.43.83-6.5,1.1Zm.6-34q1.2,0,5.2-3.6a24,24,0,0,1,5.2-3.8h-.6l-9.8,1.8a1.3,1.3,0,0,0,.7,1.2c.47.27.83.47,1.1.6-.27.53-.87.8-1.8.8Zm0,3.8,1,5.2q7-2.81,9.1-3.9a10.09,10.09,0,0,0,3.1-2.3h-3.6A39.92,39.92,0,0,0,1181.3,81Zm1,8.6-1,1.8,3.6-1.8Zm-1,7.2a1.77,1.77,0,0,0,.3.9.85.85,0,0,0,.7.5,11,11,0,0,0,3.9-1.5,34.34,34.34,0,0,0,3.1-1.9h-2.2Q1181.3,94.8,1181.3,96.8Zm14.8,2.4a34.19,34.19,0,0,0-7.7,1c-2.87.67-4.9,1.13-6.1,1.4v4Zm-12-56,5.4.2a54.08,54.08,0,0,0,5.8.4q2.6,0,6.5-2.4a44.73,44.73,0,0,1,4.5-2.6V37.2l-21.4,5Zm5.3,47.2q-4.1,1.6-4.5,1.8,6,0,8.2-.9t2.2-4.3A17.46,17.46,0,0,1,1189.4,90.4Zm6.7,19-11.2,3.6,3.2.2Q1196.1,113.2,1196.1,109.4Zm-5-23a10.18,10.18,0,0,0,3.4-.7c.67-.33,1-1.1,1-2.3a12.11,12.11,0,0,0-4.6,1.1,6.82,6.82,0,0,0-3.4,2.5A16.11,16.11,0,0,1,1191.1,86.4ZM1191,157a27,27,0,0,0,4.7,3.1,9.13,9.13,0,0,0,4,1.1,27.18,27.18,0,0,0-2.7-4.8,4.37,4.37,0,0,0-2.6-1.7,28,28,0,0,0-4.9-.3h-2A39.91,39.91,0,0,1,1191,157Zm.7,3.4a11.82,11.82,0,0,0-4.2-2.6v.8c0,.8.17,1.3.5,1.5a3.5,3.5,0,0,0,1.7.3Zm-.3-64.5a5.58,5.58,0,0,0-3.1,2.3,19,19,0,0,0,4.7-.7c1.8-.47,2.7-1.23,2.7-2.3A13.4,13.4,0,0,0,1191.4,95.9Zm-.9,26.9c-1.47.4-2.2.87-2.2,1.4v.8a10.91,10.91,0,0,0,3.6-.7c1.33-.47,2-1.17,2-2.1A14,14,0,0,0,1190.5,122.8Zm2.5-51.7q-3.7,2.3-3.7,3.9a52,52,0,0,0,10.2-6.2h-1.2C1197.23,68.8,1195.47,69.57,1193,71.1Zm-1,47.3a2.07,2.07,0,0,0,1.5-2,11.36,11.36,0,0,0-2.3,1,4.34,4.34,0,0,0-1.9,1.6A7.37,7.37,0,0,0,1192,118.4Zm7.4-46.2a24.47,24.47,0,0,1-4.1,2.8l.8.2a17.22,17.22,0,0,0,6.8-1.8,23.91,23.91,0,0,1,6.2-1.8q-.8-1.8-4.8-1.8Q1202.5,69.8,1199.4,72.2Zm-3.3-23.8a9.83,9.83,0,0,0,6.6-2.4,8.57,8.57,0,0,1,4.6-2.2v1q.79-.19,4.2-.6a43.3,43.3,0,0,0,5.7-1,5.12,5.12,0,0,0,3.1-1.8,2.62,2.62,0,0,0-2.8-1.8,5,5,0,0,0-4.2,1.8,4.77,4.77,0,0,1-4,1.8V40.4Q1198.7,44.8,1196.1,48.4Zm5.7,27.5a26.79,26.79,0,0,0-5.7,1.7,4.86,4.86,0,0,1,3.4,3.4l6.2-6A34.34,34.34,0,0,1,1201.8,75.9Zm-3.6,17q-.3,6.5-.3,10.1l6.4-.6c.27,0,1-.7,2.3-2.1a31.62,31.62,0,0,0,3.4-4.5,8.25,8.25,0,0,0,1.5-4.2q0-2.2-3.8-4.3a17.47,17.47,0,0,0-8.6-2.1Q1198.5,86.4,1198.2,92.9Zm5.7,16.3a5,5,0,0,0,2.4-2.6,10.86,10.86,0,0,0-4.5,1.5c-1.93,1-2.9,1.63-2.9,1.9a2.86,2.86,0,0,0,1.2.2A7.68,7.68,0,0,0,1203.9,109.2Zm12.1,51.6a2.15,2.15,0,0,0,.7-.4q0-5.6-7.4-5.6c-1.73,0-3.4.07-5,.2a9.24,9.24,0,0,0-3.8,1,67.17,67.17,0,0,0,7.4,3.3,21.11,21.11,0,0,0,7.2,1.7A2.5,2.5,0,0,0,1216,160.8Zm-6.1,2a7.6,7.6,0,0,0-3.4-2.3,11.79,11.79,0,0,0-4.4-1.1,6.24,6.24,0,0,0,2.2,2.9,6.76,6.76,0,0,0,3.4.7Zm-1.1-83.6c-3.27,1.2-5.23,2.4-5.9,3.6a22.27,22.27,0,0,0,4.4.8q1.2-.6,4.4-2.6c2.13-1.33,3.8-2.47,5-3.4l-.8-.2A23.87,23.87,0,0,0,1208.8,79.2Zm7.3-6.7a11.46,11.46,0,0,1-1.8.1v-1a9.42,9.42,0,0,0-4,2.4c-1.47,1.33-2.47,2.27-3,2.8q8,0,13-3.4a10.89,10.89,0,0,0-3.2-1A5.89,5.89,0,0,0,1216.1,72.5Zm-2.9,36.9a2.85,2.85,0,0,0,2.1-2.8,20.86,20.86,0,0,0-3.7,1.7,22.87,22.87,0,0,1-4.3,1.9h1.2A13.2,13.2,0,0,0,1213.2,109.4Zm-5.9,6.6q2.81,0,6-4h-1.8c-2.8.4-4.2.73-4.2,1Zm12.4-17.8a28,28,0,0,0,3.1-3.5,5.68,5.68,0,0,0,.9-3.3q-2,1-5.9,3.3t-4.5,2.7l-3.4,6h6Q1216.5,101,1219.7,98.2Zm-7.8,21.6a4,4,0,0,0,3.2-1.8l-4.2,1C1210.9,119.53,1211.23,119.8,1211.9,119.8Zm9.1.7a1.37,1.37,0,0,0-1.1-.7q-3,0-7.4,3.4.4,0,9.4-1.8A2.69,2.69,0,0,1,1221,120.5Zm3.2-42a2.18,2.18,0,0,0-1.5-1.7,23.68,23.68,0,0,0-9.4,6h1.8q8.6-2.4,9.4-2.8A13.16,13.16,0,0,0,1224.2,78.5Zm-10.9,36.9a1.57,1.57,0,0,1,.5.1,2.93,2.93,0,0,0,.9.1,3.78,3.78,0,0,0,2.8-1l-.8-.8Zm9.4,8.8-4.2-.2q-4.2,0-5.2,1.8.4,3.8,3,3.8l1.2-.2Zm-5.8-74.1c1.87,1.13,3.13,1.7,3.8,1.7s2.1-.8,3.9-2.4,2.9-2.53,3.3-2.8q-6.4.8-7.8.8a4.56,4.56,0,0,1-1.9-.4,3.82,3.82,0,0,0-1.5-.4,4.15,4.15,0,0,0-1.7.4c-.6.27-.9.53-.9.8S1215,49,1216.9,50.1Zm5.4,38.5q2.21-1.2,2.2-5.8a25.4,25.4,0,0,0-5.9,2.9,15.69,15.69,0,0,0-4.3,3.9l.8.2Q1220.1,89.8,1222.3,88.6Zm7.4,69.8q6-2.21,6-2.4l-14.6-1.6-.8-1a3.5,3.5,0,0,0-1,2.6,5.94,5.94,0,0,0,.9,3.1q.9,1.5,1.5,1.5Q1223.7,160.6,1229.7,158.4Zm-5.2-31.8-1.8,1.8,2.8,1A13.86,13.86,0,0,0,1224.5,126.6Zm3.1,24.8a2.9,2.9,0,0,0-1.3-.6l-3.6,1.8h6.2A4.65,4.65,0,0,0,1227.6,151.4ZM1228.9,51a17.3,17.3,0,0,0,6.8-1c-.27-.93-1.13-1.4-2.6-1.4A5.19,5.19,0,0,0,1228.9,51Zm0,4.2,1.6.5a6.37,6.37,0,0,0,1.8.3,2.25,2.25,0,0,0,1.2-.7c.53-.47,1-.9,1.4-1.3Q1229.7,54,1228.9,55.2Zm16.4,93a38.17,38.17,0,0,0-7.4.8c-2.67.53-4.27.87-4.8,1q.4.8,3.3,1.2a34.21,34.21,0,0,0,4.3.4Q1242.5,151.6,1245.3,148.2Zm-7-92a4.32,4.32,0,0,0-1.8.8,1.74,1.74,0,0,0-.8,1.4c0,.27.53.8,1.6,1.6a7.86,7.86,0,0,0,4.2,1.4.82.82,0,0,0,.2-.6,7.12,7.12,0,0,0-.8-2.9c-.53-1.13-1-1.77-1.4-1.9A11.05,11.05,0,0,0,1238.3,56.2Zm13.1,85.4a17.16,17.16,0,0,0,3.3-4.6,33,33,0,0,1-6.4,2.4c-2.53.67-4.43,1.23-5.7,1.7s-1.9,1-1.9,1.7a15.14,15.14,0,0,1,3.5.6,15.14,15.14,0,0,0,3.5.6C1248.63,144,1249.87,143.2,1251.4,141.6Zm-7.4-77a2.77,2.77,0,0,0-.5,1.4,2.18,2.18,0,0,0,.9,2.1,6.33,6.33,0,0,0,2.9.5,9.62,9.62,0,0,0-2-5.6A9.14,9.14,0,0,0,1244,64.6Zm1.8,70.7a4,4,0,0,0-1.5,3.5,30.22,30.22,0,0,1,4.9-2.1c1.8-.6,3-1,3.7-1.3-.27-.8-1.33-1.2-3.2-1.2A6.46,6.46,0,0,0,1245.8,135.3Zm2.7-61.9a3.06,3.06,0,0,0-.8,1.8c0,.53.63.93,1.9,1.2a15,15,0,0,0,2.9.4q0-4.39-2.4-4.4A2.16,2.16,0,0,0,1248.5,73.4Zm10.2,56a34.45,34.45,0,0,0,1.2-4.6,8.07,8.07,0,0,1-2.5,1.3l-2.1.7a24.05,24.05,0,0,0-4.1,1.6,6.29,6.29,0,0,0-2.5,2.6,27.86,27.86,0,0,1,4,.4,27.47,27.47,0,0,0,3.8.4C1257.43,131.8,1258.17,131,1258.7,129.4Zm-4-48.4-4.2,4.2q0,1.39,6,1.4A13.87,13.87,0,0,0,1254.7,81Zm-2.2,11.2a8.73,8.73,0,0,0,2.2-.8,17.15,17.15,0,0,0,1.8-1v-.8h-5.6C1250.9,91.33,1251.43,92.2,1252.5,92.2Zm7.8,27.9a19.78,19.78,0,0,0,.4-4.7l-9.4,5.2a24,24,0,0,0,7.2,1A1.76,1.76,0,0,0,1260.3,120.1Zm-8.8-3.7a13.86,13.86,0,0,0,4-.6,3.79,3.79,0,0,0,2.6-2,7,7,0,0,0-3.4-1Q1251.5,112.8,1251.5,116.4Zm7.4-12q-1,.6-4,2.5t-3,3.3h8.2A15.57,15.57,0,0,0,1258.9,104.4ZM1254.5,94c-1.6.8-2.4,1.33-2.4,1.6v1h5.2l1-2.6-1-1C1257,92.87,1256.1,93.2,1254.5,94Zm-1,9.4a5.2,5.2,0,0,0,1.9-1.1c.73-.6,1.1-1.1,1.1-1.5l-3.6-1.6c-.53,0-.8.53-.8,1.6C1252.1,102.53,1252.57,103.4,1253.5,103.4Z"/></svg>